<?xml version="1.0" encoding="UTF-8"?>
<svg width="96px" height="96px" viewBox="0 0 96 96" version="1.1" xmlns="http://www.w3.org/2000/svg" xmlns:xlink="http://www.w3.org/1999/xlink">
    <!-- Generator: Sketch 61 (89581) - https://sketch.com -->
    <title>3@3x</title>
    <desc>Created with Sketch.</desc>
    <g id="页面-1" stroke="none" stroke-width="1" fill="none" fill-rule="evenodd">
        <g id="订单详情备份" transform="translate(-524.000000, -1348.000000)">
            <g id="3" transform="translate(524.000000, 1348.000000)">
                <path d="M23,33.218017 C25.056663,34.7011323 27.3899963,35.4426899 30,35.4426899 C32.6100037,35.4426899 34.943337,34.7011323 37,33.218017" id="路径-32备份" stroke="#DDDDDD" stroke-width="4" stroke-linecap="round" transform="translate(30.000000, 34.330353) scale(1, -1) translate(-30.000000, -34.330353) "></path>
                <circle id="椭圆形" stroke="#DDDDDD" stroke-width="4" cx="48" cy="48" r="46"></circle>
                <path d="M59,33 C61.056663,34.4831152 63.3899963,35.2246728 66,35.2246728 C68.6100037,35.2246728 70.943337,34.4831152 73,33" id="路径-32备份-2" stroke="#DDDDDD" stroke-width="4" stroke-linecap="round" transform="translate(66.000000, 34.112336) scale(1, -1) translate(-66.000000, -34.112336) "></path>
                <path d="M48,82.4112487 C63.433858,82.4112487 76.0517337,70.1836197 76.9489744,54.759291 C76.9489744,54.759291 76.9489744,54.759291 76.9489744,54.759291 C77.0056092,53.7856906 76.2658236,52.9489002 75.2926241,52.8857508 C66.1924033,52.2952494 57.0938937,52 47.9970956,52 C38.9335673,52 29.8700427,52.2930937 20.8065217,52.8792811 L20.8065201,52.8792557 C19.7760517,52.9459017 18.9937527,53.8337131 19.0573227,54.8643759 C19.0573227,54.8643759 19.0573227,54.8643759 19.0573227,54.8643759 C20.0056178,70.2391201 32.6012085,82.4112487 48,82.4112487 Z" id="椭圆形" fill="#DDDDDD"></path>
                <path d="M47.8026436,60 C56.1207865,60 63.1211001,65.0153762 65.1851258,71.829721 C60.6861144,76.2687864 54.5572053,79 47.8026436,79 C41.0476609,79 34.9184087,76.2684458 30.4194618,71.8295917 C32.4841872,65.0153762 39.4845007,60 47.8026436,60 Z" id="形状结合" fill="#FFFFFF"></path>
            </g>
        </g>
    </g>
</svg>