<?xml version="1.0" encoding="UTF-8"?>
<svg width="32px" height="32px" viewBox="0 0 32 32" version="1.1" xmlns="http://www.w3.org/2000/svg" xmlns:xlink="http://www.w3.org/1999/xlink">
    <title>添加@2x</title>
    <g id="地址" stroke="none" stroke-width="1" fill="none" fill-rule="evenodd">
        <g id="地址信息" transform="translate(-377.000000, -1299.000000)" fill-rule="nonzero">
            <g id="添加" transform="translate(377.000000, 1299.000000)">
                <rect id="矩形" fill="#000000" opacity="0" x="0" y="0" width="32" height="32"></rect>
                <path d="M15.6249583,31.25 C13.5160417,31.25 11.4696667,30.83675 9.54266667,30.0217083 C7.68191667,29.2347083 6.01104167,28.10825 4.57641667,26.673625 C3.14179167,25.239 2.01533333,23.568125 1.22829167,21.707375 C0.41325,19.780375 0,17.734 0,15.6250417 C0,13.5161667 0.41325,11.4697917 1.22829167,9.54279167 C2.01533333,7.68204167 3.14179167,6.01116667 4.57641667,4.5765 C6.01104167,3.141875 7.68195833,2.015375 9.54266667,1.228375 C11.4696667,0.41325 13.5160417,0 15.6249583,0 C17.7338333,0 19.78025,0.41325 21.70725,1.22833333 C23.568,2.015375 25.238875,3.14183333 26.6735,4.57645833 C28.1081667,6.011125 29.234625,7.682 30.021625,9.54275 C30.8367083,11.46975 31.2499167,13.5160833 31.2499167,15.625 C31.2499167,17.7339167 30.8366667,19.7803333 30.021625,21.7073333 C29.2345833,23.5680833 28.108125,25.239 26.6735,26.6735833 C25.2388333,28.10825 23.5679583,29.2347083 21.70725,30.0216667 C19.7802083,30.83675 17.7338333,31.25 15.6249583,31.25 Z M15.6249583,2.08333333 C8.15804167,2.08333333 2.08329167,8.15808333 2.08329167,15.625 C2.08329167,23.091875 8.15804167,29.1666667 15.6249583,29.1666667 C23.0918333,29.1666667 29.166625,23.091875 29.166625,15.625 C29.166625,8.15808333 23.0918333,2.08333333 15.6249583,2.08333333 Z" id="形状" fill="#FFFFFF"></path>
                <path d="M22.3539167,14.551875 L17.052,14.551875 L17.052,9.25 C17.052,8.55966667 16.4923333,8 15.802,8 C15.1116667,8 14.552,8.55966667 14.552,9.25 L14.552,14.551875 L9.25,14.551875 C8.55966667,14.551875 8,15.1115417 8,15.801875 C8,16.4922083 8.55966667,17.051875 9.25,17.051875 L14.5519583,17.051875 L14.5519583,22.3539167 C14.5519583,23.04425 15.111625,23.6039167 15.8019583,23.6039167 C16.4922917,23.6039167 17.0519583,23.04425 17.0519583,22.3539167 L17.0519583,17.051875 L22.353875,17.051875 C23.0442083,17.051875 23.603875,16.4922083 23.603875,15.801875 C23.603875,15.1115417 23.04425,14.551875 22.3539167,14.551875 Z" id="路径" fill="#FFFFFF"></path>
            </g>
        </g>
    </g>
</svg>