<?xml version="1.0" encoding="UTF-8"?>
<svg width="750px" height="699px" viewBox="0 0 750 699" version="1.1" xmlns="http://www.w3.org/2000/svg" xmlns:xlink="http://www.w3.org/1999/xlink">
    <!-- Generator: Sketch 61 (89581) - https://sketch.com -->
    <title>bg@3x</title>
    <desc>Created with Sketch.</desc>
    <defs>
        <linearGradient x1="53.2649578%" y1="-18.4177294%" x2="50%" y2="80.8075989%" id="linearGradient-1">
            <stop stop-color="#00B4FF" offset="0%"></stop>
            <stop stop-color="#FFFFFF" offset="100%"></stop>
        </linearGradient>
        <rect id="path-2" x="0" y="0" width="750" height="699"></rect>
        <linearGradient x1="50%" y1="0%" x2="50%" y2="100%" id="linearGradient-4">
            <stop stop-color="#FFFFFF" stop-opacity="0" offset="0%"></stop>
            <stop stop-color="#FFFFFF" offset="100%"></stop>
        </linearGradient>
        <linearGradient x1="50%" y1="0%" x2="50%" y2="100%" id="linearGradient-5">
            <stop stop-color="#FFFFFF" stop-opacity="0" offset="0%"></stop>
            <stop stop-color="#FFFFFF" offset="100%"></stop>
        </linearGradient>
        <linearGradient x1="50%" y1="5.05483055%" x2="50%" y2="130.503194%" id="linearGradient-6">
            <stop stop-color="#3BA8FF" offset="0%"></stop>
            <stop stop-color="#0366E6" offset="100%"></stop>
        </linearGradient>
        <path d="M119.031085,273.812808 C111.078042,273.812808 103.455688,271.479211 97.5694446,267.279476 L19.7751321,211.525507 C8.498677,203.456724 0,186.856195 0,172.950772 L0,48.6948194 C0,41.4692905 2.52976208,33.9792108 7.1593916,27.6300048 C11.7724867,21.2477297 18.0720901,16.5684969 24.8842592,14.4190258 L24.9669313,14.4024914 L25.049603,14.3694229 C27.9927246,13.2616187 36.3921958,10.3515656 50.9755291,7.16042805 C73.3443463,2.34298763 96.1660037,-0.0572498532 119.047619,0 C142.410714,0 165.310846,2.41505757 187.103175,7.17696248 C201.736111,10.3681 210.168651,13.2946872 213.095238,14.4024914 L213.161376,14.4355603 L213.244048,14.4520947 C220.023148,16.6677031 226.306217,21.3800047 230.919312,27.7457454 C235.532407,34.1280206 238.095238,41.5684967 238.095238,48.7278883 L238.095238,172.983841 C238.095238,186.905799 229.580026,203.506328 218.320106,211.575111 L140.492725,267.329079 C134.169446,271.632328 126.679273,273.894383 119.031085,273.812808 Z" id="path-7"></path>
        <filter x="-44.4%" y="-40.7%" width="188.9%" height="181.4%" filterUnits="objectBoundingBox" id="filter-9">
            <feGaussianBlur stdDeviation="20" in="SourceGraphic"></feGaussianBlur>
        </filter>
        <filter x="-39.7%" y="-160.7%" width="179.5%" height="421.4%" filterUnits="objectBoundingBox" id="filter-10">
            <feGaussianBlur stdDeviation="30" in="SourceGraphic"></feGaussianBlur>
        </filter>
        <linearGradient x1="50%" y1="0%" x2="50%" y2="100%" id="linearGradient-11">
            <stop stop-color="#8FEBFC" offset="0%"></stop>
            <stop stop-color="#06ADFF" offset="100%"></stop>
        </linearGradient>
        <path d="M119.031085,273.813809 C111.078042,273.813809 103.455688,271.480211 97.5694446,267.280476 L19.7751321,211.526508 C8.498677,203.457725 0,186.857196 0,172.951772 L0,48.6958197 C0,41.4702908 2.52976208,33.9802111 7.1593916,27.6310052 C11.7724867,21.24873 18.0720901,16.5694972 24.8842592,14.4200262 L24.9669313,14.4034917 L25.049603,14.3704233 C27.9927246,13.2626191 36.3921958,10.352566 50.9755291,7.16142839 C73.3443463,2.34398797 96.1660037,-0.0562495161 119.047619,0.0010003371 C142.410714,0.0010003371 165.310846,2.41605791 187.103175,7.17796281 C201.736111,10.3691004 210.168651,13.2956875 213.095238,14.4034917 L213.161376,14.4365606 L213.244048,14.453095 C220.023148,16.6687034 226.306217,21.381005 230.919312,27.7467458 C235.532407,34.1290209 238.095238,41.569497 238.095238,48.7288886 L238.095238,172.984841 C238.095238,186.906799 229.580026,203.507328 218.320106,211.576111 L140.492725,267.330079 C134.169446,271.633328 126.679273,273.895384 119.031085,273.813809 Z M30.820106,32.6078569 C24.8015874,34.4431742 19.3287037,42.082063 19.3287037,48.6958197 L19.3287037,172.951772 C19.3287037,180.62373 24.9503969,191.635635 31.1177249,196.050317 L108.928571,251.82082 C111.524471,253.672672 115.112434,254.697804 119.047619,254.697804 C122.96627,254.697804 126.570767,253.672672 129.166667,251.82082 L206.960979,196.050317 C213.244047,191.552963 218.766534,180.739471 218.766534,172.951772 L218.766534,48.6958197 C218.766534,42.1482007 213.227513,34.5093119 207.126323,32.574788 L206.398809,32.310238 C204.473298,31.6114768 202.526839,30.9718471 200.562169,30.3922485 C194.758598,28.6396028 188.822751,27.1019047 182.919973,25.8287563 C162.516534,21.3644706 141.021825,19.1157934 119.047619,19.1157934 C97.073413,19.1157934 75.5787037,21.381005 55.1587302,25.8287563 C49.2394182,27.1019043 43.3201058,28.6396028 37.5,30.3922485 C35.5407811,30.977873 33.5998467,31.6230132 31.6798942,32.3267724 L30.820106,32.6078569 L30.820106,32.6078569 Z" id="path-12"></path>
        <filter x="-1.1%" y="-0.5%" width="102.1%" height="102.2%" filterUnits="objectBoundingBox" id="filter-14">
            <feOffset dx="0" dy="2" in="SourceAlpha" result="shadowOffsetOuter1"></feOffset>
            <feGaussianBlur stdDeviation="0.5" in="shadowOffsetOuter1" result="shadowBlurOuter1"></feGaussianBlur>
            <feColorMatrix values="0 0 0 0 0.647058824   0 0 0 0 0.956862745   0 0 0 0 0.996078431  0 0 0 1 0" type="matrix" in="shadowBlurOuter1"></feColorMatrix>
        </filter>
        <filter x="-2.3%" y="-1.6%" width="104.6%" height="104.4%" filterUnits="objectBoundingBox" id="filter-15">
            <feGaussianBlur stdDeviation="3" in="SourceAlpha" result="shadowBlurInner1"></feGaussianBlur>
            <feOffset dx="0" dy="3" in="shadowBlurInner1" result="shadowOffsetInner1"></feOffset>
            <feComposite in="shadowOffsetInner1" in2="SourceAlpha" operator="arithmetic" k2="-1" k3="1" result="shadowInnerInner1"></feComposite>
            <feColorMatrix values="0 0 0 0 0.125490196   0 0 0 0 0.647058824   0 0 0 0 0.976470588  0 0 0 0.638991989 0" type="matrix" in="shadowInnerInner1"></feColorMatrix>
        </filter>
        <filter x="-35.6%" y="-87.8%" width="171.3%" height="275.6%" filterUnits="objectBoundingBox" id="filter-16">
            <feGaussianBlur stdDeviation="15" in="SourceGraphic"></feGaussianBlur>
        </filter>
        <linearGradient x1="50%" y1="23.3302751%" x2="32.5414173%" y2="159.976479%" id="linearGradient-17">
            <stop stop-color="#FFFFFF" offset="0%"></stop>
            <stop stop-color="#06ADFF" offset="100%"></stop>
        </linearGradient>
        <path d="M130.687831,180.036393 C128.129082,180.041199 125.673033,179.030235 123.859127,177.225529 L91.7162699,145.41336 C88.097151,141.658715 88.1634277,135.693806 91.8650793,132.020503 C95.5824944,128.309634 101.584309,128.250864 105.373677,131.888228 L130.687831,156.937831 L194.609788,93.6772488 C198.41269,90.0512411 204.41272,90.1172561 208.134921,93.8260582 C211.836572,97.4993615 211.902849,103.46427 208.28373,107.218915 L137.516535,177.225529 C135.702628,179.030235 133.246579,180.041199 130.687831,180.036393 L130.687831,180.036393 Z" id="path-18"></path>
        <filter x="-2.1%" y="-1.7%" width="104.1%" height="106.7%" filterUnits="objectBoundingBox" id="filter-19">
            <feOffset dx="0" dy="2" in="SourceAlpha" result="shadowOffsetOuter1"></feOffset>
            <feGaussianBlur stdDeviation="0.5" in="shadowOffsetOuter1" result="shadowBlurOuter1"></feGaussianBlur>
            <feColorMatrix values="0 0 0 0 0.647058824   0 0 0 0 0.956862745   0 0 0 0 0.996078431  0 0 0 1 0" type="matrix" in="shadowBlurOuter1"></feColorMatrix>
        </filter>
        <filter x="-4.5%" y="-5.1%" width="109.0%" height="113.5%" filterUnits="objectBoundingBox" id="filter-20">
            <feGaussianBlur stdDeviation="3" in="SourceAlpha" result="shadowBlurInner1"></feGaussianBlur>
            <feOffset dx="0" dy="3" in="shadowBlurInner1" result="shadowOffsetInner1"></feOffset>
            <feComposite in="shadowOffsetInner1" in2="SourceAlpha" operator="arithmetic" k2="-1" k3="1" result="shadowInnerInner1"></feComposite>
            <feColorMatrix values="0 0 0 0 0.125490196   0 0 0 0 0.647058824   0 0 0 0 0.976470588  0 0 0 0.400816591 0" type="matrix" in="shadowInnerInner1"></feColorMatrix>
        </filter>
        <filter x="-15.4%" y="-15.3%" width="130.7%" height="130.6%" filterUnits="objectBoundingBox" id="filter-21">
            <feGaussianBlur stdDeviation="10" in="SourceGraphic"></feGaussianBlur>
        </filter>
        <filter x="-16.2%" y="-12.8%" width="132.4%" height="125.5%" filterUnits="objectBoundingBox" id="filter-22">
            <feGaussianBlur stdDeviation="6" in="SourceGraphic"></feGaussianBlur>
        </filter>
        <linearGradient x1="73.493697%" y1="5.93513137%" x2="64.0935968%" y2="71.3608106%" id="linearGradient-23">
            <stop stop-color="#A8FFF3" offset="0%"></stop>
            <stop stop-color="#FF6CA7" offset="100%"></stop>
        </linearGradient>
        <filter x="-16.3%" y="-13.5%" width="133.0%" height="127.4%" filterUnits="objectBoundingBox" id="filter-24">
            <feGaussianBlur stdDeviation="6" in="SourceGraphic"></feGaussianBlur>
        </filter>
        <filter x="-10.1%" y="-5.6%" width="120.2%" height="111.1%" filterUnits="objectBoundingBox" id="filter-25">
            <feGaussianBlur stdDeviation="1" in="SourceGraphic"></feGaussianBlur>
        </filter>
        <filter x="-18.9%" y="-21.2%" width="138.2%" height="142.8%" filterUnits="objectBoundingBox" id="filter-26">
            <feOffset dx="0" dy="2" in="SourceAlpha" result="shadowOffsetOuter1"></feOffset>
            <feGaussianBlur stdDeviation="15" in="shadowOffsetOuter1" result="shadowBlurOuter1"></feGaussianBlur>
            <feColorMatrix values="0 0 0 0 0   0 0 0 0 0.562472911   0 0 0 0 0.936221358  0 0 0 0.499029413 0" type="matrix" in="shadowBlurOuter1" result="shadowMatrixOuter1"></feColorMatrix>
            <feMerge>
                <feMergeNode in="shadowMatrixOuter1"></feMergeNode>
                <feMergeNode in="SourceGraphic"></feMergeNode>
            </feMerge>
        </filter>
        <linearGradient x1="55.580004%" y1="21.1646493%" x2="59.6493195%" y2="67.2106716%" id="linearGradient-27">
            <stop stop-color="#E1B48A" offset="0%"></stop>
            <stop stop-color="#C28954" offset="100%"></stop>
        </linearGradient>
        <path d="M135.059927,40.1980786 C122.465612,9.35767036 109.593435,-3.73691246 96.4433962,0.914330163 C76.7183378,7.8911941 7.46209888,73.7693266 0.986406192,78.7756999 C-5.48928649,83.7820732 21.5264554,127.992729 35.1718308,121.657806 C41.08212,118.913928 65.7877166,120.988837 92.1275414,98.886879 C101.595235,90.9424612 115.90603,71.3795277 135.059927,40.1980786 Z" id="path-28"></path>
        <linearGradient x1="30.5154523%" y1="94.6037716%" x2="78.2292785%" y2="42.1861071%" id="linearGradient-30">
            <stop stop-color="#FBB078" offset="0%"></stop>
            <stop stop-color="#FDE9D9" offset="100%"></stop>
        </linearGradient>
        <path d="M25.9023432,0 L10.702265,17.4928468 L0,28.2867528 L25.9023432,44.2383625 C32.1615049,38.5251292 36.1815066,34.3233087 37.9623483,31.632901 C39.74319,28.9424932 42.1229315,25.4415287 45.1015727,21.1300073 L40.2315028,9.2906573 L25.9023432,0 Z" id="path-31"></path>
        <filter x="-64.2%" y="-114.6%" width="228.5%" height="329.2%" filterUnits="objectBoundingBox" id="filter-33">
            <feGaussianBlur stdDeviation="9" in="SourceGraphic"></feGaussianBlur>
        </filter>
        <linearGradient x1="63.0402305%" y1="44.65368%" x2="23.8604004%" y2="92.8394357%" id="linearGradient-34">
            <stop stop-color="#6CDDFF" offset="0%"></stop>
            <stop stop-color="#EFF7FD" offset="100%"></stop>
        </linearGradient>
        <path d="M257.349166,49.8897734 C253.239358,63.1168611 253.086939,71.3597364 256.89191,74.6183992 C262.599367,79.5063934 275.766107,72.9590137 279.034734,69.0016481 C281.213819,66.3634043 283.252292,63.2735943 285.150153,59.732218 L290.124716,59.732218 C291.238904,61.9117712 292.439749,63.3188166 293.727251,63.9533542 C295.658503,64.9051607 290.211314,72.6871712 284.168198,79.3905657 C278.125081,86.0939603 269.803946,90.4069252 252.818915,89.1644923 C242.730192,88.4265154 238.5902,76.5046905 240.048581,64.9576381 C241.045479,57.0644673 246.079562,49.0970404 247.998918,45.9824526 C252.726134,38.3114821 257.414085,28.3649201 258.198981,28.3649201 C258.511114,28.3649201 261.051429,27.74168 263.330039,29.8617412 C264.357556,30.8177623 265.933713,33.2978813 268.05851,37.3020981 L265.764981,40.0608655 L257.349166,49.8897734 Z" id="path-35"></path>
        <filter x="-7.4%" y="-6.5%" width="114.7%" height="113.1%" filterUnits="objectBoundingBox" id="filter-36">
            <feGaussianBlur stdDeviation="3" in="SourceAlpha" result="shadowBlurInner1"></feGaussianBlur>
            <feOffset dx="0" dy="2" in="shadowBlurInner1" result="shadowOffsetInner1"></feOffset>
            <feComposite in="shadowOffsetInner1" in2="SourceAlpha" operator="arithmetic" k2="-1" k3="1" result="shadowInnerInner1"></feComposite>
            <feColorMatrix values="0 0 0 0 0.0549019608   0 0 0 0 0.780392157   0 0 0 0 0.976470588  0 0 0 1 0" type="matrix" in="shadowInnerInner1"></feColorMatrix>
        </filter>
        <linearGradient x1="5.95706641%" y1="52.3547224%" x2="11.8035462%" y2="55.8649261%" id="linearGradient-37">
            <stop stop-color="#FDE5D3" offset="0%"></stop>
            <stop stop-color="#FCCCAB" offset="100%"></stop>
            <stop stop-color="#FCCCAB" offset="100%"></stop>
        </linearGradient>
        <path d="M151.841888,30.0579561 C133.221219,34.3774137 121.634482,36.5371425 117.081679,36.5371425 C110.252475,36.5371425 69.7097714,57.4142704 58.6583002,58.6563237 C47.606829,59.898377 46.6278961,64.1024399 42.3941028,65.376169 C38.1603095,66.6498981 30.684644,66.7175705 29.2145754,67.9438313 C27.7445069,69.1700921 15.1318998,72.1410081 13.3642933,69.1844782 C12.1858889,67.2134582 14.4187362,64.8248101 20.062835,62.0185339 C6.68761168,62.2706481 0,61.1499114 0,58.6563237 C0,56.162736 4.81150842,55.0205686 14.4345253,55.2298213 C15.4205061,54.9529375 15.2952532,54.5990503 14.0587666,54.1681598 C12.2040366,53.5218242 2.10102171,55.8703781 1.05051085,53.3561406 C0,50.8419032 1.69999991,49.3913204 3.8497574,49.3913204 C5.28292907,49.3913204 6.28797804,49.3913204 6.86490432,49.3913204 C5.07696751,48.9637491 4.1829991,48.3245404 4.1829991,47.4736943 C4.1829991,46.1974253 7.34641515,44.7253934 9.30182321,44.7253934 C7.77184518,44.7253934 5.89525924,43.4427296 8.87544354,42.1622184 C11.8556278,40.8817072 15.7585255,40.3381605 21.3914373,40.3381605 C27.0243491,40.3381605 47.6267022,40.3512977 51.6200181,38.9678917 C55.613334,37.5844858 74.8451504,16.5129746 88.0121554,12.9343091 C101.17916,9.35564371 122.684426,4.06209277 129.8497,2.78513891 C134.626549,1.93383633 138.686601,1.00545669 142.029856,4.54747351e-13" id="path-38"></path>
        <filter x="-32.6%" y="-154.4%" width="165.2%" height="408.9%" filterUnits="objectBoundingBox" id="filter-40">
            <feGaussianBlur stdDeviation="2" in="SourceGraphic"></feGaussianBlur>
        </filter>
        <filter x="-42.9%" y="-300.0%" width="185.7%" height="700.0%" filterUnits="objectBoundingBox" id="filter-41">
            <feGaussianBlur stdDeviation="2" in="SourceGraphic"></feGaussianBlur>
        </filter>
        <linearGradient x1="34.1994777%" y1="92.6556415%" x2="70.6541255%" y2="52.631135%" id="linearGradient-42">
            <stop stop-color="#1A85FF" offset="0%"></stop>
            <stop stop-color="#0B57C2" offset="100%"></stop>
        </linearGradient>
        <linearGradient x1="0%" y1="61.3073505%" x2="105.47205%" y2="42.3363024%" id="linearGradient-43">
            <stop stop-color="#0278FD" offset="0%"></stop>
            <stop stop-color="#005BDA" offset="100%"></stop>
        </linearGradient>
        <path d="M108.404671,22.3967789 C102.501761,32.6042642 98.5413572,40.0095677 96.5234588,44.6126895 C93.496611,51.5173723 88.097875,70.8813699 97.2582473,79.501971 C106.418619,88.1225721 123.203331,80.7157543 129.934077,76.7665633 C134.421241,74.1337693 139.023628,67.901799 143.741239,58.0706524 C144.592354,57.532769 146.286597,57.8833283 148.823968,59.1223304 C152.630024,60.9808335 163.242259,75.5634109 163.242259,82.867743 C163.242259,90.1720751 155.827847,102.888188 148.823968,104.846881 C141.820089,106.805574 136.443991,108.728458 132.139468,106.78767 C127.834945,104.846881 115.578992,117.481408 106.418619,120.273077 C97.2582473,123.064745 64.480596,131.968783 59.3422476,135.606464 C55.916682,138.031585 49.6255553,145.565045 40.4688675,158.206846 C13.4896225,114.262102 0,92.2897294 0,92.2897294 C0,92.2897294 20.6643321,86.233515 23.1262142,82.867743 C25.5880963,79.501971 29.9652408,59.7928132 37.5848631,54.7530145 C42.6646113,51.3931488 44.730358,49.5631446 43.7821033,49.2630021 C36.2980463,30.9003187 33.0164292,19.4475803 33.9372521,14.9047869 C35.3184865,8.09059676 56.2722692,-5.59161701 75.1387434,2.46757004 C87.7163928,7.8403614 97.3953696,13.2454142 104.175674,18.6827285 L108.404671,22.3967789 Z" id="path-44"></path>
        <linearGradient x1="69.8663841%" y1="26.2548148%" x2="10.0517105%" y2="72.8158711%" id="linearGradient-46">
            <stop stop-color="#00D3FB" stop-opacity="0.482926375" offset="0%"></stop>
            <stop stop-color="#06E2FC" offset="100%"></stop>
        </linearGradient>
        <linearGradient x1="50%" y1="37.3465861%" x2="72.1996591%" y2="57.2407261%" id="linearGradient-47">
            <stop stop-color="#6CDDFF" offset="0%"></stop>
            <stop stop-color="#EFF7FD" offset="100%"></stop>
        </linearGradient>
        <path d="M105.678037,66.1876738 C59.6828536,101.258143 31.63144,119.649955 21.5237964,121.363112 C11.4161528,123.076269 13.4963249,127.224315 27.7643127,133.80725 L112.733177,75.1272599 L105.678037,66.1876738 Z" id="path-48"></path>
        <filter x="-4.1%" y="-5.9%" width="108.2%" height="111.8%" filterUnits="objectBoundingBox" id="filter-49">
            <feGaussianBlur stdDeviation="3" in="SourceAlpha" result="shadowBlurInner1"></feGaussianBlur>
            <feOffset dx="0" dy="2" in="shadowBlurInner1" result="shadowOffsetInner1"></feOffset>
            <feComposite in="shadowOffsetInner1" in2="SourceAlpha" operator="arithmetic" k2="-1" k3="1" result="shadowInnerInner1"></feComposite>
            <feColorMatrix values="0 0 0 0 0.0549019608   0 0 0 0 0.780392157   0 0 0 0 0.976470588  0 0 0 1 0" type="matrix" in="shadowInnerInner1"></feColorMatrix>
        </filter>
        <filter x="-55.1%" y="-80.7%" width="210.2%" height="261.5%" filterUnits="objectBoundingBox" id="filter-50">
            <feGaussianBlur stdDeviation="7" in="SourceGraphic"></feGaussianBlur>
        </filter>
        <filter x="-78.7%" y="-115.3%" width="257.4%" height="330.7%" filterUnits="objectBoundingBox" id="filter-51">
            <feGaussianBlur stdDeviation="10" in="SourceGraphic"></feGaussianBlur>
        </filter>
        <linearGradient x1="64.1828867%" y1="9.94571161%" x2="2.0550598%" y2="85.9268819%" id="linearGradient-52">
            <stop stop-color="#FDE5D3" offset="0%"></stop>
            <stop stop-color="#FCCCAB" offset="100%"></stop>
            <stop stop-color="#FCCCAB" offset="100%"></stop>
        </linearGradient>
        <linearGradient x1="39.5550273%" y1="100%" x2="65.8268149%" y2="75.4598904%" id="linearGradient-53">
            <stop stop-color="#1A85FF" offset="0%"></stop>
            <stop stop-color="#116ADB" offset="100%"></stop>
        </linearGradient>
        <path d="M3.28280474,23.2895881 L19.682259,58.5802335 C21.5442012,62.5870217 26.3017472,64.325763 30.3085354,62.4638209 C30.359751,62.4400211 30.4107131,62.4156798 30.4614132,62.3908008 L51.2351263,52.1969715 C55.2015867,50.2505973 56.8391901,45.4572978 54.8928159,41.4908374 C54.8497349,41.4030439 54.8050478,41.3160478 54.7587769,41.2298929 L36.2843685,6.83107012 C34.2399087,3.02434422 29.5420373,1.52901392 25.6733113,3.45357557 L6.97455232,12.7555823 C3.09295445,14.6865473 1.45580176,19.3579869 3.28280474,23.2895881 Z" id="path-54"></path>
        <path d="M156.507299,99.3124804 C161.401545,113.211481 167.182301,123.64261 173.849566,130.605867 C180.556345,137.610392 188.045253,145.177251 196.316289,153.306442 C197.462464,154.432966 197.517323,156.262612 196.440697,157.45578 L190.45488,164.089548 L190.45488,164.089548 C175.966018,158.767077 165.03851,152.200814 157.672357,144.39076 C150.306203,136.580706 145.515532,121.677269 143.300343,99.6804484 L151.423168,96.8620516 C153.503467,96.1402394 155.77594,97.2355182 156.507299,99.3124804 Z" id="path-56"></path>
        <filter x="-10.0%" y="-6.4%" width="117.9%" height="114.4%" filterUnits="objectBoundingBox" id="filter-57">
            <feGaussianBlur stdDeviation="5" in="SourceAlpha" result="shadowBlurInner1"></feGaussianBlur>
            <feOffset dx="0" dy="1" in="shadowBlurInner1" result="shadowOffsetInner1"></feOffset>
            <feComposite in="shadowOffsetInner1" in2="SourceAlpha" operator="arithmetic" k2="-1" k3="1" result="shadowInnerInner1"></feComposite>
            <feColorMatrix values="0 0 0 0 0.921024488   0 0 0 0 0.457993501   0 0 0 0 0.392624421  0 0 0 1 0" type="matrix" in="shadowInnerInner1"></feColorMatrix>
        </filter>
        <circle id="path-58" cx="159.874574" cy="119.195578" r="1.5"></circle>
        <filter x="-33.3%" y="-33.3%" width="166.7%" height="166.7%" filterUnits="objectBoundingBox" id="filter-59">
            <feGaussianBlur stdDeviation="1" in="SourceAlpha" result="shadowBlurInner1"></feGaussianBlur>
            <feOffset dx="0" dy="0" in="shadowBlurInner1" result="shadowOffsetInner1"></feOffset>
            <feComposite in="shadowOffsetInner1" in2="SourceAlpha" operator="arithmetic" k2="-1" k3="1" result="shadowInnerInner1"></feComposite>
            <feColorMatrix values="0 0 0 0 1   0 0 0 0 0.869115759   0 0 0 0 0.793422494  0 0 0 0.5 0" type="matrix" in="shadowInnerInner1"></feColorMatrix>
        </filter>
        <circle id="path-60" cx="163.398069" cy="128.392587" r="1.5"></circle>
        <filter x="-33.3%" y="-33.3%" width="166.7%" height="166.7%" filterUnits="objectBoundingBox" id="filter-61">
            <feGaussianBlur stdDeviation="1" in="SourceAlpha" result="shadowBlurInner1"></feGaussianBlur>
            <feOffset dx="0" dy="0" in="shadowBlurInner1" result="shadowOffsetInner1"></feOffset>
            <feComposite in="shadowOffsetInner1" in2="SourceAlpha" operator="arithmetic" k2="-1" k3="1" result="shadowInnerInner1"></feComposite>
            <feColorMatrix values="0 0 0 0 1   0 0 0 0 0.869115759   0 0 0 0 0.793422494  0 0 0 0.5 0" type="matrix" in="shadowInnerInner1"></feColorMatrix>
        </filter>
        <circle id="path-62" cx="167.920193" cy="137.641933" r="1.5"></circle>
        <filter x="-33.3%" y="-33.3%" width="166.7%" height="166.7%" filterUnits="objectBoundingBox" id="filter-63">
            <feGaussianBlur stdDeviation="1" in="SourceAlpha" result="shadowBlurInner1"></feGaussianBlur>
            <feOffset dx="0" dy="0" in="shadowBlurInner1" result="shadowOffsetInner1"></feOffset>
            <feComposite in="shadowOffsetInner1" in2="SourceAlpha" operator="arithmetic" k2="-1" k3="1" result="shadowInnerInner1"></feComposite>
            <feColorMatrix values="0 0 0 0 1   0 0 0 0 0.869115759   0 0 0 0 0.793422494  0 0 0 0.5 0" type="matrix" in="shadowInnerInner1"></feColorMatrix>
        </filter>
        <circle id="path-64" cx="173.597955" cy="143.947726" r="1.5"></circle>
        <filter x="-33.3%" y="-33.3%" width="166.7%" height="166.7%" filterUnits="objectBoundingBox" id="filter-65">
            <feGaussianBlur stdDeviation="1" in="SourceAlpha" result="shadowBlurInner1"></feGaussianBlur>
            <feOffset dx="0" dy="0" in="shadowBlurInner1" result="shadowOffsetInner1"></feOffset>
            <feComposite in="shadowOffsetInner1" in2="SourceAlpha" operator="arithmetic" k2="-1" k3="1" result="shadowInnerInner1"></feComposite>
            <feColorMatrix values="0 0 0 0 1   0 0 0 0 0.869115759   0 0 0 0 0.793422494  0 0 0 0.5 0" type="matrix" in="shadowInnerInner1"></feColorMatrix>
        </filter>
        <circle id="path-66" cx="181.325311" cy="149.359561" r="1.5"></circle>
        <filter x="-33.3%" y="-33.3%" width="166.7%" height="166.7%" filterUnits="objectBoundingBox" id="filter-67">
            <feGaussianBlur stdDeviation="1" in="SourceAlpha" result="shadowBlurInner1"></feGaussianBlur>
            <feOffset dx="0" dy="0" in="shadowBlurInner1" result="shadowOffsetInner1"></feOffset>
            <feComposite in="shadowOffsetInner1" in2="SourceAlpha" operator="arithmetic" k2="-1" k3="1" result="shadowInnerInner1"></feComposite>
            <feColorMatrix values="0 0 0 0 1   0 0 0 0 0.869115759   0 0 0 0 0.793422494  0 0 0 0.5 0" type="matrix" in="shadowInnerInner1"></feColorMatrix>
        </filter>
        <linearGradient x1="54.9628595%" y1="29.9596047%" x2="61.9370263%" y2="61.2396165%" id="linearGradient-68">
            <stop stop-color="#0162E3" offset="0%"></stop>
            <stop stop-color="#019EF7" offset="100%"></stop>
        </linearGradient>
        <path d="M173.291963,16.8122168 C175.500787,17.1091865 176.605199,17.9283031 176.605199,19.2695668 C176.605199,21.2814623 130.570286,56.9982568 115.933857,66.4882396 C101.297428,75.9782223 100.043707,81.0353125 90.0466781,81.0353125 C80.0496496,81.0353125 67.7707666,86.1260613 53.8541866,95.8376268 C39.9376065,105.549192 21.1559369,136.892442 19.4256187,142.977266 C17.6953005,149.062091 17.4863057,151.369287 13.838099,150.215689 C10.1898923,149.062091 0,143.687322 0,140.749296 C0,137.811269 4.80760765,119.501201 6.78234602,113.671219 C8.75708438,107.841238 20.5407828,89.9466974 26.0003568,84.7743359 C31.4599308,79.6019745 58.7375624,52.7739976 69.4114601,49.9630924 C80.0853579,47.1521873 93.0234215,38.6708045 101.629555,33.0014315 C107.366977,29.2218496 119.172534,19.6723112 137.046227,4.35281647 C139.458232,1.45093882 141.634368,0 143.574635,0 C145.514902,0 155.420678,5.60407226 173.291963,16.8122168 Z" id="path-69"></path>
        <filter x="-54.7%" y="-73.9%" width="209.4%" height="247.8%" filterUnits="objectBoundingBox" id="filter-71">
            <feGaussianBlur stdDeviation="11" in="SourceGraphic"></feGaussianBlur>
        </filter>
        <filter x="-53.5%" y="-27.7%" width="207.0%" height="155.4%" filterUnits="objectBoundingBox" id="filter-72">
            <feGaussianBlur stdDeviation="6" in="SourceGraphic"></feGaussianBlur>
        </filter>
        <linearGradient x1="89.4464282%" y1="20.0405228%" x2="22.3422071%" y2="93.3691356%" id="linearGradient-73">
            <stop stop-color="#0162E3" offset="0%"></stop>
            <stop stop-color="#019EF7" offset="100%"></stop>
        </linearGradient>
        <path d="M151.604114,5.59468057 C153.144789,1.86489352 152.605422,0 149.986012,0 C146.056897,0 133.151779,1.94065564 118.802059,23.1344271 C104.452339,44.3281986 85.1548203,67.0514369 77.0539792,72.1632774 C68.9531382,77.2751178 61.2570922,76.6645406 50.3006609,88.1655414 C39.3442296,99.6665421 36.0099104,112.846715 27.0027216,117.16119 C17.9955329,121.475666 13.0352664,128.05465 15.5153996,132.624204 C17.9955329,137.193759 0.194774709,169.912362 0.00207380653,173.589315 C-0.190627096,177.266267 13.0999874,187.020425 17.4025875,184.778777 C21.7051877,182.53713 25.0476498,168.939752 30.4328392,160.955743 C35.8180286,152.971733 44.060613,133.906374 48.213598,128.130882 C52.366583,122.35539 59.4008723,112.927536 67.8159523,110.931815 C76.2310323,108.936093 87.788648,105.639467 96.6079818,98.9522113 C105.427316,92.2649555 145.461757,62.9603898 151.604114,57.0362118 C157.74647,51.1120337 164.417322,48.1187989 164.417322,43.7054831 C164.417322,39.2921674 160.096927,19.0721504 157.684173,15.4175682 C156.075671,12.98118 154.048985,9.70688416 151.604114,5.59468057 Z" id="path-74"></path>
        <filter x="-3.6%" y="-3.2%" width="107.3%" height="106.5%" filterUnits="objectBoundingBox" id="filter-76">
            <feGaussianBlur stdDeviation="5" in="SourceAlpha" result="shadowBlurInner1"></feGaussianBlur>
            <feOffset dx="0" dy="2" in="shadowBlurInner1" result="shadowOffsetInner1"></feOffset>
            <feComposite in="shadowOffsetInner1" in2="SourceAlpha" operator="arithmetic" k2="-1" k3="1" result="shadowInnerInner1"></feComposite>
            <feColorMatrix values="0 0 0 0 0.0431372549   0 0 0 0 0.345098039   0 0 0 0 0.764705882  0 0 0 0.793886411 0" type="matrix" in="shadowInnerInner1"></feColorMatrix>
        </filter>
        <filter x="-54.7%" y="-73.9%" width="209.4%" height="247.8%" filterUnits="objectBoundingBox" id="filter-77">
            <feGaussianBlur stdDeviation="11" in="SourceGraphic"></feGaussianBlur>
        </filter>
        <filter x="-53.5%" y="-27.7%" width="207.0%" height="155.4%" filterUnits="objectBoundingBox" id="filter-78">
            <feGaussianBlur stdDeviation="6" in="SourceGraphic"></feGaussianBlur>
        </filter>
        <filter x="-9.2%" y="-16.5%" width="118.4%" height="133.1%" filterUnits="objectBoundingBox" id="filter-79">
            <feGaussianBlur stdDeviation="0" in="SourceGraphic"></feGaussianBlur>
        </filter>
        <linearGradient x1="87.5160588%" y1="27.6237781%" x2="21.3844956%" y2="94.7234507%" id="linearGradient-80">
            <stop stop-color="#4D0701" offset="0%"></stop>
            <stop stop-color="#440601" offset="100%"></stop>
        </linearGradient>
        <path d="M23.8157442,7.77183606 C20.0210406,8.94814865 17.0210698,10.6570625 14.8158317,12.8985775 C13.4967606,14.2393477 11.7761265,16.518839 9.65392946,19.7370511 L9.65394499,19.7370614 C8.61339623,21.3150047 6.49068898,21.7506491 4.91274565,20.7101003 C4.64270832,20.5320286 4.39927929,20.3165737 4.18972457,20.0701665 C4.18972457,20.0701665 4.18972457,20.0701665 4.18972457,20.0701665 C1.44408459,16.8416761 -0.637901726,12.0288883 0.179774793,10.3413515 C1.56533928,7.4817964 4.55205198,5.74653603 6.82866157,4.2859914 C13.3555881,0.0986825458 19.017949,-1.02045249 23.8157442,0.92858628" id="path-81"></path>
        <filter x="-114.4%" y="-247.9%" width="328.9%" height="595.9%" filterUnits="objectBoundingBox" id="filter-83">
            <feGaussianBlur stdDeviation="3" in="SourceGraphic"></feGaussianBlur>
        </filter>
        <linearGradient x1="74.2663628%" y1="9.31547832%" x2="39.2102737%" y2="93.1535283%" id="linearGradient-84">
            <stop stop-color="#FFFBF8" offset="0%"></stop>
            <stop stop-color="#FFE4D0" offset="100%"></stop>
        </linearGradient>
        <path d="M18.0907338,54.2438436 C21.5686711,56.4178554 27.7207793,56.1451637 30.9850394,54.2438436 C34.2492994,52.3425235 45.3447867,41.8844306 48.4296572,33.3114499 C51.5145277,24.7384692 53.9152682,15.8327988 46.2473391,7.60728135 C38.5794099,-0.618236086 22.3841977,-2.82861025 12.6867635,4.23976945 C2.98932929,11.3081492 -1.50454301,22.2168543 0.447943893,29.3504978 C2.4004308,36.4841412 14.6127964,52.0698318 18.0907338,54.2438436 Z" id="path-85"></path>
        <filter x="-17.5%" y="-16.1%" width="135.0%" height="132.3%" filterUnits="objectBoundingBox" id="filter-87">
            <feGaussianBlur stdDeviation="8" in="SourceAlpha" result="shadowBlurInner1"></feGaussianBlur>
            <feOffset dx="0" dy="2" in="shadowBlurInner1" result="shadowOffsetInner1"></feOffset>
            <feComposite in="shadowOffsetInner1" in2="SourceAlpha" operator="arithmetic" k2="-1" k3="1" result="shadowInnerInner1"></feComposite>
            <feColorMatrix values="0 0 0 0 1   0 0 0 0 0.677435188   0 0 0 0 0.46397318  0 0 0 0.803968736 0" type="matrix" in="shadowInnerInner1"></feColorMatrix>
        </filter>
        <filter x="-49.6%" y="-95.1%" width="199.2%" height="290.2%" filterUnits="objectBoundingBox" id="filter-88">
            <feGaussianBlur stdDeviation="6" in="SourceGraphic"></feGaussianBlur>
        </filter>
        <linearGradient x1="55.0400716%" y1="50%" x2="37.1041734%" y2="56.7013997%" id="linearGradient-89">
            <stop stop-color="#FACBA9" offset="0%"></stop>
            <stop stop-color="#FD9D58" offset="100%"></stop>
        </linearGradient>
        <path d="M23.8157442,7.77183606 C20.0210406,8.94814865 17.0210698,10.6570625 14.8158317,12.8985775 C13.4967606,14.2393477 11.7761265,16.518839 9.65392946,19.7370511 L9.65394499,19.7370614 C8.61339623,21.3150047 6.49068898,21.7506491 4.91274565,20.7101003 C4.64270832,20.5320286 4.39927929,20.3165737 4.18972457,20.0701665 C4.18972457,20.0701665 4.18972457,20.0701665 4.18972457,20.0701665 C1.44408459,16.8416761 -0.637901726,12.0288883 0.179774793,10.3413515 C1.56533928,7.4817964 4.55205198,5.74653603 6.82866157,4.2859914 C13.3555881,0.0986825458 19.017949,-1.02045249 23.8157442,0.92858628" id="path-90"></path>
        <filter x="-115.0%" y="-247.9%" width="330.0%" height="595.9%" filterUnits="objectBoundingBox" id="filter-92">
            <feGaussianBlur stdDeviation="6" in="SourceGraphic"></feGaussianBlur>
        </filter>
        <linearGradient x1="21.3229289%" y1="36.0286845%" x2="100%" y2="53.4368627%" id="linearGradient-93">
            <stop stop-color="#7E1304" offset="0%"></stop>
            <stop stop-color="#3D0501" offset="100%"></stop>
        </linearGradient>
        <path d="M2.18717507,13.1460289 C3.75916616,16.1907189 14.7098168,21.0150544 17.5096509,21.7246412 C20.3094849,22.4342279 28.3748223,22.9456643 32.7069028,19.4053499 C35.5950057,17.0451403 37.0390571,14.3939491 37.0390571,11.4517762 C34.9151583,12.9445469 32.2022634,12.9445924 28.9003723,11.4519124 C23.9475356,9.21289256 20.9903661,4.43273557 15.295391,3.6320698 C11.4987409,3.09829263 8.25681582,3.99715599 5.56961563,6.3286599 C4.71272646,5.41368979 4.49334986,4.51488437 4.91148583,3.63224363 C2.18730887,5.15328803 0.615183975,10.1013389 2.18717507,13.1460289 Z" id="path-94"></path>
        <filter x="-958.4%" y="-1458.5%" width="2016.8%" height="3017.0%" filterUnits="objectBoundingBox" id="filter-96">
            <feGaussianBlur stdDeviation="50" in="SourceGraphic"></feGaussianBlur>
        </filter>
        <filter x="-21.8%" y="-61.1%" width="143.6%" height="222.2%" filterUnits="objectBoundingBox" id="filter-97">
            <feGaussianBlur stdDeviation="2" in="SourceGraphic"></feGaussianBlur>
        </filter>
        <linearGradient x1="50%" y1="0%" x2="50%" y2="100%" id="linearGradient-98">
            <stop stop-color="#893C37" offset="0%"></stop>
            <stop stop-color="#511008" offset="100%"></stop>
        </linearGradient>
        <linearGradient x1="50%" y1="0%" x2="50%" y2="100%" id="linearGradient-99">
            <stop stop-color="#893C37" offset="0%"></stop>
            <stop stop-color="#511008" offset="100%"></stop>
        </linearGradient>
        <linearGradient x1="50%" y1="0%" x2="50%" y2="100%" id="linearGradient-100">
            <stop stop-color="#FDE1CE" offset="0%"></stop>
            <stop stop-color="#FFBA91" offset="100%"></stop>
        </linearGradient>
        <path d="M34.1624991,35.7037935 C33.2936565,41.5131803 32.5444187,44.4178737 31.9147858,44.4178737 C30.9703363,44.4178737 28.965874,44.3494447 28.965874,43.5912008 C28.965874,42.8329569 30.3821422,40.6189757 31.3668919,39.0393352 C32.0233916,37.9862415 32.9552607,36.8743943 34.1624991,35.7037935 Z" id="path-101"></path>
        <filter x="-38.5%" y="-23.0%" width="177.0%" height="145.9%" filterUnits="objectBoundingBox" id="filter-102">
            <feGaussianBlur stdDeviation="1" in="SourceAlpha" result="shadowBlurInner1"></feGaussianBlur>
            <feOffset dx="0" dy="-2" in="shadowBlurInner1" result="shadowOffsetInner1"></feOffset>
            <feComposite in="shadowOffsetInner1" in2="SourceAlpha" operator="arithmetic" k2="-1" k3="1" result="shadowInnerInner1"></feComposite>
            <feColorMatrix values="0 0 0 0 1   0 0 0 0 0.742983883   0 0 0 0 0.562120689  0 0 0 1 0" type="matrix" in="shadowInnerInner1"></feColorMatrix>
        </filter>
        <linearGradient x1="26.4823458%" y1="43.3093375%" x2="66.1274975%" y2="94.1159821%" id="linearGradient-103">
            <stop stop-color="#1679EF" offset="0%"></stop>
            <stop stop-color="#1372E6" offset="100%"></stop>
        </linearGradient>
        <filter x="-18.0%" y="-72.9%" width="136.1%" height="251.4%" filterUnits="objectBoundingBox" id="filter-104">
            <feOffset dx="0" dy="2" in="SourceAlpha" result="shadowOffsetOuter1"></feOffset>
            <feGaussianBlur stdDeviation="10" in="shadowOffsetOuter1" result="shadowBlurOuter1"></feGaussianBlur>
            <feColorMatrix values="0 0 0 0 0.0697908727   0 0 0 0 0.628651692   0 0 0 0 1  0 0 0 0.296466961 0" type="matrix" in="shadowBlurOuter1" result="shadowMatrixOuter1"></feColorMatrix>
            <feMerge>
                <feMergeNode in="shadowMatrixOuter1"></feMergeNode>
                <feMergeNode in="SourceGraphic"></feMergeNode>
            </feMerge>
        </filter>
        <path d="M243.093258,25 L238.616882,52.3433836 C239.59514,53.4734785 240.704575,54.4684534 241.945187,55.3283082 C243.185799,56.188163 244.638386,56.9374651 246.30295,57.5762144 C247.967514,58.2149637 249.8703,58.7308766 252.011308,59.1239531 C254.152316,59.5170296 256.612345,59.811837 259.391396,60.0083752 C263.850788,60.3031826 268.487764,60.4014517 273.302323,60.3031826 C278.116882,60.2049135 283.016108,59.8855388 288,59.3450586 L285.109789,67.6733668 C279.907681,68.0664433 274.90538,68.2752652 270.102887,68.2998325 C265.300393,68.3243998 260.883541,68.213847 256.852329,67.9681742 C253.637054,67.771636 250.817526,67.4522613 248.393746,67.0100503 C245.969966,66.5678392 243.844994,66.0027917 242.018831,65.3149079 C240.192667,64.627024 238.600704,63.840871 237.242941,62.9564489 C235.885178,62.0720268 234.644463,61.0647683 233.520796,59.9346734 L224.766303,69 L220,63.0301508 L230.716575,52.638191 L233.950183,32.8860972 L226.170843,32.8860972 L227.461873,25 L243.093258,25 Z M276.803339,1 L275.830656,6.88387097 L294,6.88387097 L292.808464,14.0916129 L274.63912,14.0916129 L273.946083,18.283871 L290.50363,18.283871 L287.257302,37.9212903 L272.604605,37.9212903 C275.24334,39.6864516 277.863888,41.6354839 280.466251,43.7683871 C283.068614,45.9012903 285.469477,47.9974194 287.668838,50.0567742 L281.971442,57.043871 C280.097765,55.0825806 278.063272,53.06 275.867963,50.976129 C273.672654,48.8922581 271.544633,46.9922581 269.483901,45.276129 L267.380475,58 L259.174965,58 L262.238915,39.4658065 C261.442268,41.0348387 260.478725,42.5793548 259.348287,44.0993548 C258.217848,45.6193548 257.005937,47.0412903 255.712552,48.3651613 C253.890424,50.2283871 252.127114,51.8096774 250.422623,53.1090323 C248.718131,54.4083871 246.897561,55.5974194 244.960912,56.676129 L241,50.0567742 C242.904226,49.1741935 244.704532,48.1077419 246.400918,46.8574194 C248.097304,45.6070968 249.868823,44.123871 251.715477,42.4077419 C252.577803,41.6232258 253.334338,40.8877419 253.985083,40.2012903 C254.635829,39.5148387 255.24989,38.7548387 255.827268,37.9212903 L246.156488,37.9212903 L249.402817,18.283871 L265.740573,18.283871 L266.43361,14.0916129 L248.484057,14.0916129 L249.675593,6.88387097 L267.625146,6.88387097 L268.597829,1 L276.803339,1 Z M282,26 L273.066036,26 L272,32 L280.933964,32 L282,26 Z M265,26 L256.090184,26 L255,32 L263.909816,32 L265,26 Z M239.562171,3 C240.097409,3.80952381 240.652715,4.78571429 241.22809,5.92857143 C241.803466,7.07142857 242.42285,8.38095238 243.086244,9.85714286 C244.46091,12.8095238 245.432162,15.1666667 246,16.9285714 L238.21045,21 C237.93845,20.047619 237.564629,18.9880952 237.088987,17.8214286 C236.613344,16.6547619 236.043826,15.3333333 235.380433,13.8571429 C234.0457,10.952381 232.918889,8.66666667 232,7 L239.562171,3 Z" id="path-105"></path>
        <filter x="-21.6%" y="-20.6%" width="143.2%" height="147.1%" filterUnits="objectBoundingBox" id="filter-106">
            <feOffset dx="0" dy="2" in="SourceAlpha" result="shadowOffsetOuter1"></feOffset>
            <feGaussianBlur stdDeviation="5" in="shadowOffsetOuter1" result="shadowBlurOuter1"></feGaussianBlur>
            <feColorMatrix values="0 0 0 0 0.0705882353   0 0 0 0 0.62745098   0 0 0 0 1  0 0 0 0.20011507 0" type="matrix" in="shadowBlurOuter1"></feColorMatrix>
        </filter>
        <path d="M102.225644,49 L100.783248,57.6861314 C100.516587,59.2919708 100.600503,60.3260341 101.034997,60.7883212 C101.469491,61.2506083 102.429334,61.5547445 103.914527,61.7007299 C104.295978,61.7493917 104.922906,61.7858881 105.795312,61.810219 C106.570783,61.8318464 107.50174,61.8438617 108.588182,61.8462648 L109.002886,61.8467153 C110.268864,61.8467153 111.342096,61.8345499 112.222582,61.810219 C113.103068,61.7858881 113.766463,61.7493917 114.212767,61.7007299 C115.097293,61.6520681 115.819481,61.5547445 116.379328,61.4087591 C116.939176,61.2627737 117.399569,61.0559611 117.760507,60.7883212 C118.121445,60.5206813 118.409294,60.1800487 118.624054,59.7664234 C118.838814,59.3527981 119.047409,58.8296837 119.249841,58.1970803 C119.484595,57.3698297 119.743642,56.4695864 120.026984,55.4963504 C120.310326,54.5231144 120.492296,53.6472019 120.572895,52.8686131 L128,55.2043796 C127.69252,56.4695864 127.376856,57.6374696 127.053007,58.7080292 C126.729159,59.7785888 126.437633,60.6545012 126.178429,61.3357664 C125.611538,62.9902676 125.01191,64.2554745 124.379544,65.1313869 C123.747178,66.0072993 123.025406,66.6885645 122.214228,67.1751825 C120.697335,68.0997567 118.287523,68.6836983 114.984794,68.9270073 C114.343724,68.9756691 113.390201,69 112.124223,69 L102.519836,69 C101.278205,69 100.344935,68.9756691 99.7200266,68.9270073 C96.2952569,68.7323601 94.058972,67.9781022 93.0111721,66.6642336 C91.9552915,65.3990268 91.7263353,62.9659367 92.3243034,59.3649635 L94.045482,49 L102.225644,49 Z M84.765555,49 L91,51.8897338 C90.3347513,53.0456274 89.6160052,54.2376426 88.8437619,55.4657795 C88.0715185,56.6939163 87.0596256,58.2230672 85.808083,60.0532319 C84.5723314,61.7870722 83.455367,63.3041825 82.4571897,64.6045627 C81.4590124,65.904943 80.547939,67.0367554 79.7239694,68 L74,63.7376426 C74.7051317,62.9188847 75.5211551,61.9315589 76.4480702,60.7756654 C77.3749853,59.6197719 78.4167398,58.2712294 79.5733338,56.730038 C80.7299277,55.1888466 81.7359498,53.7680608 82.5913999,52.4676806 C83.4468501,51.1673004 84.1715684,50.0114068 84.765555,49 Z M134.068546,47 C134.708697,47.8727273 135.392024,48.9272727 136.118527,50.1636364 C136.84503,51.4 137.635224,52.8424242 138.489108,54.4909091 C139.342992,56.1393939 140.04919,57.6424242 140.607701,59 C141.166211,60.3575758 141.630311,61.5454545 142,62.5636364 L134.316633,67 C133.963273,65.8848485 133.531934,64.6484848 133.022617,63.2909091 C132.513301,61.9333333 131.852215,60.4545455 131.039361,58.8545455 C130.283864,57.2060606 129.555163,55.7636364 128.853257,54.5272727 C128.151352,53.2909091 127.533599,52.2121212 127,51.2909091 L134.068546,47 Z M107.035073,0 L114.520232,2.57352941 C113.422473,3.89705882 112.33687,5.14705882 111.263422,6.32352941 L137.632117,6.32352941 L136.611039,12.5 C135.496864,13.627451 134.382637,14.6813725 133.268359,15.6617647 C132.15408,16.6421569 131.027593,17.622549 129.888899,18.6029412 L143,18.6029412 L138.380836,46.5441176 L113.550315,46.5441176 L115.517996,49.7058824 C116.210566,50.8333333 116.811499,51.8504902 117.320796,52.7573529 C117.830093,53.6642157 118.247754,54.4607843 118.573779,55.1470588 L111.692054,60 C111.382237,59.2156863 110.976731,58.3455882 110.475538,57.3897059 C109.974345,56.4338235 109.405931,55.3676471 108.770296,54.1911765 C108.134662,53.0147059 107.547962,51.9852941 107.010198,51.1029412 C106.472433,50.2205882 105.987656,49.4607843 105.555865,48.8235294 L108.935793,46.5441176 L85.3504603,46.5441176 L86.5052514,39.5588235 L131.918004,39.5588235 L132.598723,35.4411765 L90.1158253,35.4411765 L91.1490595,29.1911765 L133.631957,29.1911765 L134.276209,25.2941176 L90.9143549,25.2941176 L91.1696245,23.75 C90.4618884,24.1911765 89.76636,24.6323529 89.0830394,25.0735294 C88.3997188,25.5147059 87.7082423,25.9313725 87.00861,26.3235294 L83,20 C85.3266357,18.627451 87.6226741,17.1446078 89.8881151,15.5514706 C92.1535561,13.9583333 94.331465,12.3039216 96.4218418,10.5882353 C98.5122186,8.87254902 100.449973,7.12009804 102.235104,5.33088235 C104.020236,3.54166667 105.620226,1.76470588 107.035073,0 Z M125,13 L104.373552,13 C102.358414,14.7333333 100.233897,16.4 98,18 L118.772218,18 C119.832512,17.2444444 120.888723,16.4444444 121.94085,15.6 C122.992977,14.7555556 124.012694,13.8888889 125,13 Z" id="path-107"></path>
        <filter x="-23.2%" y="-20.3%" width="146.4%" height="146.4%" filterUnits="objectBoundingBox" id="filter-108">
            <feOffset dx="0" dy="2" in="SourceAlpha" result="shadowOffsetOuter1"></feOffset>
            <feGaussianBlur stdDeviation="5" in="shadowOffsetOuter1" result="shadowBlurOuter1"></feGaussianBlur>
            <feColorMatrix values="0 0 0 0 0.0705882353   0 0 0 0 0.62745098   0 0 0 0 1  0 0 0 0.20011507 0" type="matrix" in="shadowBlurOuter1"></feColorMatrix>
        </filter>
        <linearGradient x1="32.8115546%" y1="11.545345%" x2="90.8875776%" y2="68.3097802%" id="linearGradient-109">
            <stop stop-color="#FFFFFF" offset="0%"></stop>
            <stop stop-color="#CFF1FF" offset="100%"></stop>
        </linearGradient>
        <path d="M30.3272734,2 L28.0152228,13.5512821 L44,13.5512821 C43.4050614,17.0868946 42.7243401,20.8404558 41.9578362,24.8119658 C41.1913322,28.7834758 40.4329781,32.7065527 39.6827739,36.5811966 C38.9325696,40.4558405 38.2006502,44.1488604 37.4870155,47.6602564 C36.7733809,51.1716524 36.1269302,54.2108262 35.5476633,56.7777778 C35.1316027,58.6666667 34.6253181,60.2891738 34.0288096,61.6452991 C33.4323012,63.0014245 32.6637564,64.1396011 31.7231753,65.0598291 C30.7825942,65.980057 29.6413477,66.7065527 28.2994358,67.2393162 C26.9575238,67.7720798 25.3617632,68.1353276 23.5121538,68.3290598 C22.4154698,68.4259259 21.2348835,68.5106838 19.9703951,68.5833333 C18.7059067,68.6559829 17.5825787,68.6923077 16.6004111,68.6923077 L16.679705,59.465812 C17.5964645,59.5626781 18.4681906,59.6353276 19.2948832,59.6837607 C20.1215758,59.7321937 20.9564182,59.7321937 21.7994105,59.6837607 C22.8306864,59.6837607 23.6736787,59.6353276 24.3283873,59.5384615 C24.9830959,59.4415954 25.5210413,59.1631054 25.9422235,58.7029915 C26.3634056,58.2428775 26.7230454,57.5648148 27.0211426,56.6688034 C27.3192398,55.772792 27.6518693,54.525641 28.0190309,52.9273504 C28.4597504,51.1837607 28.9329646,49.1011396 29.4386736,46.6794872 C29.9443825,44.2578348 30.4683763,41.6545584 31.0106549,38.8696581 C31.5529334,36.0847578 32.1115117,33.2029915 32.6863897,30.224359 C33.2612676,27.2457265 33.789127,24.3276353 34.2699678,21.4700855 L26.4617356,21.4700855 C25.279171,27.3304843 24.1002103,32.5128205 22.9248537,37.017094 C21.749497,41.5213675 20.5491151,45.3717949 19.3237081,48.5683761 C18.0657018,51.9586895 16.4803411,55.3974359 14.5676261,58.8846154 C12.6549111,62.3717949 10.2389923,66.0769231 7.31986951,70 L0,66.2222222 C2.70659888,62.6866097 5.05313941,59.2478632 7.03962162,55.9059829 C9.02610382,52.5641026 10.5952695,49.3675214 11.7471185,46.3162393 C12.8254097,43.4102564 13.9196343,39.8988604 15.0297922,35.7820513 C16.1399501,31.6652422 17.2741913,26.8945869 18.4325157,21.4700855 L10.034983,21.4700855 L11.3674824,13.5512821 L19.9860029,13.5512821 L22.0770658,2 L30.3272734,2 Z M75,9 L65.5792803,65 L39,65 L48.4207197,9 L75,9 Z M65,17 L54.7677887,17 L48,57 L58.2322113,57 L65,17 Z" id="path-110"></path>
        <filter x="-21.3%" y="-20.6%" width="142.7%" height="147.1%" filterUnits="objectBoundingBox" id="filter-111">
            <feOffset dx="0" dy="2" in="SourceAlpha" result="shadowOffsetOuter1"></feOffset>
            <feGaussianBlur stdDeviation="5" in="shadowOffsetOuter1" result="shadowBlurOuter1"></feGaussianBlur>
            <feColorMatrix values="0 0 0 0 0.0705882353   0 0 0 0 0.62745098   0 0 0 0 1  0 0 0 0.20011507 0" type="matrix" in="shadowBlurOuter1"></feColorMatrix>
        </filter>
        <path d="M177.327273,2 L175.015223,13.5512821 L191,13.5512821 C190.405061,17.0868946 189.72434,20.8404558 188.957836,24.8119658 C188.191332,28.7834758 187.432978,32.7065527 186.682774,36.5811966 C185.93257,40.4558405 185.20065,44.1488604 184.487016,47.6602564 C183.773381,51.1716524 183.12693,54.2108262 182.547663,56.7777778 C182.131603,58.6666667 181.625318,60.2891738 181.02881,61.6452991 C180.432301,63.0014245 179.663756,64.1396011 178.723175,65.0598291 C177.782594,65.980057 176.641348,66.7065527 175.299436,67.2393162 C173.957524,67.7720798 172.361763,68.1353276 170.512154,68.3290598 C169.41547,68.4259259 168.234884,68.5106838 166.970395,68.5833333 C165.705907,68.6559829 164.582579,68.6923077 163.600411,68.6923077 L163.679705,59.465812 C164.596465,59.5626781 165.468191,59.6353276 166.294883,59.6837607 C167.121576,59.7321937 167.956418,59.7321937 168.79941,59.6837607 C169.830686,59.6837607 170.673679,59.6353276 171.328387,59.5384615 C171.983096,59.4415954 172.521041,59.1631054 172.942223,58.7029915 C173.363406,58.2428775 173.723045,57.5648148 174.021143,56.6688034 C174.31924,55.772792 174.651869,54.525641 175.019031,52.9273504 C175.45975,51.1837607 175.932965,49.1011396 176.438674,46.6794872 C176.944383,44.2578348 177.468376,41.6545584 178.010655,38.8696581 C178.552933,36.0847578 179.111512,33.2029915 179.68639,30.224359 C180.261268,27.2457265 180.789127,24.3276353 181.269968,21.4700855 L173.461736,21.4700855 C172.279171,27.3304843 171.10021,32.5128205 169.924854,37.017094 C168.749497,41.5213675 167.549115,45.3717949 166.323708,48.5683761 C165.065702,51.9586895 163.480341,55.3974359 161.567626,58.8846154 C159.654911,62.3717949 157.238992,66.0769231 154.31987,70 L147,66.2222222 C149.706599,62.6866097 152.053139,59.2478632 154.039622,55.9059829 C156.026104,52.5641026 157.595269,49.3675214 158.747119,46.3162393 C159.82541,43.4102564 160.919634,39.8988604 162.029792,35.7820513 C163.13995,31.6652422 164.274191,26.8945869 165.432516,21.4700855 L157.034983,21.4700855 L158.367482,13.5512821 L166.986003,13.5512821 L169.077066,2 L177.327273,2 Z M222,9 L212.57928,65 L186,65 L195.42072,9 L222,9 Z M212,17 L201.767789,17 L195,57 L205.232211,57 L212,17 Z" id="path-112"></path>
        <filter x="-21.3%" y="-20.6%" width="142.7%" height="147.1%" filterUnits="objectBoundingBox" id="filter-113">
            <feOffset dx="0" dy="2" in="SourceAlpha" result="shadowOffsetOuter1"></feOffset>
            <feGaussianBlur stdDeviation="5" in="shadowOffsetOuter1" result="shadowBlurOuter1"></feGaussianBlur>
            <feColorMatrix values="0 0 0 0 0.0705882353   0 0 0 0 0.62745098   0 0 0 0 1  0 0 0 0.20011507 0" type="matrix" in="shadowBlurOuter1"></feColorMatrix>
        </filter>
    </defs>
    <g id="-1" stroke="none" stroke-width="1" fill="none" fill-rule="evenodd">
        <g id="" transform="translate(0.000000, -128.000000)">
            <g id="bg" transform="translate(0.000000, 128.000000)">
                <mask id="mask-3" fill="white">
                    <use xlink:href="#path-2"></use>
                </mask>
                <use id="" fill="url(#linearGradient-1)" xlink:href="#path-2"></use>
                <path d="M147.958769,399.999795 L132.342769,606.519795 L8.34276888,606.519795 L-7.27323112,399.999795 L147.958769,399.999795 Z M172.342769,77.5197955 L150.756769,362.999795 L-10.0712311,362.999795 L-31.6572311,77.5197955 L172.342769,77.5197955 Z" id="" fill="url(#linearGradient-4)" opacity="0.202160063" mask="url(#mask-3)" transform="translate(70.342769, 342.019795) rotate(-43.000000) translate(-70.342769, -342.019795) "></path>
                <path d="M312.958769,192.999795 L297.342769,399.519795 L173.342769,399.519795 L157.726769,192.999795 L312.958769,192.999795 Z M337.342769,-129.480205 L315.756769,155.999795 L154.928769,155.999795 L133.342769,-129.480205 L337.342769,-129.480205 Z" id="" fill="url(#linearGradient-4)" opacity="0.202160063" mask="url(#mask-3)" transform="translate(235.342769, 135.019795) rotate(-35.000000) translate(-235.342769, -135.019795) "></path>
                <path d="M777.924,166.805 L768.294118,373 L691.705882,373 L682.075,166.805 L777.924,166.805 Z M793,-156 L779.652,129.805 L680.347,129.805 L667,-156 L793,-156 Z" id="-2" fill="url(#linearGradient-5)" opacity="0.202160063" mask="url(#mask-3)" transform="translate(730.000000, 108.500000) rotate(42.000000) translate(-730.000000, -108.500000) "></path>
                <polygon id="-3" fill="url(#linearGradient-5)" opacity="0.202160063" mask="url(#mask-3)" transform="translate(494.000000, 85.500000) rotate(25.000000) translate(-494.000000, -85.500000) " points="431 -179 557 -179 532.294118 350 455.705882 350"></polygon>
                <g id="1" opacity="0.902691069" mask="url(#mask-3)">
                    <g transform="translate(225.000000, 42.000000)">
                        <rect id="" fill="#000000" fill-rule="nonzero" opacity="0" x="0" y="0" width="300" height="300"></rect>
                        <g id="" stroke-width="1" fill="none" fill-rule="evenodd" transform="translate(30.952381, 13.094202)">
                            <mask id="mask-8" fill="white">
                                <use xlink:href="#path-7"></use>
                            </mask>
                            <use id="" fill="url(#linearGradient-6)" fill-rule="nonzero" xlink:href="#path-7"></use>
                            <ellipse fill="#00CAFF" filter="url(#filter-9)" mask="url(#mask-8)" cx="125.297619" cy="46.9057984" rx="67.5" ry="73.75"></ellipse>
                            <path d="M125.297619,29.8927046 C162.57684,29.8927046 226.493574,56.3342373 226.493574,43.7686638 C226.493574,31.2030903 162.57684,-8.84420159 125.297619,-8.84420159 C88.0183984,-8.84420159 -7.10542736e-14,21.6121573 -7.10542736e-14,34.1777308 C-7.10542736e-14,46.7433043 88.0183984,29.8927046 125.297619,29.8927046 Z" fill="#036AE6" filter="url(#filter-10)" mask="url(#mask-8)"></path>
                        </g>
                        <g id="" stroke-width="1" fill="none" fill-rule="evenodd" transform="translate(30.952381, 13.093201)">
                            <mask id="mask-13" fill="white">
                                <use xlink:href="#path-12"></use>
                            </mask>
                            <g id="" fill-rule="nonzero">
                                <use fill="black" fill-opacity="1" filter="url(#filter-14)" xlink:href="#path-12"></use>
                                <use fill="url(#linearGradient-11)" xlink:href="#path-12"></use>
                                <use fill="black" fill-opacity="1" filter="url(#filter-15)" xlink:href="#path-12"></use>
                            </g>
                            <ellipse fill="#C3F9FF" filter="url(#filter-16)" mask="url(#mask-13)" cx="97.172619" cy="12.5317988" rx="63.125" ry="25.625"></ellipse>
                        </g>
                        <g id="" fill="none" opacity="0.601659139" fill-rule="nonzero">
                            <use fill="black" fill-opacity="1" filter="url(#filter-19)" xlink:href="#path-18"></use>
                            <use fill="url(#linearGradient-17)" xlink:href="#path-18"></use>
                            <use fill="black" fill-opacity="1" filter="url(#filter-20)" xlink:href="#path-18"></use>
                        </g>
                    </g>
                </g>
                <g id="" mask="url(#mask-3)">
                    <g transform="translate(-100.137253, 322.773941)">
                        <path d="M174.694036,2.3921981 C162.46024,-3.56580421 150.93771,1.60543217 140.126444,17.9059073 C123.909547,42.3566199 139.531314,62.3821413 126.546333,73.9481341 C117.88968,81.658796 75.7075686,117.443862 0,181.303331 L12.4632103,196 C95.9899025,137.016951 141.348056,104.350284 148.537669,98 C159.32209,88.4745741 195.219393,63.8064228 195.219393,49.4762254 C195.219393,39.9227604 195.219393,25.2725336 195.219393,5.52554488 L174.694036,2.3921981 Z" id="-25" stroke="none" fill="#FFC6A9" fill-rule="evenodd" filter="url(#filter-21)"></path>
                        <path d="M168.903883,10.1194217 C168.903883,10.1194217 145.291378,7.86573602 139.412657,33.3308047 C136.609706,45.4724466 148.68636,63.7366761 142.442846,68.4925015 C58.0190193,132.800037 59.7178596,160.139084 78.4699415,148.360159 C86.8672862,143.085454 159.536119,78.9333804 161.852392,76.6483185 C171.394538,67.23475 177.112748,46.2410164 179.00702,13.6671177 C172.271595,11.3019871 168.903883,10.1194217 168.903883,10.1194217 Z" id="-24" stroke="none" fill="#FFFFFF" fill-rule="evenodd" filter="url(#filter-22)"></path>
                        <path d="M142.212685,27.498899 C146.28831,48.430081 142.267808,64.7595103 130.15118,76.4871868 C118.034551,88.2148633 84.5355465,116.834132 29.6541656,162.344992" id="-31" stroke="url(#linearGradient-23)" stroke-width="2" fill="none" filter="url(#filter-24)"></path>
                        <path d="M160.452316,16.1941972 C158.918445,16.1941972 142.119355,38.7515516 145.4831,50.8200211 C148.846844,62.8884907 160.545004,75.3901351 170.286488,67.9630215 C176.78081,63.0116124 176.198994,47.1742699 168.541039,20.4509942 C164.171138,17.6131295 161.474897,16.1941972 160.452316,16.1941972 Z" id="-9" stroke="none" fill="#FFFFFF" fill-rule="evenodd" filter="url(#filter-25)"></path>
                    </g>
                </g>
                <g id="-6" filter="url(#filter-26)" mask="url(#mask-3)">
                    <g transform="translate(207.678105, 248.602432) rotate(-3.000000) translate(-207.678105, -248.602432) translate(43.385818, 102.221017)">
                        <g id="-7" stroke="none" stroke-width="1" fill="none" fill-rule="evenodd" transform="translate(87.698985, 4.968372)">
                            <mask id="mask-29" fill="white">
                                <use xlink:href="#path-28"></use>
                            </mask>
                            <use id="" fill="url(#linearGradient-27)" xlink:href="#path-28"></use>
                            <path d="M51.6895876,26.305147 C65.7600934,57.010422 78.7184791,76.3784295 90.5647446,84.4091694 C102.41101,92.4399092 99.3388696,94.3898386 81.348323,90.2589573 C59.4210709,66.9196889 47.7752111,46.4190504 46.4107438,28.7570419 C45.0462766,11.0950333 46.8058912,10.277735 51.6895876,26.305147 Z" fill="#FFFFFF" opacity="0.195539202" mask="url(#mask-29)"></path>
                        </g>
                        <g id="-8" stroke="none" stroke-width="1" fill="none" fill-rule="evenodd" transform="translate(240.048581, 39.505709)">
                            <mask id="mask-32" fill="white">
                                <use xlink:href="#path-31"></use>
                            </mask>
                            <use id="" fill="url(#linearGradient-30)" xlink:href="#path-31"></use>
                            <path d="M46.0056518,17.1940801 C43.4285284,21.4188771 39.0575105,24.0652067 32.892598,25.1330689 C23.6452294,26.7348623 13.1701902,30.3801282 13.1701902,30.3801282 C13.1701902,30.3801282 17.1107499,33.8390854 24.9918694,40.7569998 L37.4676802,40.7569998 L50.7169893,31.7968115 L55.2052135,20.2193835 L46.0056518,17.1940801 Z" fill="#EA7248" filter="url(#filter-33)" mask="url(#mask-32)" transform="translate(34.187702, 28.975540) rotate(-8.000000) translate(-34.187702, -28.975540) "></path>
                        </g>
                        <g id="-19" stroke="none" fill="none">
                            <use fill="url(#linearGradient-34)" fill-rule="evenodd" xlink:href="#path-35"></use>
                            <use fill="black" fill-opacity="1" filter="url(#filter-36)" xlink:href="#path-35"></use>
                        </g>
                        <g id="-10" stroke="none" stroke-width="1" fill="none" fill-rule="evenodd" transform="translate(41.926227, 25.087748)">
                            <mask id="mask-39" fill="white">
                                <use xlink:href="#path-38"></use>
                            </mask>
                            <use id="" fill="url(#linearGradient-37)" xlink:href="#path-38"></use>
                            <path d="M-0.546838996,52.866958 C-1.07461511,52.8392985 0.94527237,52.9451563 5.51282344,53.1845315 C12.36415,53.5435943 16.3029967,52.2340889 16.2237677,53.7458683 C16.1445387,55.2576477 12.5220838,56.6808432 12.5220838,56.6808432 C12.5220838,56.6808432 2.31227412,57.0650734 -0.71037231,55.9873595 C-2.72546993,55.2688836 -2.67095883,54.2287498 -0.546838996,52.866958 Z" fill="#FFB37E" filter="url(#filter-40)" mask="url(#mask-39)"></path>
                            <path d="M9.70977036,61.7372196 C9.30835057,61.7229795 10.8446513,61.7774786 14.3186724,61.9007169 C19.5297041,62.0855743 22.5255407,61.4113976 22.4652802,62.1897117 C22.4050196,62.9680257 19.6498265,63.7007338 19.6498265,63.7007338 C19.6498265,63.7007338 11.8843754,63.8985483 9.585389,63.3437055 C8.05273143,62.9738103 8.09419188,62.438315 9.70977036,61.7372196 Z" fill="#FFB37E" filter="url(#filter-41)" mask="url(#mask-39)" transform="translate(15.466172, 62.735007) rotate(-11.000000) translate(-15.466172, -62.735007) "></path>
                        </g>
                        <path d="M291.463983,112.860149 C283.528184,128.052417 270.817424,144.578277 253.331704,162.437731 C227.103125,189.226912 193.768115,130.402167 193.768115,107.073119 C194.848528,93.4062075 201.875841,84.0660836 214.850054,79.0527475 L226.46657,88.7504448 C216.867087,100.002814 212.067345,106.793514 212.067345,109.122544 C212.067345,112.616088 232.047331,143.077433 236.41295,143.077433 C240.77857,143.077433 242.380382,140.590054 246.707869,134.718312 C248.264779,132.605822 250.149703,127.326521 255.370974,122.126649 C258.340221,119.169572 264.628667,114.151728 274.236312,107.073119 L291.463983,112.860149 Z" id="-22" stroke="none" fill="url(#linearGradient-42)" fill-rule="evenodd"></path>
                        <path d="M185.936841,23.5097644 C151.539325,29.8558984 130.98008,35.1878799 124.259106,39.505709 C114.177646,45.9824526 97.3866099,54.9812085 92.6227191,61.4113763 C87.8588282,67.841544 96.9261665,84.123397 98.4823058,86.6335124 C101.266122,87.7652333 148.013225,66.1852641 157.627945,64.6520427 C164.037759,63.6298951 176.611065,60.4435905 195.347863,55.0931288 L185.936841,23.5097644 Z" id="-20" stroke="none" fill="url(#linearGradient-43)" fill-rule="evenodd"></path>
                        <path d="M155.228948,99.6804484 C153.890757,99.6804484 151.417094,99.6804484 147.80796,99.6804484 L97.8983881,182.773861 L113.549559,196.955752 C162.610949,181.703156 188.246056,170.747755 190.45488,164.089548 C192.663703,157.431341 194.294698,147.9482 195.347863,135.640126 L164.417322,99.6804484" id="-28" stroke="none" fill="#0D5FA6" fill-rule="evenodd"></path>
                        <g id="" stroke="none" stroke-width="1" fill="none" fill-rule="evenodd" transform="translate(149.986012, 5.882702)">
                            <mask id="mask-45" fill="white">
                                <use xlink:href="#path-44"></use>
                            </mask>
                            <use id="" fill="#036EF2" xlink:href="#path-44"></use>
                            <path d="M72.7728991,-2.44310387 C69.6623771,40.6387894 59.9987784,67.1832019 43.7821033,77.1901336 C27.5654281,87.1970653 11.627508,97.2848076 -4.03165714,107.453361 L22.57694,153.580556 C45.1176463,136.079755 66.1254823,124.474681 85.6004482,118.765334 C99.9310249,114.564134 111.01665,106.558708 118.304875,103.884414 C129.709366,99.699723 147.426983,97.1306728 171.457723,96.1772636 L185.764792,60.224391 L163.871464,-6.21724894e-14 L101.797437,-5.8013962 L72.7728991,-2.44310387 Z" id="-18" fill="url(#linearGradient-46)" mask="url(#mask-45)"></path>
                            <g id="-3" mask="url(#mask-45)">
                                <use fill="url(#linearGradient-47)" fill-rule="evenodd" xlink:href="#path-48"></use>
                                <use fill="black" fill-opacity="1" filter="url(#filter-49)" xlink:href="#path-48"></use>
                            </g>
                            <ellipse fill="#3EEBFF" filter="url(#filter-50)" mask="url(#mask-45)" transform="translate(93.339213, 12.821965) rotate(33.000000) translate(-93.339213, -12.821965) " cx="93.3392132" cy="12.8219652" rx="19.057499" ry="13.0064286"></ellipse>
                            <ellipse id="-2" fill="#06E4FD" filter="url(#filter-51)" mask="url(#mask-45)" cx="155.02206" cy="70.2064367" rx="19.057499" ry="13.0064286"></ellipse>
                        </g>
                        <path d="M195.939976,102.635735 C194.823082,98.5081138 195.770012,94.567459 198.780768,90.8137706 C201.791524,87.0600822 206.180043,87.9737802 211.946326,93.5548647 L205.633879,105.35836 L196.50897,102.902909 L195.939976,102.635735 Z" id="-11" stroke="none" fill="url(#linearGradient-52)" fill-rule="evenodd"></path>
                        <path d="M253.331704,162.437731 C227.103125,189.226912 193.768115,130.402167 193.768115,107.073119 C193.956431,103.479838 193.251193,103.627469 194.292056,102.549371 C194.985965,101.83064 205.710803,97.2309975 226.46657,88.7504448 C216.867087,100.002814 212.067345,106.793514 212.067345,109.122544 C212.067345,112.616088 232.047331,143.610166 236.41295,143.610166 C239.325074,143.610166 255.076231,144.14433 257.555765,150.408187 C258.786976,153.518503 262.064285,153.518503 253.331704,162.437731 Z" id="-22" stroke="none" fill="url(#linearGradient-53)" fill-rule="evenodd"></path>
                        <g id="-2-+--2-" stroke="none" stroke-width="1" fill="none" fill-rule="evenodd" transform="translate(193.513446, 66.685218)">
                            <mask id="mask-55" fill="white">
                                <use xlink:href="#path-54"></use>
                            </mask>
                            <use id="" fill="#E1B48A" xlink:href="#path-54"></use>
                            <polygon id="-2" fill="#FFFFFF" opacity="0.201497396" mask="url(#mask-55)" points="19.0692698 5.38515764 49.1026035 55.8211515 42.7678025 58.4990505 13.8649822 7.27018457"></polygon>
                            <polygon id="-2" fill="#FFFFFF" opacity="0.201497396" mask="url(#mask-55)" transform="translate(31.483590, 31.942104) rotate(90.000000) translate(-31.483590, -31.942104) " points="19.070089 5.3827688 49.1009505 55.8229145 42.766671 58.5010339 13.8662298 7.26795091"></polygon>
                        </g>
                        <g id="" stroke="none" stroke-width="1" fill="none" fill-rule="evenodd" transform="translate(223.734572, 95.647388) rotate(62.000000) translate(-223.734572, -95.647388) translate(215.373849, 91.349366)">
                            <path d="M4.84917322,4.07839577 L4.84917322,3.91880637 L4.84917322,2.11899258 L3.30706482,2.11899258 L3.30706482,1.38310813 L4.84917322,1.38310813 C4.84917322,1.15259011 4.84917322,0.922072087 4.84917322,0.691554065 C4.84917322,0.461036044 4.85214453,0.230518022 4.85808714,0 L5.58902869,0 L5.58011477,1.38310813 L7.50552179,1.38310813 L7.50552179,4.07839577 L8.33451647,4.07839577 L8.33451647,4.83201238 L5.69599575,4.83201238 C5.79107758,5.10981615 5.90101594,5.36841008 6.02581084,5.60779418 C6.15060574,5.84717828 6.29917109,6.07030791 6.47150691,6.27718305 C6.89937513,6.80914772 7.53820616,7.25836233 8.388,7.62482687 L7.98687354,8.34297917 C7.32130074,8.01788965 6.76566631,7.63369295 6.31997024,7.19038906 C5.87427418,6.74708518 5.52365994,6.22694195 5.26812752,5.62995938 C5.16116047,5.90185243 5.03042295,6.15601332 4.87591498,6.39244207 C4.65603826,6.72935302 4.36782147,7.06183094 4.01126461,7.38987581 C3.65470776,7.71792069 3.20901169,8.05039861 2.67417641,8.38730956 L2.18391073,7.76668412 C2.64743464,7.50070179 3.05004676,7.22142034 3.39174708,6.92883977 C3.7334474,6.6362592 4.0082933,6.34515632 4.2162848,6.05553111 C4.47181722,5.700888 4.65009564,5.29304842 4.75112009,4.83201238 L2.68309033,4.83201238 L2.68309033,4.07839577 L4.84917322,4.07839577 Z M2.06802976,0 L2.06802976,1.72888516 L2.4602423,1.40970636 C2.53749628,1.49836714 2.62366419,1.60623775 2.71874601,1.7333182 C2.81382784,1.86039865 2.91782359,2.00668893 3.03073326,2.17218905 C3.26249522,2.50318929 3.43185972,2.76917162 3.53882678,2.97013605 L2.96833581,3.41343994 C2.91485228,3.31295772 2.84651222,3.19622103 2.76331562,3.06322987 C2.68011902,2.9302387 2.58206589,2.78099306 2.46915622,2.61549294 C2.38595962,2.49727857 2.31316259,2.39088564 2.25076514,2.29631414 C2.18836769,2.20174264 2.1274559,2.11308187 2.06802976,2.03033181 L2.06802976,8.28978271 L1.3370882,8.28978271 L1.3370882,0 L2.06802976,0 Z M5.58011477,2.11899258 L5.57120085,3.87447598 C5.57120085,3.90994029 5.5697152,3.9454046 5.56674389,3.98086891 C5.56377258,4.01633323 5.56228693,4.04884218 5.56228693,4.07839577 L6.77458023,4.07839577 L6.77458023,2.11899258 L5.58011477,2.11899258 Z M0,4.70788729 C0.0891392136,4.28231556 0.178278427,3.75921697 0.267417641,3.13859153 C0.314958555,2.82532345 0.355071201,2.52830984 0.387755579,2.24755071 C0.420439957,1.96679158 0.448667375,1.69637621 0.472437832,1.4363046 L1.17663762,1.48063499 C1.09938363,2.07170684 1.01915834,2.64356885 0.935961743,3.19622103 C0.852765143,3.74887321 0.769568544,4.29118164 0.686371945,4.8231463 L0,4.70788729 Z" id="" stroke="#FFFFFF" stroke-width="0.3" fill="#FFFFFF" fill-rule="nonzero"></path>
                            <path d="M16.2885182,4.43815572 C16.2825053,4.634873 16.2764924,4.8047652 16.2704795,4.94783232 C16.2644666,5.09089943 16.2584537,5.21906372 16.2524408,5.33232518 C16.2464279,5.44558665 16.2389118,5.5513967 16.2298924,5.64975534 C16.220873,5.74811399 16.2103505,5.85094347 16.1983247,5.95824381 C16.1802859,6.14303883 16.1517247,6.29355736 16.1126408,6.40979939 C16.0735569,6.52604142 16.020944,6.61843893 15.9548021,6.68699192 C15.8886601,6.75554491 15.8029763,6.80621452 15.6977505,6.83900073 C15.5925247,6.87178694 15.4587376,6.89712174 15.2963892,6.91500513 C14.995744,6.93884965 14.7101311,6.94779135 14.4395505,6.94183022 L14.3313182,6.21755295 C14.4575892,6.22947521 14.5733376,6.23692662 14.6785634,6.23990719 C14.7837892,6.24288775 14.9055505,6.24437804 15.0438472,6.24437804 C15.2061956,6.23841691 15.3144279,6.21308211 15.368544,6.16837363 C15.4226601,6.12366516 15.4587376,6.03275793 15.4767763,5.89565195 C15.494815,5.77642935 15.508344,5.64975534 15.5173634,5.51562992 C15.5263827,5.38150451 15.5338989,5.23694711 15.5399118,5.08195774 L13.8983892,5.08195774 L13.8983892,7.4783319 L13.1678214,7.4783319 L13.1678214,5.65422619 C13.0656021,5.7555654 12.9633827,5.85392404 12.8611634,5.94930211 C12.758944,6.04468019 12.6477053,6.14303883 12.5274472,6.24437804 C12.0163505,6.67954051 11.4962343,7.03720829 10.9670989,7.31738139 L10.5522085,6.70040446 C10.8227892,6.56329848 11.0873569,6.41128967 11.3459118,6.24437804 C11.6044666,6.0774664 11.860015,5.89863251 12.1125569,5.70787636 C12.2508537,5.60653715 12.3786279,5.50221738 12.4958795,5.39491705 C12.6131311,5.28761671 12.7228666,5.18329694 12.8250859,5.08195774 L10.8678859,5.08195774 L11.1204279,2.95383441 L13.1678214,2.95383441 L13.1678214,2.08649003 L10.9941569,2.08649003 L10.9941569,1.44268802 L12.2207892,1.44268802 L12.0313827,1.04031176 C11.9111247,0.801866573 11.8119118,0.614090986 11.733744,0.476985002 L12.3831376,0.217675858 C12.4312408,0.289209415 12.4823505,0.374155514 12.5364666,0.472514155 C12.5905827,0.570872795 12.6507118,0.682643978 12.7168537,0.807827703 C12.7529311,0.87340013 12.7890085,0.943443405 12.8250859,1.01795753 C12.8611634,1.09247165 12.8942343,1.16251492 12.9242989,1.22808735 L12.4372537,1.44268802 L13.8713311,1.44268802 C14.0096279,1.25193187 14.1479247,1.05223402 14.2862214,0.843594482 C14.4245182,0.63495494 14.5568021,0.423334834 14.683073,0.208734163 L15.3234472,0.548518559 C15.215215,0.721391322 15.1114924,0.880851543 15.0122795,1.02689922 C14.9130666,1.1729469 14.8123505,1.31154317 14.7101311,1.44268802 L15.9998989,1.44268802 L15.9998989,3.58869473 L13.8983892,3.58869473 L13.8983892,4.43815572 L16.2885182,4.43815572 Z M9.44282788,6.73617124 L9.44282788,4.16990488 L8.45069885,4.16990488 L8.45069885,3.45456931 L10.182415,3.45456931 L10.182415,6.7987631 C10.3988795,7.0193249 10.6108343,7.19517823 10.8182795,7.32632309 C11.0257247,7.45746794 11.254215,7.55880715 11.5037505,7.6303407 C11.7532859,7.70187426 12.0328859,7.75105358 12.3425505,7.77787867 C12.652215,7.80470375 13.0205053,7.82109686 13.4474214,7.82705799 C13.7781311,7.83898025 14.0787763,7.84494138 14.3493569,7.84494138 C14.6199376,7.84494138 14.8830021,7.84196081 15.1385505,7.83599968 C15.3940989,7.83003855 15.648144,7.81960657 15.9006859,7.80470375 C16.1532279,7.78980093 16.426815,7.77042725 16.7214472,7.74658273 L16.5861569,8.50662678 C16.1171505,8.52451017 15.6286021,8.53792271 15.1205118,8.5468644 C14.6124214,8.5558061 14.0246601,8.55431582 13.3572279,8.54239356 C12.9543634,8.54239356 12.5890795,8.52749073 12.2613763,8.49768508 C11.933673,8.46787943 11.6285182,8.41273898 11.3459118,8.33226373 C11.0633053,8.25178848 10.7972343,8.13852702 10.5476989,7.99247934 C10.2981634,7.84643166 10.0501311,7.65716579 9.80360208,7.42468173 L8.79343434,8.59604372 L8.33344724,8.00589188 L9.44282788,6.73617124 Z M9.33459563,0.53063517 C9.54504724,0.77504149 9.76151175,1.04180205 9.98398917,1.33091684 C10.2064666,1.62003163 10.4109053,1.89871445 10.5973053,2.16696529 L9.96595046,2.59616663 C9.87575692,2.45309951 9.77955046,2.30705184 9.67733111,2.15802359 C9.57511175,2.00899535 9.47138917,1.86294767 9.36616337,1.71988056 C9.26093756,1.57681344 9.15571175,1.44119774 9.05048595,1.31303345 C8.94526014,1.18486916 8.84755046,1.06713685 8.75735692,0.959836512 L9.33459563,0.53063517 Z M11.6976666,4.43815572 L13.1678214,4.43815572 L13.1678214,3.58869473 L11.8058989,3.58869473 L11.6976666,4.43815572 Z M13.8983892,2.08649003 L13.8983892,2.95383441 L15.2783505,2.95383441 L15.2783505,2.08649003 L13.8983892,2.08649003 Z" id="" stroke="#FFFFFF" stroke-width="0.3" fill="#FFFFFF" fill-rule="nonzero"></path>
                        </g>
                        <g id="-29" stroke="none" fill="none">
                            <use fill="#650E02" fill-rule="evenodd" xlink:href="#path-56"></use>
                            <use fill="black" fill-opacity="1" filter="url(#filter-57)" xlink:href="#path-56"></use>
                        </g>
                        <g id="" stroke="none" fill="none" opacity="0.236032395">
                            <use fill="#BF3D16" fill-rule="evenodd" xlink:href="#path-58"></use>
                            <use fill="black" fill-opacity="1" filter="url(#filter-59)" xlink:href="#path-58"></use>
                        </g>
                        <g id="" stroke="none" fill="none" opacity="0.236032395">
                            <use fill="#BF3D16" fill-rule="evenodd" xlink:href="#path-60"></use>
                            <use fill="black" fill-opacity="1" filter="url(#filter-61)" xlink:href="#path-60"></use>
                        </g>
                        <g id="" stroke="none" fill="none" opacity="0.236032395">
                            <use fill="#BF3D16" fill-rule="evenodd" xlink:href="#path-62"></use>
                            <use fill="black" fill-opacity="1" filter="url(#filter-63)" xlink:href="#path-62"></use>
                        </g>
                        <g id="" stroke="none" fill="none" opacity="0.236032395">
                            <use fill="#BF3D16" fill-rule="evenodd" xlink:href="#path-64"></use>
                            <use fill="black" fill-opacity="1" filter="url(#filter-65)" xlink:href="#path-64"></use>
                        </g>
                        <g id="" stroke="none" fill="none" opacity="0.236032395">
                            <use fill="#BF3D16" fill-rule="evenodd" xlink:href="#path-66"></use>
                            <use fill="black" fill-opacity="1" filter="url(#filter-67)" xlink:href="#path-66"></use>
                        </g>
                        <g id="-30" stroke="none" stroke-width="1" fill="none" fill-rule="evenodd" transform="translate(21.763305, 142.260192)">
                            <mask id="mask-70" fill="white">
                                <use xlink:href="#path-69"></use>
                            </mask>
                            <use id="" fill="url(#linearGradient-68)" xlink:href="#path-69"></use>
                            <path d="M136.698503,56.9164655 C129.762003,74.9038561 120.464196,85.8592574 108.805081,89.7826693 C97.1459663,93.7060812 86.3377093,97.6369746 76.38031,101.575349 C78.8893804,90.554759 85.3993528,81.6295416 95.9102272,74.7996971 C106.421102,67.9698525 120.017194,62.0087753 136.698503,56.9164655 Z" fill="#02AEF7" filter="url(#filter-71)" mask="url(#mask-70)"></path>
                            <path d="M33.4063424,96.8784052 C35.7823858,102.222765 38.5522832,104.004218 41.7160347,102.222765 C44.8797862,100.441312 35.6724093,120.311245 14.093904,161.832564 L8.66953392,148.062426 L33.4063424,96.8784052 Z" id="-6" fill="#2BBEFF" opacity="0.718263172" filter="url(#filter-72)" mask="url(#mask-70)"></path>
                        </g>
                        <g id="-30" stroke="none" stroke-width="1" fill="none" fill-rule="evenodd" transform="translate(0.000000, 95.541551)">
                            <mask id="mask-75" fill="white">
                                <use xlink:href="#path-74"></use>
                            </mask>
                            <g id="">
                                <use fill="url(#linearGradient-73)" fill-rule="evenodd" xlink:href="#path-74"></use>
                                <use fill="black" fill-opacity="1" filter="url(#filter-76)" xlink:href="#path-74"></use>
                            </g>
                            <path d="M125.79181,68.5479973 C118.85531,86.5353879 109.557503,97.4907892 97.8983881,101.414201 C86.2392733,105.337613 75.4310163,109.268506 65.473617,113.206881 C67.9826874,102.186291 74.4926598,93.2610735 85.0035342,86.4312289 C95.5144086,79.6013844 109.110501,73.6403072 125.79181,68.5479973 Z" fill="#02AEF7" filter="url(#filter-77)" mask="url(#mask-75)"></path>
                            <path d="M26.2776476,133.345891 C28.653691,138.69025 31.4235885,140.471704 34.5873399,138.69025 C37.7510914,136.908797 28.5437145,156.77873 6.96520924,198.30005 L1.54083916,184.529911 L26.2776476,133.345891 Z" id="-6" fill="#2BBEFF" opacity="0.718263172" filter="url(#filter-78)" mask="url(#mask-75)"></path>
                        </g>
                        <ellipse id="" stroke="#942A1B" stroke-width="1" fill="#E77E6E" fill-rule="evenodd" filter="url(#filter-79)" transform="translate(303.932049, 8.248133) rotate(36.000000) translate(-303.932049, -8.248133) " cx="303.932049" cy="8.24813285" rx="2.72242243" ry="1.51241843"></ellipse>
                        <g id="-5" stroke="none" stroke-width="1" fill="none" fill-rule="evenodd" transform="translate(263.330039, 0.000000)">
                            <g id="" transform="translate(42.689333, 29.890635) scale(-1, 1) rotate(-86.000000) translate(-42.689333, -29.890635) translate(30.781461, 16.143551)">
                                <mask id="mask-82" fill="white">
                                    <use xlink:href="#path-81"></use>
                                </mask>
                                <use id="" fill="url(#linearGradient-80)" xlink:href="#path-81"></use>
                                <ellipse id="" fill="#891901" filter="url(#filter-83)" mask="url(#mask-82)" transform="translate(11.537906, 1.984820) rotate(143.000000) translate(-11.537906, -1.984820) " cx="11.5379064" cy="1.98482031" rx="3.93238255" ry="1.81490461"></ellipse>
                            </g>
                            <g id="-5" transform="translate(0.000000, 4.861916)">
                                <mask id="mask-86" fill="white">
                                    <use xlink:href="#path-85"></use>
                                </mask>
                                <g id="">
                                    <use fill="url(#linearGradient-84)" fill-rule="evenodd" xlink:href="#path-85"></use>
                                    <use fill="black" fill-opacity="1" filter="url(#filter-87)" xlink:href="#path-85"></use>
                                </g>
                                <path d="M12.924954,20.857215 C13.3785723,23.2744324 14.3548039,23.6864532 15.8536487,22.0932775 C18.101916,19.7035138 22.5923713,13.7669336 25.5342169,11.5475424 C28.4760625,9.32815125 34.4188625,10.7766389 37.5104363,13.3511056 C39.5714855,15.0674167 43.1296537,16.2001179 48.184941,16.7492093 L33.7516116,6.20986739 L26.6870108,4.11361365 L17.4626255,6.92403002 L11.8855636,18.647848 L12.924954,20.857215 Z" fill="#FCA05C" filter="url(#filter-88)" mask="url(#mask-86)"></path>
                            </g>
                            <path d="M8.90389544,16.4094589 C6.06835108,17.9788015 4.94218942,20.642681 5.52541047,24.4010976 C6.40024203,30.0387225 7.76795657,30.8189647 10.2575887,31.2735186 C10.8536467,31.2735186 11.7427685,30.0654495 12.924954,27.6493114" id="-14" fill="url(#linearGradient-89)"></path>
                            <g id="" transform="translate(6.581462, 3.439598)">
                                <mask id="mask-91" fill="white">
                                    <use xlink:href="#path-90"></use>
                                </mask>
                                <use id="" fill="url(#linearGradient-80)" xlink:href="#path-90"></use>
                                <ellipse fill="#891901" filter="url(#filter-92)" mask="url(#mask-91)" transform="translate(11.520454, 3.792803) rotate(136.000000) translate(-11.520454, -3.792803) " cx="11.5204539" cy="3.7928028" rx="7.82523223" ry="3.62984519"></ellipse>
                            </g>
                            <g id="" transform="translate(26.653369, 0.000000)">
                                <mask id="mask-95" fill="white">
                                    <use xlink:href="#path-94"></use>
                                </mask>
                                <use id="" fill="url(#linearGradient-93)" transform="translate(19.300610, 12.859596) rotate(12.000000) translate(-19.300610, -12.859596) " xlink:href="#path-94"></use>
                                <ellipse fill="#891901" filter="url(#filter-96)" mask="url(#mask-95)" transform="translate(8.229172, 6.505436) rotate(30.000000) translate(-8.229172, -6.505436) " cx="8.22917234" cy="6.50543615" rx="7.82543378" ry="5.14218226"></ellipse>
                                <path d="M34.8436545,19.6499432 C28.9621841,23.3356492 23.7154545,24.2570757 19.1034657,22.4142227 C14.491477,20.5713697 11.4974096,18.9730818 10.1212635,17.6193592 L10.8570676,21.997389 L31.9639201,27.4419405 L37.6268745,22.5306499 L34.8436545,20.1205159 L34.8436545,19.6499432 Z" id="-4" fill="#CD7134" filter="url(#filter-97)" mask="url(#mask-95)"></path>
                            </g>
                            <path d="M42.2343081,30.5676299 C41.994996,30.9555096 42.1154339,31.463949 42.5033137,31.7032611 C42.5045008,31.7039935 42.5056897,31.7047229 42.5068805,31.7054492 L46.608288,34.2072904 C46.9724248,34.4294123 47.4446273,34.3487075 47.7143231,34.0182563 C47.9474019,33.7326708 47.9048369,33.3122104 47.6192514,33.0791315 C47.6004997,33.0638275 47.5809294,33.0495547 47.5606273,33.0363765 L43.3655382,30.3133316 C42.9900192,30.0695811 42.488002,30.1764005 42.2442515,30.5519196 C42.2408771,30.5571182 42.2375624,30.5623553 42.2343081,30.5676299 Z" id="-15" fill="#9C3011"></path>
                            <path d="M28.6349187,21.5994736 C28.3596376,22.0456523 28.4981776,22.630511 28.9443563,22.9057921 C28.9457218,22.9066345 28.9470894,22.9074736 28.9484592,22.9083091 L33.6663151,25.7861812 C34.0851823,26.0416884 34.6283577,25.9488535 34.9385891,25.5687349 C35.2067001,25.2402255 35.1577374,24.7565691 34.829228,24.4884582 C34.8076579,24.4708538 34.7851462,24.4544359 34.7617926,24.439277 L29.9361746,21.3069539 C29.5042144,21.0265672 28.9267432,21.1494418 28.6463566,21.581402 C28.642475,21.5873819 28.6386621,21.5934062 28.6349187,21.5994736 Z" id="-15" fill="#9C3011"></path>
                            <path d="M40.5580422,34.6659766 C42.1914071,34.6659134 43.5155622,35.9899661 43.5156253,37.623331 C43.5156253,37.6234072 43.5156253,37.6234835 43.5156253,37.6235597 L43.5154798,41.3876295 C43.5154166,43.0211578 42.1911961,44.3453782 40.5576678,44.3454414 C38.924303,44.3455046 37.6001479,43.0214519 37.6000847,41.3880871 C37.6000847,41.3880108 37.6000847,41.3879345 37.6000847,41.3878583 L37.6002303,37.6237885 C37.6002935,35.9902603 38.924514,34.6660398 40.5580422,34.6659766 Z" id="" fill="url(#linearGradient-98)" transform="translate(40.557855, 39.505709) rotate(35.000000) translate(-40.557855, -39.505709) "></path>
                            <path d="M26.6872214,25.4890652 C28.5247569,25.4889941 30.0144313,26.9785534 30.0145024,28.8160889 C30.0145024,28.8161746 30.0145024,28.8162604 30.0145024,28.8163462 L30.0143386,33.0509247 C30.0142675,34.888644 28.5245195,36.3783921 26.6868002,36.3784631 C24.8492647,36.3785342 23.3595903,34.888975 23.3595192,33.0514395 C23.3595192,33.0513537 23.3595192,33.0512679 23.3595192,33.0511821 L23.359683,28.8166036 C23.3597541,26.9788843 24.8495021,25.4891363 26.6872214,25.4890652 Z" id="" fill="url(#linearGradient-99)" transform="translate(26.687011, 30.933764) rotate(35.000000) translate(-26.687011, -30.933764) "></path>
                            <g id="-16" transform="translate(31.564187, 40.060834) rotate(19.000000) translate(-31.564187, -40.060834) ">
                                <use fill="url(#linearGradient-100)" fill-rule="evenodd" xlink:href="#path-101"></use>
                                <use fill="black" fill-opacity="1" filter="url(#filter-102)" xlink:href="#path-101"></use>
                            </g>
                            <path d="M33.7516116,51.61028 C31.0686632,51.4233262 28.9475394,50.9065783 27.3882401,50.0600363 C25.0492912,48.7902232 24.3957829,47.6003715 23.2005135,45.9824526" id="-17" stroke="#ED9A61" stroke-width="2" stroke-linecap="round"></path>
                        </g>
                        <path d="M225.881126,128.441028 C215.157718,120.514383 207.853179,112.84466 203.967511,105.431858 C203.967511,110.358245 204.907234,116.112382 206.786682,122.694268 C209.776572,129.447807 212.489118,133.554286 214.924318,135.013706 C218.577119,137.202836 223.901599,132.951267 223.901599,132.951267 C223.901599,132.951267 224.561441,131.447854 225.881126,128.441028 Z" id="-27" stroke="none" fill="url(#linearGradient-103)" fill-rule="evenodd"></path>
                    </g>
                </g>
                <g id="" filter="url(#filter-104)" mask="url(#mask-3)" fill-rule="nonzero">
                    <g transform="translate(376.000000, 157.000000)">
                        <g id="">
                            <use fill="black" fill-opacity="1" filter="url(#filter-106)" xlink:href="#path-105"></use>
                            <use fill="#FFFFFF" xlink:href="#path-105"></use>
                        </g>
                        <g id="">
                            <use fill="black" fill-opacity="1" filter="url(#filter-108)" xlink:href="#path-107"></use>
                            <use fill="#FFFFFF" xlink:href="#path-107"></use>
                        </g>
                        <g id="">
                            <use fill="black" fill-opacity="1" filter="url(#filter-111)" xlink:href="#path-110"></use>
                            <use fill="url(#linearGradient-109)" xlink:href="#path-110"></use>
                        </g>
                        <g id="">
                            <use fill="black" fill-opacity="1" filter="url(#filter-113)" xlink:href="#path-112"></use>
                            <use fill="url(#linearGradient-109)" xlink:href="#path-112"></use>
                        </g>
                    </g>
                </g>
            </g>
        </g>
    </g>
</svg>