<?xml version="1.0" encoding="UTF-8"?>
<svg width="50px" height="50px" viewBox="0 0 50 50" version="1.1" xmlns="http://www.w3.org/2000/svg" xmlns:xlink="http://www.w3.org/1999/xlink">
    <title>微信@3x</title>
    <g id="页面-1" stroke="none" stroke-width="1" fill="none" fill-rule="evenodd">
        <g id="登录" transform="translate(-234.000000, -876.000000)" fill-rule="nonzero">
            <g id="微信" transform="translate(234.000000, 876.000000)">
                <rect id="矩形" fill="#000000" opacity="0" x="0" y="0" width="50" height="50"></rect>
                <path d="M33.48252,17.5475779 C34.04986,17.5475779 34.6113,17.5881979 35.167945,17.6505078 C33.65321,10.5974929 26.112915,5.35714286 17.505445,5.35714286 C7.882225,5.35714286 3.55271368e-15,11.9151478 3.55271368e-15,20.2438529 C3.55271368e-15,25.0530929 2.62242998,28.9990679 7.00483999,32.0618879 L5.25400498,37.3275179 L11.373605,34.2592978 C13.56321,34.6920028 15.32024,35.1383028 17.50535,35.1383028 C18.0547,35.1383028 18.599205,35.1108728 19.13961,35.0685478 C18.79773,33.8989429 18.599255,32.6733228 18.599255,31.4005328 C18.59935,23.7530728 25.166815,17.5475779 33.48252,17.5475779 Z M23.946695,12.4459378 C25.441395,12.4459378 26.65302,13.6576178 26.65302,15.1523528 C26.65302,16.6470878 25.44139,17.8587178 23.946695,17.8587178 C22.451895,17.8587178 21.24027,16.6470378 21.24027,15.1523528 C21.24027,13.6576678 22.451995,12.4459378 23.946695,12.4459378 Z M11.698745,17.9132828 C10.204045,17.9132828 8.99231997,16.7016029 8.99231997,15.2069179 C8.99231997,13.7122328 10.20405,12.5005529 11.698745,12.5005529 C13.193545,12.5005529 14.40522,13.7122328 14.40522,15.2069179 C14.40522,16.7015529 13.193545,17.9132828 11.698745,17.9132828 Z M49.33607,31.2471929 C49.33607,24.2486379 42.33298,18.5438078 34.46714,18.5438078 C26.137995,18.5438078 19.578225,24.2486378 19.578225,31.2471929 C19.578225,38.2578379 26.137995,43.9502279 34.46714,43.9502279 C36.21018,43.9502279 37.96871,43.5102279 39.719545,43.0713729 L44.521335,45.7013379 L43.204475,41.3267029 C46.71839,38.6906429 49.33607,35.1951128 49.33607,31.2471929 Z M29.892955,29.2852728 C28.828535,29.2852728 27.965735,28.4223078 27.965735,27.3579778 C27.965735,26.2935478 28.828585,25.4307828 29.892955,25.4307828 C30.957325,25.4307828 31.820175,26.2935978 31.820175,27.3579778 C31.82028,28.4223578 30.95733,29.2852728 29.892955,29.2852728 Z M39.516275,29.3945978 C38.451755,29.3945978 37.589005,28.5316828 37.589005,27.4674028 C37.589005,26.4029228 38.451805,25.5402078 39.516275,25.5402078 C40.580645,25.5402078 41.443495,26.4029728 41.443495,27.4674028 C41.44355,28.5316828 40.58065,29.3945978 39.516275,29.3945978 Z" id="形状" fill="#FFFFFF"></path>
            </g>
        </g>
    </g>
</svg>