<?xml version="1.0" encoding="UTF-8"?>
<svg width="40px" height="40px" viewBox="0 0 40 40" version="1.1" xmlns="http://www.w3.org/2000/svg" xmlns:xlink="http://www.w3.org/1999/xlink">
    <!-- Generator: Sketch 61 (89581) - https://sketch.com -->
    <title>切片</title>
    <desc>Created with Sketch.</desc>
    <g id="页面-1" stroke="none" stroke-width="1" fill="none" fill-rule="evenodd">
        <g id="订单备份-3" transform="translate(-50.000000, -817.000000)">
            <g id="关于" transform="translate(50.000000, 817.000000)">
                <g>
                    <rect id="矩形" fill="#D8D8D8" opacity="0" x="0" y="0" width="40" height="40"></rect>
                    <g transform="translate(2.000000, 2.000000)" fill-rule="nonzero">
                        <path d="M21.65625,23.5511719 C18.50625,26.2722656 19.4589844,21.4980469 19.603125,20.8300781 C19.7472656,20.1621094 21.796875,16.0558594 20.2957031,15.3667969 C18.7910156,14.6742188 14.1609375,18.0878906 14.1609375,18.0878906 C14.1609375,18.0878906 13.3980469,18.6363281 13.4683594,18.7804688 C13.9710937,19.6628906 16.1894531,18.0878906 16.1894531,18.0878906 C16.1894531,18.0878906 16.9523438,17.4691406 16.8820313,18.0878906 C16.2140625,20.7773438 15.7570312,23.5125 15.5214844,26.2722656 C15.8554688,28.0863281 18.7207031,27.3234375 20.9636719,24.9117187 C23.2066406,22.5035156 21.65625,23.5511719 21.65625,23.5511719 L21.65625,23.5511719 Z" id="路径" fill="#12A0FF"></path>
                        <path d="M19.828125,13.2890625 C20.6789062,13.3347656 21.4910156,12.9234375 21.9550781,12.2097656 C22.4191406,11.4960938 22.471875,10.5890625 22.0851562,9.82617188 C21.6984375,9.06679687 20.9390625,8.56757812 20.0847656,8.521875 C19.2339844,8.47617187 18.421875,8.8875 17.9578125,9.60117188 C17.49375,10.3148438 17.4410156,11.221875 17.8277344,11.9847656 C18.2144531,12.7441406 18.9773437,13.2433594 19.828125,13.2890625 L19.828125,13.2890625 Z" id="路径" fill="#12A0FF"></path>
                        <path d="M31.0359375,30.0199219 C34.1050781,26.7398437 35.8136719,22.4121094 35.8101562,17.9191406 C35.8101563,8.03320312 27.7980469,0.02109375 17.9121094,0.02109375 C8.02617187,0.02109375 0.0140625,8.03671875 0.0140625,17.9191406 C0.0140625,27.8050781 8.02617187,35.8172172 17.9121094,35.8172172 L34.6183594,35.8172172 C35.1210938,35.8207031 35.5710938,35.5113281 35.746875,35.04375 C35.9226563,34.5726562 35.7855469,34.0453125 35.4058594,33.7183594 L31.0359375,30.0199219 Z M17.9121094,33.4335938 C9.34453125,33.4335938 2.39765625,26.4867188 2.39765625,17.9191406 C2.39765625,9.3515625 9.34101563,2.40820313 17.9085938,2.40820313 C26.4761719,2.40820313 33.4196138,9.3515625 33.4196138,17.9191406 C33.4335938,22.2117187 31.6511719,26.3144531 28.5046875,29.2324219 C28.2550781,29.4785156 28.1285156,29.8230469 28.1566406,30.1710938 C28.1847656,30.5191406 28.3640625,30.8390625 28.6488281,31.0464844 L31.4894531,33.4335938 L17.9121094,33.4335938 Z" id="形状" fill="#44494E"></path>
                    </g>
                </g>
            </g>
        </g>
    </g>
</svg>