<?xml version="1.0" encoding="UTF-8"?>
<svg width="64px" height="64px" viewBox="0 0 64 64" version="1.1" xmlns="http://www.w3.org/2000/svg" xmlns:xlink="http://www.w3.org/1999/xlink">
    <!-- Generator: Sketch 61 (89581) - https://sketch.com -->
    <title>切片</title>
    <desc>Created with Sketch.</desc>
    <defs>
        <linearGradient x1="50%" y1="0%" x2="50%" y2="100%" id="linearGradient-1">
            <stop stop-color="#53C3FF" offset="0%"></stop>
            <stop stop-color="#2990FF" offset="100%"></stop>
        </linearGradient>
        <path d="M16,4 L52,4 C54.209139,4 56,5.790861 56,8 L56,56 C56,58.209139 54.209139,60 52,60 L16,60 C13.790861,60 12,58.209139 12,56 L12,8 C12,5.790861 13.790861,4 16,4 Z" id="path-2"></path>
        <filter x="-8.0%" y="-6.2%" width="115.9%" height="112.5%" filterUnits="objectBoundingBox" id="filter-3">
            <feGaussianBlur stdDeviation="3" in="SourceAlpha" result="shadowBlurInner1"></feGaussianBlur>
            <feOffset dx="0" dy="1" in="shadowBlurInner1" result="shadowOffsetInner1"></feOffset>
            <feComposite in="shadowOffsetInner1" in2="SourceAlpha" operator="arithmetic" k2="-1" k3="1" result="shadowInnerInner1"></feComposite>
            <feColorMatrix values="0 0 0 0 0.668769055   0 0 0 0 0.910370035   0 0 0 0 1  0 0 0 1 0" type="matrix" in="shadowInnerInner1"></feColorMatrix>
        </filter>
        <linearGradient x1="50%" y1="0%" x2="50%" y2="100%" id="linearGradient-4">
            <stop stop-color="#FFFFFF" offset="0%"></stop>
            <stop stop-color="#BFE5FF" offset="100%"></stop>
        </linearGradient>
    </defs>
    <g id="页面-1" stroke="none" stroke-width="1" fill="none" fill-rule="evenodd">
        <g id="订单备份-3" transform="translate(-576.000000, -392.000000)">
            <g id="申请发票" transform="translate(576.000000, 392.000000)">
                <g>
                    <rect id="矩形" stroke="#979797" fill="#D8D8D8" opacity="0" x="0" y="0" width="64" height="64"></rect>
                    <g id="矩形" fill-rule="nonzero">
                        <use fill="url(#linearGradient-1)" xlink:href="#path-2"></use>
                        <use fill="black" fill-opacity="1" filter="url(#filter-3)" xlink:href="#path-2"></use>
                    </g>
                    <path d="M27.3333042,29.6372131 C26.5969771,29.6372131 26,30.2464647 26,30.9979314 C26,31.7493982 26.5969771,32.3586497 27.3333042,32.3586497 L32.6665647,32.3586497 L32.6665647,36.6390588 C32.6665647,37.3905255 33.2635419,38 33.999869,38 C34.7361961,38 35.3331732,37.3905255 35.3331732,36.6390588 L35.3331732,32.3586497 L40.6664337,32.3586497 C41.4027608,32.3586497 42,31.7493982 42,30.9979314 C42,30.2464647 41.4027608,29.6372131 40.6664337,29.6372131 L35.3332169,29.6372131 L35.3332169,26.0085864 L40.6664774,26.0085864 C41.4028045,26.0085864 42,25.3992903 42,24.6478681 C42,23.8964014 41.4028045,23.2871498 40.6664774,23.2871498 L37.2188974,23.2871498 L40.1234929,20.3229666 C40.6443299,19.7914207 40.6443299,18.9298821 40.1237114,18.3986037 C39.6030928,17.8670578 38.758693,17.8672807 38.2381181,18.3983808 L34,22.7234606 L29.7618819,18.3983808 C29.2414817,17.8672807 28.3970819,17.8670578 27.8762887,18.3986037 C27.3556701,18.9299267 27.3556701,19.7914653 27.8765071,20.3229666 L30.7811026,23.2871498 L27.3333043,23.2871498 C26.5969772,23.2871498 26,23.8964014 26,24.6478681 C26,25.3993349 26.5969772,26.0085864 27.3333043,26.0085864 L32.6665647,26.0085864 L32.6665647,29.6372131 L27.3333042,29.6372131 Z" id="路径" fill="url(#linearGradient-4)" fill-rule="nonzero"></path>
                    <path d="M10.1828714,48 L34.7289233,48 C35.7598595,47.9999982 36.621887,48.7836426 36.7198713,49.8099117 C37.368479,56.6033039 41.7951886,60 50,60 C32.7519565,60 21.5495806,60 16.3928723,60 C11.7443501,60 9.01285445,56.7495412 8.19838539,50.2486236 C8.06107604,49.1526236 8.83824541,48.1528265 9.93424498,48.015514 C10.0167176,48.0051814 10.0997541,48 10.1828714,48 Z" id="矩形" fill="#CEE6FF"></path>
                </g>
            </g>
        </g>
    </g>
</svg>