<?xml version="1.0" encoding="UTF-8"?>
<svg width="40px" height="40px" viewBox="0 0 40 40" version="1.1" xmlns="http://www.w3.org/2000/svg" xmlns:xlink="http://www.w3.org/1999/xlink">
    <!-- Generator: Sketch 61 (89581) - https://sketch.com -->
    <title>切片</title>
    <desc>Created with Sketch.</desc>
    <g id="页面-1" stroke="none" stroke-width="1" fill="none" fill-rule="evenodd">
        <g id="订单备份-3" transform="translate(-50.000000, -611.000000)">
            <g id="其他" transform="translate(50.000000, 611.000000)">
                <g>
                    <rect id="矩形" stroke="#979797" fill="#D8D8D8" opacity="0" x="0" y="0" width="40" height="40"></rect>
                    <g id="功能" transform="translate(3.000000, 1.000000)" fill-rule="nonzero">
                        <path d="M31.4566533,9.31168649 L31.4543951,9.31038447 L18.0296849,1.5516008 C17.3305263,1.14946639 16.5032725,1.14946639 15.8063722,1.55029878 L2.37714555,9.31168649 C1.68414119,9.71028119 1.26790687,10.4341742 1.26790687,11.2399143 L1.26790687,26.7600857 C1.26790687,27.5658258 1.68414121,28.2897188 2.3784578,28.6890693 L15.8312391,36.4483992 C16.5303977,36.8505336 17.3576515,36.8505336 18.0554979,36.449155 L31.5109037,28.6883135 C32.2039081,28.2897188 32.6201424,27.5658258 32.6201424,26.7600857 L32.6213215,11.2941949 C32.5846016,10.4493897 32.1501141,9.71054372 31.4566533,9.31168649 Z" id="形状" stroke="#44494E" stroke-width="2.5"></path>
                        <path d="M26.3335628,15.2486965 L18.0183082,20.1455938 L18.0183082,29.8988009 C17.9932049,30.4028426 17.8927916,30.7808739 17.4660349,30.8816822 C17.2652083,31.0076927 17.0643817,31.0580968 16.8384517,31.0580968 L16.7380384,31.0580968 C16.4184631,31.0580968 16.1119769,30.9306467 15.8860031,30.7037839 C15.6600293,30.4769211 15.5330785,30.1692292 15.5330785,29.8483967 L15.5330785,19.8683709 C15.5330785,19.7927646 15.5330785,19.7171583 15.5581818,19.6415521 L7.70689175,15.2486965 C7.12951516,14.9210694 6.80317185,14.1902089 7.12951512,13.610561 C7.45585842,13.030913 8.13364835,12.8292963 8.68592163,13.1569234 L16.9951239,17.9957238 L25.3294296,13.1569234 C25.9068062,12.8292963 26.5343895,13.030913 26.8607328,13.610561 C27.1870761,14.1650069 26.9109394,14.9210694 26.3335628,15.2486965 Z" id="路径" fill="#12A0FF"></path>
                    </g>
                </g>
            </g>
        </g>
    </g>
</svg>