<?xml version="1.0" encoding="UTF-8"?>
<svg width="64px" height="64px" viewBox="0 0 64 64" version="1.1" xmlns="http://www.w3.org/2000/svg" xmlns:xlink="http://www.w3.org/1999/xlink">
    <!-- Generator: Sketch 61 (89581) - https://sketch.com -->
    <title>切片</title>
    <desc>Created with Sketch.</desc>
    <defs>
        <linearGradient x1="50%" y1="0%" x2="50%" y2="100%" id="linearGradient-1">
            <stop stop-color="#53C3FF" offset="0%"></stop>
            <stop stop-color="#2990FF" offset="100%"></stop>
        </linearGradient>
        <path d="M4,0 L40,0 C42.209139,-4.05812251e-16 44,1.790861 44,4 L44,52 C44,54.209139 42.209139,56 40,56 L4,56 C1.790861,56 2.705415e-16,54.209139 0,52 L0,4 C-2.705415e-16,1.790861 1.790861,4.05812251e-16 4,0 Z" id="path-2"></path>
        <filter x="-8.0%" y="-6.2%" width="115.9%" height="112.5%" filterUnits="objectBoundingBox" id="filter-3">
            <feGaussianBlur stdDeviation="3" in="SourceAlpha" result="shadowBlurInner1"></feGaussianBlur>
            <feOffset dx="0" dy="1" in="shadowBlurInner1" result="shadowOffsetInner1"></feOffset>
            <feComposite in="shadowOffsetInner1" in2="SourceAlpha" operator="arithmetic" k2="-1" k3="1" result="shadowInnerInner1"></feComposite>
            <feColorMatrix values="0 0 0 0 0.668769055   0 0 0 0 0.910370035   0 0 0 0 1  0 0 0 1 0" type="matrix" in="shadowInnerInner1"></feColorMatrix>
        </filter>
        <linearGradient x1="64.0795619%" y1="46.5330164%" x2="28.6187599%" y2="56.9460703%" id="linearGradient-4">
            <stop stop-color="#FFFFFF" offset="0%"></stop>
            <stop stop-color="#ADE1FF" offset="100%"></stop>
        </linearGradient>
    </defs>
    <g id="页面-1" stroke="none" stroke-width="1" fill="none" fill-rule="evenodd">
        <g id="订单备份-3" transform="translate(-110.000000, -392.000000)">
            <g id="我的订单" transform="translate(110.000000, 392.000000)">
                <g>
                    <rect id="矩形" fill="#D8D8D8" opacity="0" x="0" y="0" width="64" height="64"></rect>
                    <g id="编组-5" transform="translate(6.000000, 4.000000)">
                        <path d="M26,18 L50,18 C51.1045695,18 52,18.8954305 52,20 L52,54 C52,55.1045695 51.1045695,56 50,56 L26,56 C24.8954305,56 24,55.1045695 24,54 L24,20 C24,18.8954305 24.8954305,18 26,18 Z" id="矩形备份-2" fill="#CEE6FF" fill-rule="nonzero"></path>
                        <g id="矩形" fill-rule="nonzero">
                            <use fill="url(#linearGradient-1)" xlink:href="#path-2"></use>
                            <use fill="black" fill-opacity="1" filter="url(#filter-3)" xlink:href="#path-2"></use>
                        </g>
                        <rect id="矩形" fill="url(#linearGradient-4)" x="10" y="20" width="24" height="3" rx="1.5"></rect>
                        <rect id="矩形备份" fill="url(#linearGradient-4)" x="10" y="33" width="24" height="3" rx="1.5"></rect>
                    </g>
                </g>
            </g>
        </g>
    </g>
</svg>