<?xml version="1.0" encoding="UTF-8"?>
<svg width="14px" height="24px" viewBox="0 0 14 24" version="1.1" xmlns="http://www.w3.org/2000/svg" xmlns:xlink="http://www.w3.org/1999/xlink">
    <!-- Generator: Sketch 61 (89581) - https://sketch.com -->
    <title>切片</title>
    <desc>Created with Sketch.</desc>
    <g id="页面-1" stroke="none" stroke-width="1" fill="none" fill-rule="evenodd">
        <g id="订单备份-3" transform="translate(-676.000000, -619.000000)" fill="#888888" fill-rule="nonzero">
            <g id="右箭头" transform="translate(676.000000, 619.000000)">
                <path d="M1.12773836,1.09090915 C1.57035987,0.65887195 2.27585633,0.655699192 2.72234578,1.08373789 L12.5074724,10.4645035 C13.304822,11.2289034 13.331533,12.4949517 12.5671331,13.2923013 C12.5517994,13.308296 12.5362009,13.3240348 12.5203442,13.3395111 L2.72282032,22.9019814 C2.28004983,23.3341294 1.57434342,23.3372748 1.12773836,22.9090908 C0.699815666,22.4988187 0.685507056,21.8193276 1.09577918,21.3914049 C1.10399923,21.3828312 1.11236103,21.3743945 1.1208611,21.3660984 L10.0704145,12.6312547 C10.4656511,12.2455003 10.4733379,11.612382 10.0875835,11.2171454 C10.0798453,11.209217 10.071976,11.2014178 10.0639786,11.1937509 L1.13467544,2.63344263 C0.706863517,2.22330962 0.692531922,1.54402105 1.10266493,1.11620912 C1.11088218,1.10763766 1.11924115,1.09920317 1.12773836,1.09090915 Z" id="Path-2-Copy-16"></path>
            </g>
        </g>
    </g>
</svg>