<?xml version="1.0" encoding="UTF-8"?>
<svg width="54px" height="54px" viewBox="0 0 54 54" version="1.1" xmlns="http://www.w3.org/2000/svg" xmlns:xlink="http://www.w3.org/1999/xlink">
    <!-- Generator: Sketch 61 (89581) - https://sketch.com -->
    <title>切片</title>
    <desc>Created with Sketch.</desc>
    <defs>
        <linearGradient x1="22.8682711%" y1="95.9580954%" x2="73.9852142%" y2="5.32254726%" id="linearGradient-1">
            <stop stop-color="#12A0FF" offset="0%"></stop>
            <stop stop-color="#65C1FF" offset="100%"></stop>
        </linearGradient>
    </defs>
    <g id="页面-1" stroke="none" stroke-width="1" fill="none" fill-rule="evenodd">
        <g id="订单备份" transform="translate(-348.000000, -1236.000000)">
            <g id="编组-3备份" transform="translate(0.000000, 1226.000000)">
                <g id="订单选中" transform="translate(348.000000, 10.000000)">
                    <rect id="矩形" fill-opacity="0" fill="#D8D8D8" x="0" y="0" width="54" height="54"></rect>
                    <path d="M10,5 L40,5 C44.418278,5 48,8.581722 48,13 L48,43 C48,45.209139 46.209139,47 44,47 L10,47 C7.790861,47 6,45.209139 6,43 L6,9 C6,6.790861 7.790861,5 10,5 Z" id="矩形" fill="url(#linearGradient-1)"></path>
                    <rect id="矩形" fill="#FFFFFF" x="21" y="33" width="17" height="3" rx="1.5"></rect>
                    <rect id="矩形" fill="#FFFFFF" x="16" y="33" width="3" height="3" rx="1.5"></rect>
                </g>
            </g>
        </g>
    </g>
</svg>