<?xml version="1.0" encoding="UTF-8"?>
<svg width="34px" height="30px" viewBox="0 0 34 30" version="1.1" xmlns="http://www.w3.org/2000/svg" xmlns:xlink="http://www.w3.org/1999/xlink">
    <!-- Generator: Sketch 61 (89581) - https://sketch.com -->
    <title>微信支付@3x</title>
    <desc>Created with Sketch.</desc>
    <g id="页面-1" stroke="none" stroke-width="1" fill="none" fill-rule="evenodd">
        <g id="确认订单" transform="translate(-521.000000, -1472.000000)" fill-rule="nonzero">
            <g id="微信支付" transform="translate(518.000000, 1467.000000)">
                <rect id="矩形" fill="#000000" opacity="0" x="0" y="0" width="40" height="40"></rect>
                <path d="M15.4627344,23.5775391 C15.3095703,23.6548828 15.1527344,23.6917969 14.9623437,23.6917969 C14.5365625,23.6917969 14.1892578,23.4632813 13.995,23.1205078 L13.9166406,22.9695703 L10.865625,16.4104688 C10.8282812,16.333125 10.8282812,16.2594922 10.8282812,16.1821484 C10.8282812,15.8762891 11.0598437,15.6477734 11.3698047,15.6477734 C11.485625,15.6477734 11.6013672,15.6846484 11.7171875,15.7619922 L15.3095703,18.2787891 C15.5784766,18.4297266 15.8884766,18.5440234 16.2356641,18.5440234 C16.4298828,18.5440234 16.6204297,18.5071094 16.8146484,18.4297266 L33.6605469,11.0343359 C30.6469141,7.52636719 25.6650781,5.23808594 20.0224609,5.23808594 C10.8282813,5.23808594 3.33332031,11.3770703 3.33332031,18.9605078 C3.33332031,23.0764453 5.57398438,26.8127344 9.088125,29.3295313 C9.356875,29.5211328 9.55109375,29.8639063 9.55109375,30.2064844 C9.55109375,30.3207422 9.51371094,30.435 9.47273437,30.5492578 C9.20394531,31.5773047 8.73714844,33.2576172 8.73714844,33.3314063 C8.69972656,33.4454688 8.65851562,33.5966406 8.65851562,33.7513281 C8.65851562,34.0571875 8.89011719,34.2857031 9.20011719,34.2857031 C9.31585938,34.2857031 9.43167969,34.2488281 9.51007812,34.1714453 L13.1398437,32.0748047 C13.4087891,31.9236328 13.71875,31.8094141 14.02875,31.8094141 C14.1817188,31.8094141 14.3759766,31.8462891 14.5291406,31.8867578 C16.2282031,32.3806641 18.0842969,32.6496484 19.9775781,32.6496484 C29.1717969,32.6496484 36.6666406,26.5106641 36.6666406,18.9272266 C36.6666406,16.6389453 35.9721094,14.4685156 34.7733984,12.5599219 L15.5784766,23.5001563 L15.4627344,23.5775 L15.4627344,23.5775391 Z" id="路径" fill="#09BB07"></path>
            </g>
        </g>
    </g>
</svg>