<?xml version="1.0" encoding="UTF-8"?>
<svg width="108px" height="108px" viewBox="0 0 108 108" version="1.1" xmlns="http://www.w3.org/2000/svg" xmlns:xlink="http://www.w3.org/1999/xlink">
    <!-- Generator: Sketch 61 (89581) - https://sketch.com -->
    <title>right@3x</title>
    <desc>Created with Sketch.</desc>
    <g id="页面-1" stroke="none" stroke-width="1" fill="none" fill-rule="evenodd">
        <g id="实名认证备份-9" transform="translate(-321.000000, -200.000000)" fill-rule="nonzero">
            <g id="right" transform="translate(321.000000, 200.000000)">
                <path d="M54,2.5 C25.559557,2.5 2.5,25.5632614 2.5,54 C2.5,82.4323114 25.5676886,105.5 54,105.5 C82.4367386,105.5 105.5,82.440443 105.5,54 C105.5,25.5551305 82.4448695,2.5 54,2.5 Z" id="路径" stroke="#12A0FF" stroke-width="5"></path>
                <path d="M30,40 C30,43.3134328 32.6865672,46 36,46 C39.3134328,46 42,43.3134328 42,40 C42,36.6865672 39.3134328,34 36,34 C32.6865672,34 30,36.6865672 30,40 Z M66,40 C66,43.3134328 68.6865672,46 72,46 C75.3134328,46 78,43.3134328 78,40 C78,36.6865672 75.3134328,34 72,34 C68.6865672,34 66,36.6865672 66,40 Z M72.5363966,74 C71.6458166,74 70.8021092,73.5276074 70.3333829,72.8404908 C67.2397892,67.7300613 61.3338375,64.5521472 54.9591595,64.6380368 C48.6313541,64.7668712 42.7722751,67.9018405 39.5849361,72.9263804 C38.7881013,73.9570552 37.2413045,74.2147239 36.0694886,73.4846626 C35.0382907,72.8404908 34.7101823,71.595092 35.2726539,70.5644172 C39.3505729,64.1226994 46.8501941,60.0858896 55.0060321,60 C63.1618702,60 70.6614913,64.0797546 74.6456651,70.607362 C75.3487546,71.6809816 74.9737735,73.0552147 73.8019577,73.6993865 C73.7550851,73.6993865 73.7082124,73.7423313 73.7082124,73.7423313 C73.3332314,73.9141104 72.9582503,74 72.5363966,74 L72.5363966,74 Z" id="形状" fill="#12A0FF"></path>
            </g>
        </g>
    </g>
</svg>