<?xml version="1.0" encoding="UTF-8"?>
<svg width="108px" height="108px" viewBox="0 0 108 108" version="1.1" xmlns="http://www.w3.org/2000/svg" xmlns:xlink="http://www.w3.org/1999/xlink">
    <!-- Generator: Sketch 61 (89581) - https://sketch.com -->
    <title>right@3x</title>
    <desc>Created with Sketch.</desc>
    <g id="页面-1" stroke="none" stroke-width="1" fill="none" fill-rule="evenodd">
        <g id="实名认证备份-8" transform="translate(-322.000000, -200.000000)" fill="#12A0FF" fill-rule="nonzero">
            <g id="right" transform="translate(322.000000, 200.000000)">
                <path d="M54,0 C24.1744186,0 0,24.1869767 0,54 C0,83.8130233 24.1869767,108 54,108 C83.8130233,108 108,83.8255814 108,54 C108,24.1744186 83.8255814,0 54,0 Z M79.8862339,41.6573052 L51.8313235,70.1795386 L50.9315669,71.0942828 C48.4322431,73.6352391 44.3833384,73.6352391 41.8840145,71.0942828 L30.1246957,59.1390839 C28.6251014,57.6145102 28.6251014,55.1497827 30.1246957,53.625209 C31.6242901,52.1006352 34.0486342,52.1006352 35.5482285,53.625209 L44.1459026,62.3660983 C45.3955646,63.6365764 47.4200169,63.6365764 48.6696788,62.3660983 L74.4502045,36.1434303 C75.9497988,34.6188566 78.374143,34.6188566 79.8737373,36.1434303 C81.3733316,37.668004 81.3733316,40.1327315 79.8862339,41.6573052 Z" id="形状"></path>
            </g>
        </g>
    </g>
</svg>