<?xml version="1.0" encoding="UTF-8"?>
<svg width="28px" height="28px" viewBox="0 0 28 28" version="1.1" xmlns="http://www.w3.org/2000/svg" xmlns:xlink="http://www.w3.org/1999/xlink">
    <!-- Generator: Sketch 61 (89581) - https://sketch.com -->
    <title>注意@3x</title>
    <desc>Created with Sketch.</desc>
    <g id="页面-1" stroke="none" stroke-width="1" fill="none" fill-rule="evenodd">
        <g id="发件信息备份-3" transform="translate(-682.000000, -447.000000)" fill-rule="nonzero">
            <g id="编组" transform="translate(560.000000, 441.000000)">
                <g id="注意" transform="translate(122.000000, 6.000000)">
                    <rect id="矩形" fill="#000000" opacity="0" x="0" y="0" width="28" height="28"></rect>
                    <path d="M13.9917969,28 C12.1980469,28 10.4480469,27.6636719 8.79101562,26.9992188 C7.11210937,26.3265625 5.59453125,25.3449219 4.28476562,24.0816406 C2.97773437,22.8210938 1.94140625,21.3445313 1.20585937,19.6902344 C0.44296875,17.9785156 0.03828125,16.1519531 0.002734375,14.2625 C-0.0328125,12.3730469 0.303515625,10.5328125 1.00078125,8.79375 C1.6734375,7.11484375 2.65507812,5.59726563 3.91835938,4.2875 C5.17890625,2.97773438 6.65546875,1.94140625 8.30976562,1.20585938 C10.0214844,0.44296875 11.8480469,0.03828125 13.7375,0.002734375 C15.6269531,-0.0328125 17.4671875,0.303515625 19.20625,1.00078125 C20.8851563,1.6734375 22.4027344,2.65507813 23.7125,3.91835938 C25.0222656,5.17890625 26.0585938,6.65820313 26.7941406,8.3125 C27.5570313,10.0242188 27.9617188,11.8507813 27.9972656,13.7402344 C28.0328125,15.6296875 27.6964844,17.4699219 26.9992188,19.2089844 C26.3265625,20.8878906 25.3449219,22.4054688 24.0816406,23.7152344 C22.8210938,25.025 21.3417969,26.0613281 19.6875,26.796875 C17.9757813,27.5597656 16.1492188,27.9644531 14.2597656,28 L13.9917969,28 Z M14.0082031,1.50117187 C13.9289063,1.50117187 13.846875,1.50117187 13.7675781,1.50390625 C12.0804687,1.53671875 10.4507813,1.89765625 8.92226562,2.57578125 C7.44570312,3.23203125 6.12773437,4.15898438 5.00117187,5.32929688 C3.87460937,6.49960938 2.99960937,7.853125 2.39804687,9.3515625 C1.771875,10.9046875 1.47382812,12.5453125 1.50390625,14.2351563 C1.53671875,15.9222656 1.89765625,17.5519531 2.57578125,19.0804688 C3.23203125,20.5570313 4.15898437,21.875 5.32929687,23.0015625 C6.49960937,24.128125 7.853125,25.003125 9.3515625,25.6046875 C10.9046875,26.228125 12.5453125,26.5261719 14.2324219,26.4960938 C15.9195313,26.4632813 17.5492188,26.1023438 19.0777344,25.4242188 C20.5542969,24.7679688 21.8722656,23.8410156 22.9988281,22.6707031 C24.1253906,21.5003906 25.0003906,20.146875 25.6019531,18.6484375 C26.2253906,17.0953125 26.5234375,15.4546875 26.4933594,13.7675781 C26.4605469,12.0804688 26.0996094,10.4507813 25.4214844,8.92226562 C24.7652344,7.44570312 23.8382813,6.12773438 22.6679688,5.00117187 C21.4976563,3.87460937 20.1441406,2.99960937 18.6457031,2.39804687 C17.1691406,1.80195312 15.6105469,1.50117187 14.0082031,1.50117187 Z" id="形状" fill="#666666"></path>
                    <path d="M14,21.6917969 C13.8496094,21.6917969 13.7183594,21.6699219 13.5898438,21.6261719 C13.4613281,21.5605469 13.3300781,21.4757812 13.2453125,21.3910156 C13.1359375,21.2816406 13.0511719,21.175 13.0074219,21.0464844 C12.9417969,20.9152344 12.9199219,20.7675781 12.9199219,20.6144531 C12.9199219,20.3355469 13.0265625,20.0539062 13.2425781,19.8597656 C13.6308594,19.4523437 14.3390625,19.4523437 14.7492188,19.8597656 C14.9652344,20.0566406 15.071875,20.3355469 15.071875,20.6144531 C15.071875,20.7648437 15.05,20.9152344 14.984375,21.0464844 C14.940625,21.175 14.8558594,21.2816406 14.7464844,21.3910156 C14.5605469,21.5851562 14.2816406,21.6917969 14,21.6917969 L14,21.6917969 Z M14,16.9585937 C13.584375,16.9585937 13.2480469,16.6222656 13.2480469,16.2066406 L13.2480469,7.37460937 C13.2480469,6.95898437 13.584375,6.62265625 14,6.62265625 C14.415625,6.62265625 14.7519531,6.95898437 14.7519531,7.37460937 L14.7519531,16.2066406 C14.7519531,16.6222656 14.415625,16.9585937 14,16.9585937 Z" id="形状" fill="#666666"></path>
                </g>
            </g>
        </g>
    </g>
</svg>