<?xml version="1.0" encoding="UTF-8"?>
<svg width="40px" height="40px" viewBox="0 0 40 40" version="1.1" xmlns="http://www.w3.org/2000/svg" xmlns:xlink="http://www.w3.org/1999/xlink">
    <!-- Generator: Sketch 61 (89581) - https://sketch.com -->
    <title>切片</title>
    <desc>Created with Sketch.</desc>
    <defs>
        <rect id="path-1" x="0" y="0" width="40" height="40"></rect>
    </defs>
    <g id="页面-1" stroke="none" stroke-width="1" fill="none" fill-rule="evenodd">
        <g id="环球旅递-电话下单" transform="translate(-30.000000, -66.000000)">
            <g id="x标题栏" transform="translate(30.000000, 66.000000)">
                <g id="x">
                    <mask id="mask-2" fill="white">
                        <use xlink:href="#path-1"></use>
                    </mask>
                    <use id="Mask" fill="#D8D8D8" opacity="0" xlink:href="#path-1"></use>
                    <path d="M19.991378,-0.508621971 C20.8198052,-0.508621971 21.491378,0.162950904 21.491378,0.991378029 L21.490378,18.491378 L38.991378,18.491378 C39.8198052,18.491378 40.491378,19.1629509 40.491378,19.991378 C40.491378,20.8198052 39.8198052,21.491378 38.991378,21.491378 L21.490378,21.491378 L21.491378,38.991378 C21.491378,39.8198052 20.8198052,40.491378 19.991378,40.491378 C19.1629509,40.491378 18.491378,39.8198052 18.491378,38.991378 L18.490378,21.491378 L0.991378029,21.491378 C0.162950904,21.491378 -0.508621971,20.8198052 -0.508621971,19.991378 C-0.508621971,19.1629509 0.162950904,18.491378 0.991378029,18.491378 L18.490378,18.491378 L18.491378,0.991378029 C18.491378,0.162950904 19.1629509,-0.508621971 19.991378,-0.508621971 Z" id="合并形状" fill="#333333" mask="url(#mask-2)" transform="translate(19.991378, 19.991378) rotate(45.000000) translate(-19.991378, -19.991378) "></path>
                </g>
            </g>
        </g>
    </g>
</svg>