<?xml version="1.0" encoding="UTF-8"?>
<svg width="20px" height="20px" viewBox="0 0 20 20" version="1.1" xmlns="http://www.w3.org/2000/svg" xmlns:xlink="http://www.w3.org/1999/xlink">
    <!-- Generator: Sketch 61 (89581) - https://sketch.com -->
    <title>修改@3x</title>
    <desc>Created with Sketch.</desc>
    <g id="修改" stroke="none" stroke-width="1" fill="none" fill-rule="evenodd">
        <g fill-rule="nonzero">
            <rect id="矩形" fill="#000000" opacity="0" x="0" y="0" width="20" height="20"></rect>
            <path d="M17.5391782,19.220675 L2.45829022,19.220675 C2.01300582,19.220675 1.58595911,19.0437672 1.27109549,18.7289036 C0.956231874,18.41404 0.779343335,17.9869932 0.779343335,17.5417088 L0.779343335,2.47255093 C0.779343335,2.02792148 0.95597169,1.60150289 1.27037219,1.28710239 C1.58477269,0.97270189 2.01119128,0.796073535 2.45582073,0.796073535 L12.5131416,0.796073535 C12.8238468,0.796073535 13.0757231,1.04794985 13.0757231,1.35865503 C13.0757231,1.6693602 12.8238468,1.92123652 12.5131416,1.92123652 L3.01207415,1.92123652 C2.71609983,1.92090838 2.43215353,2.03833843 2.22286795,2.247624 C2.01358238,2.45690957 1.89615233,2.74085588 1.89648046,3.03683019 L1.89648046,16.9925552 C1.89574149,17.2887684 2.01300004,17.5730803 2.22233918,17.7826511 C2.43167831,17.992222 2.71586031,18.109795 3.01207415,18.1093837 L16.9770598,18.1093837 C17.2732484,18.1097126 17.5573825,17.9921131 17.7667037,17.7825602 C17.976025,17.5730073 18.09331,17.2887433 18.0926535,16.9925552 L18.0926535,6.94233414 C18.0926482,6.74139474 18.199845,6.55571682 18.3738628,6.45524559 C18.5478805,6.35477437 18.7622807,6.35477437 18.9362985,6.45524559 C19.1103162,6.55571682 19.2175077,6.74139474 19.2175077,6.94233414 L19.2175077,17.5518955 C19.2171025,17.9960141 19.0398423,18.421686 18.7249063,18.7348263 C18.4099703,19.0479666 17.9832919,19.2227899 17.5391782,19.220675 L17.5391782,19.220675 Z M8.42242567,11.8279183 C8.28144329,11.9725691 8.0735425,12.0301882 7.87821329,11.9787451 C7.68288408,11.927302 7.53033459,11.7747525 7.47889147,11.5794233 C7.42744836,11.3840941 7.48506742,11.1761933 7.62971826,11.0352109 L17.6706788,0.950416888 C17.811055,0.80309481 18.0202741,0.743469041 18.2172237,0.794655951 C18.4141734,0.845842861 18.5678843,0.999793572 18.6187642,1.19682279 C18.669644,1.39385201 18.6096922,1.60297792 18.4621514,1.7431243 L8.42242567,11.8279183 Z" id="形状" fill="#888888"></path>
        </g>
    </g>
</svg>