<?xml version="1.0" encoding="UTF-8"?>
<svg width="750px" height="797px" viewBox="0 0 750 797" version="1.1" xmlns="http://www.w3.org/2000/svg" xmlns:xlink="http://www.w3.org/1999/xlink">
    <!-- Generator: Sketch 61 (89581) - https://sketch.com -->
    <title>登录bg@3x</title>
    <desc>Created with Sketch.</desc>
    <defs>
        <rect id="path-1" x="0" y="0" width="750" height="700"></rect>
        <linearGradient x1="47.5093037%" y1="36.3462617%" x2="50%" y2="53.1799034%" id="linearGradient-3">
            <stop stop-color="#FFFFFF" stop-opacity="0" offset="0%"></stop>
            <stop stop-color="#FFFFFF" offset="100%"></stop>
        </linearGradient>
        <rect id="path-4" x="0" y="399" width="750" height="300"></rect>
        <linearGradient x1="50%" y1="42.5177352%" x2="49.5483477%" y2="50.7243776%" id="linearGradient-6">
            <stop stop-color="#FFFFFF" stop-opacity="0" offset="0%"></stop>
            <stop stop-color="#F7F7F7" offset="100%"></stop>
        </linearGradient>
        <rect id="path-7" x="0" y="0" width="750" height="300"></rect>
        <linearGradient x1="50%" y1="-3.56282767%" x2="50%" y2="76.7161051%" id="linearGradient-9">
            <stop stop-color="#F9F9F9" stop-opacity="0" offset="0%"></stop>
            <stop stop-color="#FFFFFF" offset="100%"></stop>
        </linearGradient>
        <linearGradient x1="95.5043781%" y1="34.3427033%" x2="2.89445034%" y2="66.6507835%" id="linearGradient-10">
            <stop stop-color="#8CE0FF" offset="0%"></stop>
            <stop stop-color="#4FA4FF" offset="100%"></stop>
        </linearGradient>
    </defs>
    <g id="页面-1" stroke="none" stroke-width="1" fill="none" fill-rule="evenodd">
        <g id="登录">
            <g id="登录bg">
                <g id="分组-5">
                    <g id="附近诊所背景">
                        <mask id="mask-2" fill="white">
                            <use xlink:href="#path-1"></use>
                        </mask>
                        <use id="Mask" fill="#F7F7F7" fill-rule="nonzero" xlink:href="#path-1"></use>
                        <path d="M600,182 L599,151 L674,176 L676.879584,218 C627.91411,225.333333 603.431373,225.333333 603.431373,218 C603.431373,210.666667 602.287582,198.666667 600,182 Z" id="路径-13" fill="#F7F7F7" fill-rule="nonzero" mask="url(#mask-2)"></path>
                        <path d="M-15,237 L-15,409.896844 L79.3419442,407.970124 L84.8367242,237 L-15,237 Z" id="矩形" stroke="#FFFFFF" stroke-width="10" fill="#F7F7F7" fill-rule="nonzero" mask="url(#mask-2)"></path>
                        <line x1="706.885759" y1="290.876128" x2="692.181377" y2="-2.67203651" id="路径" stroke="#FFFFFF" stroke-width="10" fill="#F7F7F7" fill-rule="nonzero" mask="url(#mask-2)" transform="translate(699.533568, 144.102046) rotate(-6.000000) translate(-699.533568, -144.102046) "></line>
                        <path d="M113.596083,23.6784515 L142.725826,157.116721 C150.354372,189.436784 138.168057,213.130999 106.166882,228.199365 C74.1657068,243.267732 36.5684476,255.125339 -6.62489582,263.772188 L-18.6248958,52.0308733 L113.596083,23.6784515 Z" id="路径-6" stroke="#FFFFFF" stroke-width="10" fill="#F7F7F7" fill-rule="nonzero" mask="url(#mask-2)"></path>
                        <path d="M543.701369,133.568405 L479.072701,139.269728 C476.599533,139.487902 474.155568,139.961336 471.779831,140.68247 L425.221628,154.8148 C411.787697,158.892551 397.645682,160.095927 383.715913,158.346616 L337.623105,152.558246 L379.164781,366.585983 L407,542.066667" id="路径" stroke="#FFFFFF" stroke-width="10" fill="#F7F7F7" fill-rule="nonzero" mask="url(#mask-2)"></path>
                        <line x1="314" y1="43" x2="337.623105" y2="154.503254" id="路径-9" stroke="#FFFFFF" stroke-width="10" fill-rule="nonzero" mask="url(#mask-2)"></line>
                        <polyline id="路径-10" stroke="#FFFFFF" stroke-width="10" fill-rule="nonzero" mask="url(#mask-2)" points="172 31.9207787 228 184 268 377.413913"></polyline>
                        <line x1="78.0878369" y1="408.265773" x2="78.0878369" y2="639.170309" id="路径-10备份" stroke="#FFFFFF" stroke-width="10" fill-rule="nonzero" mask="url(#mask-2)"></line>
                        <polyline id="路径-11" stroke="#FFFFFF" stroke-width="10" fill-rule="nonzero" mask="url(#mask-2)" points="750 283.607143 556.329932 345.158604 83.1153474 408.265773"></polyline>
                        <polyline id="路径-7" stroke="#FFFFFF" stroke-width="10" fill-rule="nonzero" mask="url(#mask-2)" points="457 43 506.75602 133.568405 534.286451 262 626.430847 253"></polyline>
                        <polyline id="路径-12" stroke="#FFFFFF" stroke-width="10" fill-rule="nonzero" mask="url(#mask-2)" points="540 133.568405 605 139 637.939792 315.190309 654.811501 511.229136"></polyline>
                        <line x1="144.928518" y1="187.25" x2="336" y2="151" id="路径-2" stroke="#FFFFFF" stroke-width="10" fill-rule="nonzero" mask="url(#mask-2)"></line>
                        <mask id="mask-5" fill="white">
                            <use xlink:href="#path-4"></use>
                        </mask>
                        <use id="Mask" fill="url(#linearGradient-3)" fill-rule="nonzero" xlink:href="#path-4"></use>
                        <mask id="mask-8" fill="white">
                            <use xlink:href="#path-7"></use>
                        </mask>
                        <use id="Mask备份" fill="url(#linearGradient-6)" fill-rule="nonzero" transform="translate(375.000000, 150.000000) scale(1, -1) translate(-375.000000, -150.000000) " xlink:href="#path-7"></use>
                    </g>
                </g>
                <rect id="矩形" fill="url(#linearGradient-9)" x="0" y="568" width="750" height="229"></rect>
                <path d="M90,469 C121.918354,335.967618 201.658906,245.277157 329.221657,196.928617 C420.370632,169.274001 509.296747,170.401279 596,200.310451" id="路径-3" stroke="url(#linearGradient-10)" stroke-width="2"></path>
                <g id="分组-25-copy-2" transform="translate(75.000000, 442.000000)" fill-rule="nonzero">
                    <ellipse id="椭圆形" fill="#CEE6FF" cx="19" cy="46" rx="8" ry="2"></ellipse>
                    <path d="M19.351683,45.7400458 C20.4157884,42.9586188 21.6231812,40.968933 22.9738615,39.7709884 C28.7086932,34.6846547 38,29.1885941 38,18.6812277 C38,8.36387052 29.4934102,0 19,0 C8.50658975,0 0,8.36387052 0,18.6812277 C0,29.3090665 9.29565324,34.751231 15.0221349,39.776067 C16.3941908,40.9800097 17.6119354,42.989589 18.6753686,45.8048047 C18.7852259,46.0956286 19.2326627,46.0511486 19.351683,45.7400458 Z" id="椭圆形-copy-9" fill="#2990FF"></path>
                    <ellipse id="椭圆形" fill="#FFFFFF" cx="19" cy="19.2" rx="7.77272727" ry="7.85454545"></ellipse>
                </g>
                <g id="编组-3" transform="translate(143.000000, 336.000000)" fill="#12A0FF" fill-rule="nonzero">
                    <path d="M328.8548,92.7971014 L324.952823,123.021394 L310.866975,123.021394 C311.156783,124.463768 311.510559,125.829653 311.928303,127.119048 C312.346046,128.408443 312.784484,129.621348 313.243615,130.757764 C313.808051,130.408098 314.399767,130.014723 315.018763,129.57764 C315.637759,129.140557 316.305672,128.659765 317.022503,128.135266 C318.35833,127.173683 319.554458,126.28859 320.610889,125.479986 C321.667319,124.671383 322.586872,123.917414 323.369548,123.218081 L326.807248,128.266391 C326.024571,128.965723 325.092789,129.730619 324.0119,130.561077 C322.931011,131.391534 321.701016,132.287555 320.321915,133.249137 C319.56181,133.773637 318.86003,134.265355 318.216575,134.724293 C317.57312,135.18323 316.947537,135.587532 316.339827,135.937198 C318.821653,139.171613 322.515145,141.903382 327.420302,144.132505 L323.029133,150.492063 C320.139081,148.743731 317.53219,146.897055 315.208461,144.952036 C312.884732,143.007016 311.020084,140.941799 309.614517,138.756384 C307.093152,134.822636 305.346914,129.57764 304.375801,123.021394 L301.195126,123.021394 L298.672806,142.559006 C300.17422,141.990798 301.719376,141.335174 303.308273,140.592133 C304.89717,139.849091 306.50535,139.040488 308.132813,138.166322 L309.143445,144.919255 C306.069128,146.274212 303.072419,147.530826 300.153318,148.689096 C297.234217,149.847366 294.23562,150.951001 291.157528,152 L289.308706,145.706004 C290.268256,145.312629 290.915475,144.908328 291.250366,144.493099 C291.585257,144.07787 291.817594,143.36761 291.947378,142.362319 L298.346282,92.7971014 L328.8548,92.7971014 Z M123.286963,89.8467909 C123.66328,90.2838739 124.080994,90.8193007 124.540105,91.4530711 C124.999216,92.0868415 125.475265,92.8408098 125.968253,93.7149758 C126.466883,94.5454336 126.910476,95.2994019 127.299033,95.9768806 C127.687589,96.6543593 128.002293,97.2334944 128.243144,97.7142857 L124.571488,100.008972 L130.218809,100.008972 L129.347001,106.761905 L115.5208,106.761905 C115.383585,110.171153 115.280227,113.31815 115.210725,116.202899 C115.141224,119.087647 115.140389,121.775707 115.208222,124.267081 C116.350207,122.125374 117.441388,119.874396 118.481765,117.514148 C119.522141,115.153899 120.552165,112.706234 121.571838,110.171153 L127.673601,111.679089 C123.892149,120.857833 120.057011,128.441224 116.168188,134.429262 L116.012972,134.625949 C116.212456,135.762365 116.420404,136.833218 116.636816,137.838509 C116.853228,138.8438 117.118558,139.805383 117.432804,140.723257 C117.799743,141.903382 118.105049,142.722912 118.348721,143.18185 C118.592394,143.640787 118.892971,143.826547 119.250452,143.73913 C119.559016,143.695422 119.821475,143.422245 120.037827,142.9196 C120.25418,142.416954 120.555184,141.510007 120.94084,140.198758 C121.243722,139.193467 121.522612,138.122613 121.77751,136.986197 C122.032408,135.849781 122.265202,134.800782 122.475892,133.839199 L128.292616,135.543823 C128.021723,136.636531 127.715553,137.751093 127.374106,138.887509 C127.032659,140.023925 126.628654,141.225903 126.162092,142.493444 C125.426505,144.504026 124.778858,146.001035 124.219151,146.984472 C123.659443,147.967909 123.058806,148.765585 122.417239,149.377502 C121.226296,150.557626 119.851884,151.147688 118.294002,151.147688 C116.773752,151.191396 115.409175,150.699678 114.200271,149.672533 C112.991367,148.645388 111.916478,146.58017 110.975606,143.476881 L110.569148,142.100069 C109.240871,143.673568 107.826045,145.247067 106.324671,146.820566 C104.823296,148.394065 103.213735,149.967564 101.495988,151.541063 L97.1551871,146.951691 C101.981068,142.755694 105.971561,138.494134 109.126665,134.167012 C108.71824,130.626639 108.493711,126.583621 108.453079,122.037957 C108.412448,117.492294 108.539718,112.400276 108.834891,106.761905 L97.2156893,106.761905 L96.2592393,114.170462 L107.294235,114.170462 C107.012096,116.355878 106.7403,118.377387 106.478845,120.23499 C106.217389,122.092593 105.945583,123.862779 105.663424,125.545549 C105.381266,127.228318 105.101929,128.889234 104.825413,130.528295 C104.548897,132.167357 104.232872,133.861054 103.877338,135.609386 C103.587649,137.182885 103.246678,138.483207 102.854426,139.510352 C102.462174,140.537497 101.985718,141.378882 101.425057,142.034507 C100.864395,142.690131 100.173434,143.18185 99.3521724,143.509662 C98.5309108,143.837474 97.5276101,144.066943 96.3422705,144.198068 C95.7684165,144.285484 95.1000163,144.351047 94.3370699,144.394755 C93.5741235,144.438463 92.7815426,144.460317 91.9593272,144.460317 L91.7304376,137.182885 C92.5846419,137.270301 93.3132548,137.324937 93.9162763,137.346791 C94.5192979,137.368645 95.1453673,137.379572 95.7944847,137.379572 C96.5734256,137.379572 97.0851892,137.270301 97.3297756,137.05176 C97.5743619,136.833218 97.7963573,136.286865 97.9957617,135.412698 C98.4622839,133.139867 98.9010492,130.746837 99.3120576,128.233609 C99.723066,125.720382 100.050824,123.349206 100.295331,121.120083 L95.2971266,121.120083 C94.32653,127.63262 93.053906,132.965033 91.4792548,137.117322 C90.6289049,139.346446 89.4845747,141.673913 88.0462639,144.099724 C86.6079532,146.525535 84.8671979,149.115252 82.8239979,151.868875 L76.8858553,148.590752 C80.2347608,144.438463 82.6918501,140.657695 84.2571233,137.248447 C83.2053822,137.68553 82.0209962,138.144467 80.7039654,138.625259 C79.3869346,139.10605 77.8450672,139.652404 76.0783631,140.26432 C74.2683845,140.876236 72.6658374,141.389809 71.2707218,141.805038 C69.8756061,142.220267 68.6418261,142.559006 67.5693816,142.821256 L66.9030381,135.412698 C67.791099,135.237865 68.8174477,134.99747 69.9820839,134.691511 C71.1467201,134.385553 72.449644,134.014033 73.8908555,133.57695 L76.5570657,112.924776 L71.1044795,112.924776 L71.9847521,106.10628 L77.4373383,106.10628 L79.3925591,90.9613527 L86.0784684,90.9613527 L84.1232476,106.10628 L88.7319811,106.10628 L87.8517086,112.924776 L83.242975,112.924776 L80.8814745,131.216701 C81.6509976,130.954451 82.3556089,130.692202 82.9953084,130.429952 C83.635008,130.167702 84.2502489,129.927306 84.8410311,129.708765 L84.9146453,135.674948 L85.2109504,134.888199 C85.9578229,132.7902 86.6501156,130.276973 87.2878283,127.348516 C87.9255411,124.42006 88.4955008,121.010812 88.9977076,117.120773 L91.2068532,100.008972 L109.187405,100.008972 C109.296446,97.8235565 109.414904,95.9003911 109.542781,94.2394755 C109.670657,92.5785599 109.77785,91.2454566 109.864359,90.2401656 L116.745004,90.2401656 C116.66978,91.15804 116.546593,92.447435 116.375442,94.1083506 C116.204291,95.7692662 116.058553,97.7361399 115.938226,100.008972 L121.845195,100.008972 L120.383161,97.2553485 C119.933448,96.3811824 119.512902,95.6162871 119.121524,94.9606625 C118.730147,94.305038 118.370758,93.73683 118.043358,93.2560386 L123.286963,89.8467909 Z M156.422305,90.2401656 L154.751945,100.664596 L168.837793,100.664596 C168.42587,103.855303 167.945281,107.242696 167.396025,110.826777 C166.846768,114.410858 166.303155,117.951231 165.765184,121.447895 C165.227213,124.944559 164.699584,128.277318 164.182297,131.44617 C163.665009,134.615022 163.191921,137.357718 162.76303,139.674258 C162.456413,141.378882 162.061826,142.84311 161.57927,144.066943 C161.096714,145.290775 160.455633,146.31792 159.656029,147.148378 C158.856424,147.978836 157.873837,148.634461 156.708267,149.115252 C155.542696,149.596043 154.148048,149.923856 152.52432,150.098689 C151.560996,150.186105 150.523352,150.262595 149.411388,150.328157 C148.299424,150.39372 147.310698,150.426501 146.445208,150.426501 L146.221921,142.100069 C147.032851,142.187486 147.803328,142.253048 148.533351,142.296756 C149.263375,142.340465 149.999041,142.340465 150.74035,142.296756 C151.649115,142.296756 152.390424,142.253048 152.964278,142.165631 C153.538132,142.078215 154.003323,141.826892 154.359851,141.411663 C154.716378,140.996434 155.01175,140.384518 155.245964,139.575914 C155.480179,138.767311 155.733667,137.641822 156.006427,136.199448 C156.339391,134.625949 156.690216,132.746492 157.058904,130.561077 C157.427591,128.375661 157.806621,126.02634 158.195992,123.513112 C158.585363,120.999885 158.98602,118.399241 159.397962,115.71118 C159.809904,113.023119 160.182337,110.389694 160.515261,107.810904 L153.634617,107.810904 C152.778743,113.099609 151.904501,117.776398 151.01189,121.84127 C150.119279,125.906142 149.18384,129.380952 148.205574,132.2657 C147.204737,135.325282 145.916973,138.428571 144.342282,141.575569 C142.767591,144.722567 140.7564,148.066253 138.308709,151.606625 L131.738377,148.197378 C134.011103,145.006671 135.969621,141.903382 137.613933,138.887509 C139.258245,135.871636 140.539432,132.986888 141.457495,130.233264 C142.315355,127.610766 143.16802,124.441914 144.015489,120.726708 C144.862958,117.011502 145.710874,112.706234 146.559237,107.810904 L139.159298,107.810904 L140.081892,100.664596 L147.676565,100.664596 L149.15219,90.2401656 L156.422305,90.2401656 Z M393.762919,90.436853 L392.230906,102.303658 L398.916816,102.303658 L397.943437,109.84334 L391.257528,109.84334 L387.152411,141.641132 C386.932343,143.345756 386.588084,144.755349 386.119635,145.86991 C385.651185,146.984472 385.027033,147.880492 384.247178,148.557971 C383.467323,149.23545 382.513894,149.749022 381.386889,150.098689 C380.259884,150.448355 378.952252,150.688751 377.463991,150.819876 C375.840263,150.994709 374.258867,151.093053 372.719801,151.114907 C371.180735,151.136761 369.870271,151.147688 368.788408,151.147688 L368.271618,143.083506 C369.385469,143.170922 370.596688,143.258339 371.905275,143.345756 C373.213861,143.433172 374.430723,143.476881 375.55586,143.476881 C376.378075,143.476881 377.043654,143.433172 377.552596,143.345756 C378.061538,143.258339 378.45994,143.10536 378.747801,142.886818 C379.035662,142.668277 379.240262,142.340465 379.361601,141.903382 C379.482941,141.466299 379.591574,140.876236 379.687501,140.133195 L383.597943,109.84334 L365.292832,109.84334 L366.26621,102.303658 L384.571321,102.303658 L386.103334,90.436853 L393.762919,90.436853 Z M43.5675819,89.7812284 L50.2422254,90.3712905 C49.8960692,91.3765816 49.5296864,92.3709455 49.143077,93.3543823 C48.7564677,94.3378192 48.3552746,95.2666207 47.9394977,96.1407867 L63.9077858,96.1407867 L63.0359774,102.89372 L53.9483337,102.89372 C54.881656,105.385093 56.1263539,107.559581 57.6824276,109.417184 C59.2385012,111.274787 61.1972084,112.94663 63.5585493,114.432712 L59.7402605,119.874396 L60.3893779,119.874396 L59.5175695,126.627329 L37.382666,126.627329 L36.2680199,130.233264 L56.001189,130.233264 C55.3954652,133.249137 54.801017,135.926271 54.2178444,138.264665 C53.6346719,140.60306 53.0373824,142.799402 52.4259762,144.853692 C52.1287372,145.815275 51.7741069,146.634806 51.3620852,147.312284 C50.9500635,147.989763 50.3992773,148.568898 49.7097267,149.049689 C49.020176,149.530481 48.1377677,149.912928 47.0625019,150.197032 C45.987236,150.481136 44.6405608,150.688751 43.0224762,150.819876 C42.4975395,150.863584 41.8860538,150.907292 41.1880192,150.951001 C40.4899845,150.994709 39.7825419,151.02749 39.0656913,151.049344 C38.3488408,151.071199 37.6428089,151.093053 36.9475956,151.114907 C36.2523823,151.136761 35.6451287,151.147688 35.1258348,151.147688 L34.6683533,144.132505 C35.6091066,144.219922 36.7163714,144.274557 37.9901475,144.296411 C39.2639237,144.318265 40.4201057,144.329193 41.4586936,144.329193 C42.280909,144.329193 42.9558957,144.296411 43.4836538,144.230849 C44.0114119,144.165286 44.4380372,144.045089 44.7635297,143.870255 C45.0890223,143.695422 45.3472486,143.455026 45.5382087,143.149068 C45.7291689,142.84311 45.9205959,142.449735 46.1124899,141.968944 C46.3758723,141.269611 46.6383108,140.493789 46.8998056,139.641477 C47.1613004,138.789165 47.4274942,137.816655 47.698387,136.723948 L27.3161006,136.723948 L30.631845,126.627329 L26.3476702,126.627329 L27.2194786,119.874396 L58.8964079,119.874396 C57.7486603,119.043938 56.6714672,118.169772 55.6648285,117.251898 C54.6581899,116.334023 53.7277486,115.328732 52.8735046,114.236025 L52.6111157,116.268461 L34.6954753,116.268461 L34.9747926,114.1049 C33.94753,115.022774 32.8567663,115.929722 31.7025016,116.825742 C30.548237,117.721762 29.3521085,118.606855 28.1141162,119.481021 L26.1101377,114.891649 L21.6961394,114.891649 L20.7142969,122.496894 L25.9721479,122.496894 L25.0664828,129.512077 L19.8086318,129.512077 L18.6321137,138.625259 C19.6556409,138.406717 20.6777574,138.199103 21.6984633,138.002415 C22.7191691,137.805728 23.6980111,137.598114 24.6349893,137.379572 L24.5336577,144.198068 C22.7086185,144.591442 20.7104813,144.984817 18.5392462,145.378192 C16.368011,145.771567 14.17796,146.143087 11.9690932,146.492754 C9.76022629,146.84242 7.61909255,147.170232 5.54569194,147.47619 C3.47229134,147.782149 1.62372735,148.022544 0,148.197378 L0.0364199458,141.378882 C0.431533161,141.335174 0.857691553,141.302392 1.31489512,141.280538 C1.77209869,141.258684 2.24435296,141.204049 2.73165794,141.116632 L5.69411371,118.169772 L11.860729,118.169772 L9.00830735,140.26432 C9.53888681,140.176904 10.0680556,140.100414 10.5958137,140.034852 C11.1235718,139.969289 11.6743778,139.8928 12.2482317,139.805383 L15.4646123,114.891649 L6.70152734,114.891649 L9.52009239,93.0593513 L29.0585262,93.0593513 L26.5192784,112.728088 C30.4609133,110.018173 33.7411916,107.067863 36.3601132,103.877157 C36.4692332,103.702323 36.5971692,103.549344 36.743921,103.418219 C36.8906728,103.287095 37.0214301,103.112261 37.136193,102.89372 L29.4766076,102.89372 L30.348416,96.1407867 L40.9939414,96.1407867 C41.8913408,94.2176213 42.749221,92.0977686 43.5675819,89.7812284 Z M224.010521,132.986888 L223.003286,140.78882 C222.817074,142.231194 222.924357,143.159995 223.325132,143.575224 C223.725908,143.990453 224.588587,144.26363 225.913168,144.394755 C226.253721,144.438463 226.812057,144.471245 227.588177,144.493099 C228.267281,144.512221 229.079994,144.522977 230.026315,144.525368 L230.440061,144.52588 C231.565198,144.52588 232.518648,144.514953 233.30041,144.493099 C234.082172,144.471245 234.67061,144.438463 235.065723,144.394755 C235.850307,144.351047 236.489072,144.26363 236.98202,144.132505 C237.474968,144.00138 237.877601,143.81562 238.189921,143.575224 C238.50224,143.334829 238.747294,143.02887 238.925081,142.65735 C239.102868,142.285829 239.271714,141.815965 239.431619,141.247757 C239.614095,140.504716 239.815854,139.696112 240.036896,138.821946 C240.257937,137.94778 240.391963,137.161031 240.438973,136.461698 L247.113676,138.559696 C246.880415,139.696112 246.636802,140.745112 246.382838,141.706694 C246.128873,142.668277 245.89748,143.455026 245.688658,144.066943 C245.237156,145.553025 244.744248,146.689441 244.209933,147.47619 C243.675619,148.26294 243.055689,148.874856 242.350143,149.311939 C241.031245,150.142397 238.907993,150.666897 235.980388,150.885438 C235.468998,150.924776 234.732053,150.946411 233.769553,150.950345 L224.904472,150.951001 C223.800973,150.951001 222.97076,150.929147 222.413835,150.885438 C219.363917,150.710605 217.352567,150.033126 216.379785,148.853002 C215.40136,147.716586 215.12093,145.531171 215.538495,142.296756 L216.740406,132.986888 L224.010521,132.986888 Z M295.947349,92.2726018 L295.061414,98.6321601 C294.133933,101.123533 293.16882,103.571199 292.166076,105.975155 C291.163331,108.379112 290.060865,110.717506 288.858676,112.990338 C290.072349,115.656545 290.879146,118.28997 291.279067,120.890614 C291.678989,123.491258 291.739768,126.037267 291.461404,128.52864 C291.207479,130.495514 290.8891,132.123648 290.506266,133.413043 C290.123431,134.702438 289.610764,135.740511 288.968263,136.52726 C288.325762,137.31401 287.535555,137.904072 286.597643,138.297447 C285.659731,138.690821 284.530372,138.974925 283.209566,139.149758 C282.592437,139.237175 281.838899,139.29181 280.94895,139.313665 C280.059002,139.335519 279.335565,139.324592 278.778639,139.280883 L278.312694,132.331263 C278.820702,132.41868 279.418081,132.484242 280.10483,132.52795 C280.791579,132.571659 281.310873,132.571659 281.662712,132.52795 C282.230923,132.484242 282.704588,132.41868 283.083707,132.331263 C283.462825,132.243846 283.772323,132.025305 284.012201,131.675638 C284.252078,131.325972 284.448204,130.812399 284.600579,130.134921 C284.752954,129.457442 284.905318,128.52864 285.057673,127.348516 C285.315373,125.687601 285.205697,123.687946 284.728644,121.349551 C284.251592,119.011157 283.330032,116.596273 281.963965,114.1049 C283.183082,111.700943 284.329756,109.187716 285.403989,106.565217 C286.478222,103.942719 287.465906,101.320221 288.367041,98.6977226 L282.070602,98.6977226 L275.333131,150.885438 L269.036692,150.885438 L276.60365,92.2726018 L295.947349,92.2726018 Z M420.811459,110.826777 L417.527365,136.26501 C419.546285,138.057051 422.042149,139.422935 425.014955,140.362664 C427.987762,141.302392 431.729148,141.903382 436.239113,142.165631 C438.088631,142.253048 440.061385,142.307683 442.157377,142.329538 C444.253368,142.351392 446.386048,142.340465 448.555415,142.296756 C450.724783,142.253048 452.876745,142.176559 455.011302,142.067288 C457.145859,141.958017 459.200921,141.794111 461.176487,141.575569 L459.319737,148.918565 C456.170117,149.180814 452.544944,149.355648 448.444219,149.443064 C444.343494,149.530481 439.71359,149.443064 434.554507,149.180814 C429.395424,148.918565 425.100401,148.164596 421.669437,146.91891 C418.238473,145.673223 415.303736,143.935818 412.865224,141.706694 L405.680108,150.098689 L400.698653,145.443754 L410.573285,134.822636 L412.757038,117.907522 L405.3571,117.907522 L406.271229,110.826777 L420.811459,110.826777 Z M208.897351,132.396825 L214.660488,135.019324 C214.092317,136.068323 213.476639,137.150104 212.813454,138.264665 C212.150269,139.379227 211.27872,140.766966 210.198804,142.427881 C209.130175,144.00138 208.162668,145.378192 207.296284,146.558316 C206.4299,147.73844 205.637359,148.765585 204.91866,149.639752 L199.575989,145.771567 C200.19121,145.028525 200.901911,144.132505 201.708092,143.083506 C202.514274,142.034507 203.418756,140.810674 204.42154,139.412008 C205.424324,138.013343 206.293997,136.723948 207.030557,135.543823 C207.767118,134.363699 208.389382,133.3147 208.897351,132.396825 Z M252.436141,131.020014 C253.026963,131.806763 253.661536,132.757419 254.339861,133.871981 C255.018186,134.986542 255.759077,136.286865 256.562537,137.772947 C257.365996,139.259029 258.034922,140.613987 258.569317,141.837819 C259.103711,143.061652 259.549669,144.132505 259.90719,145.05038 L253.289172,149.049689 C252.942937,148.044398 252.524259,146.929837 252.033139,145.706004 C251.54202,144.482172 250.913546,143.149068 250.147719,141.706694 C249.430809,140.220612 248.74401,138.92029 248.087322,137.805728 C247.430635,136.691166 246.852976,135.718657 246.354346,134.888199 L252.436141,131.020014 Z M196.371517,97.0586611 L189.84565,147.607315 L166.412512,147.607315 L172.938379,97.0586611 L196.371517,97.0586611 Z M365.724028,94.4361629 L359.138912,145.443754 L337.133832,145.443754 L343.718948,94.4361629 L365.724028,94.4361629 Z M226.681441,88.6666667 L233.395663,90.9613527 C232.464367,92.1414769 231.541536,93.2560386 230.627168,94.305038 L253.995395,94.305038 L253.284406,99.8122843 C252.332406,100.817575 251.378053,101.757304 250.421345,102.63147 C249.464637,103.505636 248.49711,104.379802 247.518765,105.253968 L259.137966,105.253968 L255.921586,130.167702 L233.916506,130.167702 L235.759546,132.986888 C236.408703,133.992179 236.973189,134.899126 237.453003,135.707729 C237.932817,136.516333 238.32796,137.226593 238.638432,137.838509 L232.692123,142.165631 C232.392937,141.466299 232.006258,140.690476 231.532087,139.838164 C231.057915,138.985852 230.520709,138.035197 229.920469,136.986197 C229.32023,135.937198 228.767973,135.019324 228.2637,134.232574 C227.759427,133.445825 227.305959,132.768346 226.903296,132.200138 L229.827066,130.167702 L208.925486,130.167702 L209.729581,123.939268 L249.97486,123.939268 L250.448853,120.267771 L212.800043,120.267771 L213.519497,114.694962 L251.168306,114.694962 L251.616907,111.220152 L213.189156,111.220152 L213.366904,109.84334 C212.75355,110.236715 212.151016,110.63009 211.559299,111.023464 C210.967583,111.416839 210.36787,111.78836 209.760159,112.138026 L206.009167,106.499655 C208.027968,105.275822 210.01619,103.953646 211.973835,102.533126 C213.931479,101.112606 215.809628,99.6374511 217.608281,98.1076605 C219.406935,96.5778698 221.069178,95.0152979 222.595011,93.4199448 C224.120844,91.8245917 225.482988,90.2401656 226.681441,88.6666667 Z M188.300168,104.270531 L179.342348,104.270531 L174.687061,140.329883 L183.644881,140.329883 L188.300168,104.270531 Z M449.45083,90.1090407 L447.707153,102.10697 L464,102.10697 L463.077407,109.253278 L446.589825,109.253278 C446.160934,111.569818 445.619149,113.755233 444.964468,115.809524 C445.927832,116.727398 447.119341,117.973085 448.538994,119.546584 C449.958648,121.120083 451.396651,122.802853 452.853002,124.594893 C454.309354,126.386934 455.702204,128.168047 457.031554,129.938233 C458.360903,131.70842 459.416956,133.249137 460.199712,134.560386 L453.940169,139.805383 C453.270309,138.625259 452.442868,137.324937 451.457847,135.904417 C450.472825,134.483897 449.414895,133.041523 448.284056,131.577295 C447.153217,130.113066 445.997919,128.670692 444.818163,127.250173 C443.638406,125.829653 442.518863,124.529331 441.459532,123.349206 C439.707968,126.190246 437.433811,128.889234 434.637063,131.44617 C431.840315,134.003106 428.311198,136.702093 424.049713,139.543133 L419.618549,133.642512 C422.771864,131.675638 425.450105,129.785254 427.653269,127.97136 C429.856434,126.157465 431.700229,124.278008 433.184656,122.332988 C434.669082,120.387969 435.872691,118.355533 436.795483,116.23568 C437.718275,114.115827 438.451498,111.78836 438.995151,109.253278 L424.974215,109.253278 L425.896808,102.10697 L440.11248,102.10697 L441.726332,90.1090407 L449.45083,90.1090407 Z M355.127617,123.218081 L346.883826,123.218081 L345.004783,137.772947 L353.248574,137.772947 L355.127617,123.218081 Z M371.535744,112.269151 C372.141626,113.274442 372.768213,114.454566 373.415502,115.809524 C374.062791,117.164481 374.746779,118.73798 375.467464,120.530021 C376.888131,123.939268 377.881676,126.802162 378.448099,129.118703 L371.686131,132.724638 C371.400098,131.588222 371.005402,130.2879 370.502043,128.823671 C369.998684,127.359443 369.389484,125.709455 368.674441,123.873706 C367.959399,122.037957 367.29987,120.442604 366.695855,119.087647 C366.09184,117.732689 365.524523,116.596273 364.993904,115.678399 L371.535744,112.269151 Z M319.750943,111.023464 L302.744067,111.023464 L302.024613,116.596273 L319.031489,116.596273 L319.750943,111.023464 Z M357.853077,102.10697 L349.609286,102.10697 L347.814884,116.006211 L356.058675,116.006211 L357.853077,102.10697 Z M47.132601,102.89372 L44.4712196,102.89372 C43.4402217,104.510927 42.4289734,105.975155 41.4374748,107.286404 C41.0781256,107.723487 40.7310058,108.149643 40.3961152,108.564872 C40.0612247,108.980101 39.6952889,109.384403 39.298308,109.777778 L49.9438335,109.777778 C48.7866283,107.679779 47.8495508,105.385093 47.132601,102.89372 Z M21.8733507,99.9434092 L14.9277945,99.9434092 L13.895167,107.942029 L20.8407233,107.942029 L21.8733507,99.9434092 Z M416.026946,90.5679779 C416.677971,91.2236025 417.384976,92.0322061 418.147962,92.9937888 C418.910948,93.9553715 419.751552,95.0699333 420.669774,96.3374741 C422.555135,98.8288475 423.91554,100.861284 424.750988,102.434783 L418.434998,107.614217 C417.535572,105.865885 416.229728,103.746032 414.517464,101.254658 C413.642517,99.9871176 412.83578,98.8616287 412.097252,97.8781919 C411.358725,96.894755 410.688407,96.0533701 410.0863,95.3540373 L416.026946,90.5679779 Z M243.415019,100.336784 L225.044997,100.336784 C223.310322,102.041408 221.475924,103.680469 219.541804,105.253968 L238.04165,105.253968 C238.959793,104.510927 239.87276,103.724178 240.78055,102.89372 C241.688341,102.063262 242.566498,101.21095 243.415019,100.336784 Z M321.308348,98.9599724 L304.301472,98.9599724 L303.556626,104.729469 L320.563502,104.729469 L321.308348,98.9599724 Z" id="形状结合"></path>
                    <path d="M271.828191,0.399159664 L278.800786,2.39495798 C278.369107,3.28197946 277.977335,4.09138655 277.62547,4.82317927 C277.273606,5.55497199 276.912189,6.27567694 276.541221,6.98529412 L297.682174,6.98529412 L296.980117,13.9040616 L272.507862,13.9040616 C271.646799,15.2345938 270.76438,16.5651261 269.860608,17.8956583 C268.956835,19.2261905 267.967644,20.5567227 266.893035,21.8872549 C271.474193,21.355042 276.001987,20.6121615 280.476417,19.6586134 C284.950847,18.7050654 289.004386,17.5852007 292.637034,16.2990196 L294.224454,22.7521008 C292.538507,23.3730159 290.805924,23.9274043 289.026706,24.4152661 C287.247488,24.9031279 285.241797,25.4131653 283.009634,25.9453782 C282.70167,26.0340803 282.329643,26.1227824 281.893552,26.2114846 C281.936083,27.8968254 282.020772,29.4823763 282.147618,30.9681373 C282.274465,32.4538982 282.438968,33.8842204 282.641129,35.2591036 C284.221451,34.4164332 285.86866,33.4407096 287.582756,32.3319328 C289.296853,31.2231559 290.962063,30.070028 292.578388,28.872549 L295.565145,34.7934174 C294.827797,35.3256303 293.988728,35.913282 293.047938,36.5563725 C292.107149,37.1994631 291.134327,37.8425537 290.129474,38.4856443 C289.124621,39.1287348 288.100663,39.7496499 287.057602,40.3483894 C286.01454,40.9471289 285.041167,41.4904295 284.137483,41.9782913 L284.579044,43.3088235 C285.441958,45.7481326 286.667347,48.0876517 288.255211,50.327381 C289.843075,52.5671102 291.819269,54.6626984 294.183793,56.6141457 L288.764731,62.6680672 C286.422709,60.4948646 284.408329,58.1442577 282.72159,55.6162465 C281.034851,53.0882353 279.680255,50.3384687 278.6578,47.3669468 C276.848849,42.0448179 275.813293,35.4143324 275.551133,27.4754902 C274.072025,27.7415966 272.727794,27.9411765 271.518441,28.0742297 L268.905981,53.820028 C270.463801,53.199113 271.840108,52.5781979 273.034901,51.9572829 C274.229695,51.3363679 275.555439,50.5823996 277.012134,49.6953782 L277.955477,56.8137255 C275.248925,58.2329599 272.561501,59.4637021 269.893202,60.5059524 C267.224904,61.5482026 264.438605,62.4906629 261.534304,63.3333333 L259.734442,57.0798319 C260.586416,56.6806723 261.201263,56.0930205 261.578982,55.3168768 C261.956702,54.540733 262.174814,53.8643791 262.233318,53.2878151 L265.223809,23.8165266 L264.431354,24.6813725 L259.451744,20.0910364 C259.928338,19.6031746 260.385827,19.0931373 260.824213,18.5609244 C261.262598,18.0287115 261.700983,17.4964986 262.139369,16.9642857 L251.312638,16.9642857 L250.603831,23.9495798 L261.558689,23.9495798 C260.946639,29.9813259 260.332958,35.5030345 259.717645,40.5147059 C259.102331,45.5263772 258.478635,50.0945378 257.846557,54.2191877 C257.540621,56.3923903 256.845297,58.0888189 255.760585,59.3084734 C254.675872,60.5281279 252.770181,61.3153595 250.043511,61.6701681 C248.483486,61.8919234 247.003275,61.95845 245.602879,61.8697479 L244.871978,54.5518207 C245.58903,54.6405229 246.277426,54.6959617 246.937165,54.7181373 C247.596904,54.7403128 248.161674,54.7514006 248.631473,54.7514006 C249.741906,54.7514006 250.507889,54.4631186 250.92942,53.8865546 C251.350951,53.3099907 251.698934,52.0903361 251.973367,50.227591 C252.432226,47.3891223 252.867503,44.3621615 253.279197,41.1467087 C253.690891,37.9312558 254.081253,34.5051354 254.450283,30.8683473 L249.773648,30.8683473 C249.242783,34.4164332 248.67543,37.587535 248.07159,40.3816527 C247.46775,43.1757703 246.822921,45.6372549 246.137105,47.7661064 C245.325367,50.2941176 244.343919,52.8110411 243.192759,55.3168768 C242.0416,57.8227124 240.66902,60.4061625 239.075019,63.0672269 L233.319764,59.807423 C234.875556,57.1020075 236.200927,54.5629085 237.295876,52.1901261 C238.390825,49.8173436 239.278958,47.5887021 239.960274,45.5042017 C240.64609,43.3753501 241.283065,40.7808123 241.871199,37.7205882 C242.459332,34.6603641 242.964916,31.0457516 243.38795,26.8767507 L244.393781,16.9642857 L240.101527,16.9642857 L240.823835,9.84593838 L250.241168,9.84593838 L249.749179,7.11834734 C249.387477,5.21125117 249.032482,3.65896359 248.684193,2.46148459 L255.52231,0.731792717 C255.72006,1.30835668 255.91611,2.00688609 256.110462,2.82738095 C256.304814,3.64787582 256.521071,4.5681606 256.759235,5.58823529 C256.925482,6.47525677 257.0805,7.26248833 257.224289,7.94992997 C257.368079,8.63737162 257.45343,9.26937442 257.480343,9.84593838 L263.886693,9.84593838 L263.312897,15.5007003 C265.03723,13.2387955 266.592426,10.8549253 267.978485,8.34908964 C269.364544,5.84325397 270.647779,3.19327731 271.828191,0.399159664 Z M215.709363,0.864845938 L214.629276,11.5091036 L221.420007,11.5091036 L219.88275,8.98109244 C218.705077,7.11834734 217.738655,5.69911298 216.983483,4.72338936 L221.576203,1.13095238 C222.464002,2.06232493 223.520343,3.43720822 224.745225,5.25560224 C226.012816,7.07399627 226.953383,8.5375817 227.566927,9.64635854 L225.135689,11.5091036 L231.157658,11.5091036 L230.448851,18.4943978 L213.920469,18.4943978 L213.67745,20.8893557 C214.178396,23.9495798 214.95695,27.0098039 216.013113,30.070028 L218.731049,27.2759104 C219.830365,26.1227824 220.87517,24.9807423 221.865464,23.8497899 C222.855757,22.7188375 223.767935,21.6211485 224.601997,20.5567227 L229.190475,25.2135854 L223.140837,31.7997199 C222.324777,32.6867414 221.536822,33.5072362 220.776972,34.2612045 C220.017122,35.0151727 219.283127,35.7247899 218.574986,36.390056 C220.053739,39.4946312 221.676943,42.3330999 223.444599,44.9054622 C225.212256,47.4778245 227.173824,49.7175537 229.329303,51.6246499 L223.923742,57.5455182 C218.976827,52.001634 215.261767,46.1029412 212.778561,39.8494398 C212.601019,39.4946312 212.456634,39.1287348 212.345405,38.7517507 C212.234177,38.3747666 212.111146,38.0088702 211.976313,37.6540616 L210.302178,54.1526611 C210.144666,55.7049486 209.875351,56.9911298 209.494234,58.0112045 C209.113117,59.0312792 208.601645,59.8628618 207.959819,60.5059524 C207.317992,61.149043 206.510403,61.6369048 205.537053,61.9695378 C204.563702,62.3021709 203.408287,62.535014 202.070807,62.6680672 C200.647909,62.8011204 199.378993,62.8898226 198.264058,62.9341737 C197.149124,62.9785247 196.188172,62.9785247 195.381201,62.9341737 L194.741366,55.3501401 C195.624754,55.4831933 196.50084,55.5829832 197.369624,55.6495098 C198.238408,55.7160364 199.185308,55.7492997 200.210323,55.7492997 C200.936376,55.7492997 201.516323,55.7160364 201.950164,55.6495098 C202.384004,55.5829832 202.729625,55.4388422 202.987026,55.2170868 C203.244428,54.9953315 203.425412,54.6848739 203.529978,54.2857143 C203.634545,53.8865546 203.718331,53.3765173 203.781336,52.7556022 L204.874924,41.9782913 L201.310662,44.9054622 C199.590918,46.2803455 198.089241,47.4002101 196.805632,48.265056 C195.522023,49.129902 194.286749,49.9393091 193.099809,50.6932773 L190.005176,44.5728291 C191.187616,43.863212 192.513934,42.998366 193.98413,41.9782913 C195.454326,40.9582166 197.094256,39.7385621 198.903918,38.3193277 C200.250488,37.254902 201.504889,36.2570028 202.667121,35.3256303 C203.829354,34.3942577 204.880313,33.5072362 205.82,32.6645658 L207.257866,18.4943978 L193.932659,18.4943978 L194.641466,11.5091036 L207.966673,11.5091036 L209.04676,0.864845938 L215.709363,0.864845938 Z M165.389603,4.78991597 L164.626791,12.307423 L151.878156,12.307423 C150.992296,14.3032213 150.082279,16.2214052 149.148107,18.0619748 C148.213934,19.9025444 147.229751,21.7098506 146.195557,23.4838936 L148.181525,23.4838936 L147.958757,25.6792717 L150.629439,23.3508403 C152.685999,25.3909897 155.077392,28.3403361 157.803617,32.1988796 C160.729886,36.1904762 162.838023,39.405929 164.128027,41.8452381 L157.990899,46.7682073 C156.242391,43.7966853 154.469705,40.9582166 152.672841,38.2528011 C150.875977,35.5473856 149.126851,33.1080766 147.425464,30.9348739 L144.225707,62.4684874 L136.794341,62.4684874 L139.75783,33.2633053 C138.226834,35.3034547 136.614921,37.299253 134.92209,39.2507003 C133.229259,41.2021475 131.335237,43.2422969 129.240024,45.3711485 L123.859224,40.3151261 C128.231693,36.3678805 132.078771,32.0214753 135.400458,27.2759104 C138.722145,22.5303455 141.673526,17.5408497 144.2546,12.307423 L131.570028,12.307423 L132.332839,4.78991597 L165.389603,4.78991597 Z M349.914047,0 L356.070626,2.46148459 C354.782383,4.63468721 353.450329,6.60830999 352.074462,8.38235294 L360.210526,8.38235294 L358.441884,25.8123249 L343.70728,25.8123249 L343.227992,30.5357143 L359.948564,30.5357143 C359.611126,33.0193744 359.298439,35.2591036 359.010505,37.254902 C358.722571,39.2507003 358.444784,40.9360411 358.177146,42.3109244 C357.900507,43.7745098 357.596359,44.9830766 357.264702,45.9366246 C356.933045,46.8901727 356.503064,47.6552288 355.974761,48.2317927 C355.446457,48.8083567 354.784423,49.2296919 353.988659,49.4957983 C353.192895,49.7619048 352.190336,49.9614846 350.980983,50.0945378 C349.728921,50.227591 348.588132,50.3162932 347.558616,50.3606443 C346.5291,50.4049953 345.520938,50.4493464 344.53413,50.4936975 L344.018981,43.57493 C345.248541,43.6636321 346.225222,43.719071 346.949025,43.7412465 C347.672828,43.763422 348.290983,43.7745098 348.803491,43.7745098 C349.790298,43.7301587 350.432632,43.6081933 350.730492,43.4086134 C351.028352,43.2090336 351.258244,42.7322596 351.420169,41.9782913 C351.582093,41.2243231 351.74009,40.4038282 351.894161,39.5168067 C352.048232,38.6297852 352.189375,37.7649393 352.317591,36.9222689 L342.57994,36.9222689 L340.939558,53.0882353 L334.084764,53.0882353 L335.191853,42.1778711 L331.897346,44.9719888 C330.035973,46.4799253 328.235312,47.8104575 326.49536,48.9635854 C324.755409,50.1167134 322.894081,51.2033147 320.911377,52.2233894 C323.127656,53.1104108 325.708108,53.7756769 328.652734,54.2191877 C331.59736,54.6626984 335.08935,54.9731559 339.128703,55.1505602 C340.5291,55.2392624 342.09303,55.2947012 343.820494,55.3168768 C345.547958,55.3390523 347.309704,55.3390523 349.105732,55.3168768 C350.90176,55.2947012 352.712966,55.2281746 354.539349,55.1172969 C356.365732,55.0064192 358.101646,54.8401027 359.74709,54.6183473 L357.922201,61.8697479 C355.465286,62.0915033 352.482385,62.2356443 348.973497,62.3021709 C345.464608,62.3686975 341.882678,62.3132586 338.227706,62.1358543 C334.824487,62.0028011 331.753962,61.7477824 329.01613,61.3707983 C326.278299,60.9938142 323.79842,60.4948646 321.576493,59.8739496 C319.354567,59.2530345 317.384417,58.465803 315.666042,57.5122549 C313.947668,56.5587068 312.406328,55.4388422 311.042024,54.1526611 L304.280804,62.0693277 L299.93177,56.9467787 L308.760098,46.9677871 L310.515239,29.6708683 L304.30108,29.6708683 L304.982885,22.9516807 L317.795584,22.9516807 L315.203376,48.4978992 C316.596888,49.9171335 318.297261,51.0480859 320.304495,51.8907563 L317.250232,46.6351541 C321.163931,44.6837068 324.945047,42.3552754 328.593579,39.6498599 C329.236509,39.2063492 329.83673,38.7628385 330.394241,38.3193277 C330.951753,37.875817 331.49016,37.4101307 332.009463,36.9222689 L319.517081,36.9222689 L323.187377,19.6918768 L337.473536,19.6918768 L337.973076,14.7689076 L323.494727,14.7689076 L324.142779,8.38235294 L331.638208,8.38235294 L331.152835,6.8522409 C330.564088,5.07819795 330.065214,3.68113912 329.656215,2.66106443 L336.015577,0.598739496 C336.415576,1.70751634 336.862762,2.98260971 337.357135,4.42401961 C337.851508,5.86542951 338.272839,7.18487395 338.621129,8.38235294 L344.51497,8.38235294 C345.456952,7.0961718 346.385454,5.73237628 347.300478,4.29096639 C348.215501,2.84955649 349.086691,1.41923436 349.914047,0 Z M194.557684,6.65266106 L193.835376,13.7710084 L187.621217,13.7710084 L186.318362,26.6106443 L191.635632,26.6106443 L190.926825,33.5959384 L185.609555,33.5959384 L184.063681,48.8305322 C185.333744,48.5200747 186.484108,48.2317927 187.514771,47.9656863 C188.545435,47.6995798 189.544067,47.4334734 190.510667,47.1673669 L190.459304,54.6183473 C189.142032,54.9731559 187.611214,55.3279645 185.866851,55.6827731 C184.122488,56.0375817 182.138726,56.4367414 179.915563,56.8802521 C175.511947,57.7672736 172.034473,58.3660131 169.48314,58.6764706 L169.308559,51.5581232 C170.347076,51.42507 171.528897,51.2476657 172.854024,51.0259104 C174.17915,50.804155 175.647581,50.5380486 177.259316,50.227591 L178.946952,33.5959384 L172.540602,33.5959384 L173.249409,26.6106443 L179.655759,26.6106443 L180.958614,13.7710084 L174.10382,13.7710084 L174.826128,6.65266106 L194.557684,6.65266106 Z M131.034627,5.58823529 L130.312318,12.7065826 L123.137207,12.7065826 L121.841103,25.4796919 L128.695897,25.4796919 L127.966838,32.6645658 L121.112044,32.6645658 L119.633675,47.2338936 C121.164493,46.879085 122.563808,46.5575397 123.831622,46.2692577 C125.099435,45.9809757 126.282955,45.681606 127.382183,45.3711485 L127.445446,52.9551821 C124.417519,53.7535014 120.514057,54.5518207 115.735061,55.3501401 C113.255645,55.7936508 111.062838,56.1484594 109.15664,56.4145658 C107.250441,56.6806723 105.562289,56.9024276 104.092181,57.0798319 L103.789474,49.9614846 C104.908908,49.8727824 106.18345,49.7286415 107.613098,49.5290616 C109.042747,49.3294818 110.651107,49.0522876 112.438179,48.697479 L114.06506,32.6645658 L107.402456,32.6645658 L108.131515,25.4796919 L114.794118,25.4796919 L116.090223,12.7065826 L108.851048,12.7065826 L109.573356,5.58823529 L131.034627,5.58823529 Z M197.061444,20.4901961 C197.596365,21.1111111 198.173421,21.8429038 198.792613,22.6855742 C199.411805,23.5282446 200.089986,24.5261438 200.827156,25.6792717 C201.568827,26.7880486 202.203174,27.7970355 202.730197,28.7062325 C203.25722,29.6154295 203.698274,30.4248366 204.053358,31.1344538 L198.816561,35.3921569 C198.423268,34.6381886 197.974913,33.7955182 197.471494,32.8641457 C196.968076,31.9327731 196.369136,30.8905229 195.674674,29.737395 C194.980213,28.584267 194.325636,27.5641923 193.710945,26.6771709 C193.096254,25.7901494 192.542803,25.0361811 192.050591,24.4152661 L197.061444,20.4901961 Z M336.852486,25.8123249 L328.908613,25.8123249 L327.852753,30.5357143 L336.373198,30.5357143 L336.852486,25.8123249 Z M352.835807,14.7689076 L344.82787,14.7689076 L344.32833,19.6918768 L352.336267,19.6918768 L352.835807,14.7689076 Z M313.933789,1.66316527 C314.502419,2.37278245 315.12161,3.21545285 315.791364,4.19117647 C316.461118,5.16690009 317.200539,6.29785247 318.009626,7.58403361 C318.818714,8.87021475 319.523852,10.0233427 320.125043,11.0434174 C320.726233,12.0634921 321.223474,12.9505135 321.616767,13.7044818 L315.354954,17.9621849 C315.008871,17.1638655 314.557714,16.2435808 314.001483,15.2013305 C313.445252,14.1590803 312.783947,12.9948646 312.017569,11.7086835 C311.25119,10.4225023 310.544926,9.28046218 309.898777,8.28256303 C309.252628,7.28466387 308.666593,6.4309057 308.140673,5.72128852 L313.933789,1.66316527 Z" id="形状结合"></path>
                </g>
            </g>
        </g>
    </g>
</svg>