<?xml version="1.0" encoding="UTF-8"?>
<svg width="136px" height="46px" viewBox="0 0 136 46" version="1.1" xmlns="http://www.w3.org/2000/svg" xmlns:xlink="http://www.w3.org/1999/xlink">
    <!-- Generator: Sketch 61 (89581) - https://sketch.com -->
    <title>编组@3x</title>
    <desc>Created with Sketch.</desc>
    <defs>
        <linearGradient x1="92.6035503%" y1="6.55842851%" x2="50%" y2="100%" id="linearGradient-1">
            <stop stop-color="#93E2F7" offset="0%"></stop>
            <stop stop-color="#12A0FF" offset="100%"></stop>
        </linearGradient>
        <path d="M22.8067777,11.9771661 C22.8077073,11.9942965 22.8078199,12.0116154 22.8071158,12.029069 C22.7554846,13.2827642 22.5306789,14.3865148 22.1290089,15.3390549 C22.105489,15.3948094 21.9880864,15.6808812 21.9514122,15.7683107 C21.866346,15.971074 21.7864346,16.1517778 21.6978475,16.3381648 C21.4640282,16.8300973 21.1951685,17.3049802 20.8635232,17.7889401 C19.9998482,19.0493959 18.7965846,20.241007 17.1453999,21.3546426 C15.7222037,22.3145089 14.0037829,23.1874574 11.9566743,23.9603171 C11.8879502,23.9863571 11.8147205,24 11.7407978,24 C11.6653329,24.0003827 11.5904905,23.9869235 11.52033,23.9603441 C9.4732215,23.1874843 7.75480071,22.3145088 6.33157633,21.3546426 C4.68039157,20.2410339 3.47715619,19.0493959 2.61345305,17.788967 C2.28183589,17.3050072 2.01297613,16.8300973 1.77912873,16.3381648 C1.69056979,16.1517778 1.6106583,15.9711009 1.52562033,15.7683107 C1.48891795,15.6808812 1.37154355,15.3948364 1.34799542,15.3390819 C0.947452132,14.3892083 0.722787364,13.2889861 0.670339292,12.0396273 C0.660352231,11.9979436 0.655354005,11.9553139 0.655354005,11.9125502 L0.655354005,2.48546032 C0.655354005,2.41429925 0.669099911,2.34620874 0.69419725,2.28345126 C0.739124569,2.0622648 0.920777432,1.87905604 1.16645524,1.83517966 L11.1551089,0.0517089241 C11.5412549,-0.017236308 11.9374114,-0.017236308 12.3235573,0.0517089241 L22.3121829,1.83517966 C22.5911548,1.88500857 22.7875674,2.11449087 22.7950037,2.3751903 C22.804299,2.4150265 22.8092002,2.45642488 22.8092002,2.4989276 L22.8092002,11.9260175 C22.8092002,11.9432556 22.8083833,11.9603321 22.8068059,11.9771931 L22.8067777,11.9771661 Z" id="path-2"></path>
        <linearGradient x1="71.8204734%" y1="-1.44665099%" x2="50%" y2="47.256093%" id="linearGradient-4">
            <stop stop-color="#7CD6F8" offset="0%"></stop>
            <stop stop-color="#21A8FD" offset="100%"></stop>
        </linearGradient>
        <linearGradient x1="50%" y1="0%" x2="50%" y2="100%" id="linearGradient-5">
            <stop stop-color="#6DCFFA" offset="0%"></stop>
            <stop stop-color="#75D3F9" offset="100%"></stop>
        </linearGradient>
        <linearGradient x1="50%" y1="0%" x2="50%" y2="100%" id="linearGradient-6">
            <stop stop-color="#80D8F9" offset="0%"></stop>
            <stop stop-color="#1DA6FE" offset="100%"></stop>
        </linearGradient>
        <linearGradient x1="50%" y1="0%" x2="50%" y2="100%" id="linearGradient-7">
            <stop stop-color="#91E4FF" offset="0%"></stop>
            <stop stop-color="#26AAFE" offset="100%"></stop>
        </linearGradient>
        <linearGradient x1="50%" y1="0%" x2="50%" y2="100%" id="linearGradient-8">
            <stop stop-color="#FFFFFF" offset="0%"></stop>
            <stop stop-color="#8BDEF8" offset="100%"></stop>
        </linearGradient>
        <path d="M10.471549,15.1097779 L17.4734565,7.56723014 C17.7000862,7.32308416 18.0668423,7.32385962 18.2926444,7.56887053 C18.5184466,7.81394107 18.5177294,8.21049188 18.2911273,8.45463784 L10.8855839,16.4319717 L10.8848392,16.432777 C10.6599473,16.6750142 10.2971081,16.6761476 10.0709198,16.4367735 L5.71340194,11.8445566 C5.4843173,11.6031247 5.47960046,11.2066038 5.70292003,10.9588788 C5.92621205,10.7111837 6.29294052,10.7060836 6.52205275,10.9475454 L10.4715214,15.1097779 L10.471549,15.1097779 Z" id="path-9"></path>
        <filter x="-38.7%" y="-43.3%" width="177.4%" height="208.3%" filterUnits="objectBoundingBox" id="filter-10">
            <feOffset dx="0" dy="1" in="SourceAlpha" result="shadowOffsetOuter1"></feOffset>
            <feGaussianBlur stdDeviation="1.5" in="shadowOffsetOuter1" result="shadowBlurOuter1"></feGaussianBlur>
            <feColorMatrix values="0 0 0 0 0   0 0 0 0 0.5814677   0 0 0 0 0.947576993  0 0 0 1 0" type="matrix" in="shadowBlurOuter1"></feColorMatrix>
        </filter>
    </defs>
    <g id="页面-1" stroke="none" stroke-width="1" fill="none" fill-rule="evenodd">
        <g id="订单备份-3" transform="translate(-197.000000, -245.000000)">
            <g id="编组" transform="translate(198.000000, 246.000000)">
                <rect id="矩形" stroke="#B8E3FF" fill-opacity="0.2" fill="#FFFFFF" x="0" y="0" width="134" height="44" rx="22"></rect>
                <text id="已认证" font-family="PingFangSC-Medium, PingFang SC" font-size="24" font-weight="400" fill="#12A0FF">
                    <tspan x="46" y="31">已认证</tspan>
                </text>
                <g id="实名认证" transform="translate(16.000000, 11.000000)">
                    <g id="路径-2" transform="translate(0.267723, 0.000000)">
                        <mask id="mask-3" fill="white">
                            <use xlink:href="#path-2"></use>
                        </mask>
                        <use id="蒙版" fill="url(#linearGradient-1)" fill-rule="nonzero" xlink:href="#path-2"></use>
                        <path d="M5.46455416,13.2838109 C11.944076,11.0484899 16.7713228,11.7322086 19.9462945,15.334967 C24.708752,20.7391046 22.600981,31.1926285 7.77224647,31.3826611 C-2.11357656,31.5093496 -2.88280732,25.4763995 5.46455416,13.2838109 Z" id="路径-2备份" fill="url(#linearGradient-4)" mask="url(#mask-3)"></path>
                        <path d="M3.03470268,1.02140518e-14 C5.14539975,9.44130048 8.7632179,13.5951466 13.8881571,12.4615385 C19.0130964,11.3279303 22.6309145,6.25100721 24.7416116,-2.76923077 L3.03470268,1.02140518e-14 Z" id="路径-3" fill="url(#linearGradient-5)" mask="url(#mask-3)"></path>
                        <path d="M-3.76621507,3.00769704 C2.7133068,0.985263755 7.54055356,1.60386638 10.7155252,4.86350493 C15.4779827,9.75296275 12.3913595,21.6923077 -1.45852276,19.3828473 C-10.6917776,17.843207 -11.4610084,12.3848236 -3.76621507,3.00769704 Z" fill="url(#linearGradient-6)" mask="url(#mask-3)"></path>
                    </g>
                    <path d="M22.0769231,2.5101107 L22.0769231,2.5040261 C22.0769332,2.50406635 22.0769434,2.5041066 22.0769535,2.50414684 C22.0769819,2.50658513 22.0770302,2.50902403 22.0770984,2.51146318 L22.0769231,2.5101107 Z M22.0770984,2.51146318 C22.0779506,2.54196898 22.0819074,2.57251489 22.0888865,2.60242454 L22.0770984,2.51146318 Z M22.0752372,2.49710161 L22.0631332,2.40370289 C22.0640538,2.43597899 22.0682079,2.46721351 22.0752372,2.49710161 Z M22.0769231,2.76118704 L12.4155128,1.03614064 C12.1456259,0.987953118 11.8684862,0.987953118 11.5986017,1.03614021 L1.92307692,2.76370188 L1.92307692,11.8965352 L1.93718221,11.9976843 C1.98497996,13.1362682 2.18654669,14.1190986 2.53692451,14.9500071 C2.57290036,15.0364497 2.57290036,15.0364497 2.63223566,15.1803666 C2.63232053,15.1805723 2.63232053,15.1805723 2.6324054,15.1807781 C2.68358733,15.3048238 2.68358733,15.3048238 2.71554261,15.3815959 C2.79782176,15.5778071 2.87124302,15.743079 2.95000142,15.9088392 C3.16945722,16.3704968 3.41422802,16.7977674 3.70608516,17.2237018 C4.524831,18.418523 5.65700142,19.5129545 7.15844783,20.5255751 C8.50401254,21.4330653 10.1162266,22.2503983 12.0061956,22.9734655 C13.8956884,22.2506517 15.5082351,21.4332009 16.8539653,20.5255811 C18.3554908,19.5128827 19.4876626,18.4184562 20.306348,17.2236586 C20.5982563,16.7976857 20.8430111,16.3704551 21.062393,15.9088974 C21.1410818,15.7433364 21.2144703,15.5781601 21.2969793,15.3814922 C21.3288654,15.3048509 21.3288654,15.3048509 21.3800539,15.1807782 C21.3801366,15.1805777 21.3801366,15.1805777 21.3802193,15.1803772 C21.4395638,15.0364295 21.4395638,15.0364295 21.4753044,14.9505046 C21.8269041,14.1167035 22.0286255,13.1306223 22.0756516,11.988756 C22.0751345,12.0093258 22.0751345,12.0093258 22.0759696,12.0313482 L22.0788763,11.8840475 C22.0772633,11.9046569 22.0772633,11.9046569 22.0769231,11.9260175 L22.0769231,2.76118704 Z M1.91537192,2.56865493 C1.91635417,2.56632294 1.91731814,2.5639789 1.91826361,2.56162298 L1.91389238,2.5762493 C1.91440674,2.57372268 1.91489999,2.57119097 1.91537192,2.56865493 Z M1.92307692,2.54908985 C1.93090033,2.52777274 1.93722999,2.50553945 1.94190851,2.48250616 L1.92307692,2.54551744 L1.92307692,2.54908985 Z M1.91389238,2.5762493 L1.8904257,2.65476984 C1.90056457,2.62941694 1.90842626,2.60309789 1.91389227,2.5762497 Z M1.92268425,11.8937193 C1.92146558,11.8644939 1.9174115,11.8353118 1.91053963,11.8066302 L1.92268425,11.8937193 Z M12.1419023,23.0250421 C12.1420419,23.0250948 12.1421814,23.0251474 12.142321,23.0252001 C12.1421815,23.0251473 12.1420419,23.0250945 12.1419024,23.0250418 Z M11.8716062,23.0246146 C11.8714686,23.0246666 11.8713311,23.0247186 11.8711936,23.0247707 C11.8713319,23.0247185 11.8714702,23.0246662 11.8716085,23.024614 Z" id="路径" stroke="url(#linearGradient-7)" stroke-width="2" fill-rule="nonzero"></path>
                    <g id="路径" fill-rule="nonzero">
                        <use fill="black" fill-opacity="1" filter="url(#filter-10)" xlink:href="#path-9"></use>
                        <use fill="url(#linearGradient-8)" xlink:href="#path-9"></use>
                    </g>
                </g>
            </g>
        </g>
    </g>
</svg>