<?xml version="1.0" encoding="UTF-8"?>
<svg width="172px" height="44px" viewBox="0 0 172 44" version="1.1" xmlns="http://www.w3.org/2000/svg" xmlns:xlink="http://www.w3.org/1999/xlink">
    <!-- Generator: Sketch 61 (89581) - https://sketch.com -->
    <title>编组@3x</title>
    <desc>Created with Sketch.</desc>
    <g id="页面-1" stroke="none" stroke-width="1" fill="none" fill-rule="evenodd">
        <g id="订单备份-5" transform="translate(-198.000000, -246.000000)">
            <g id="编组" transform="translate(198.000000, 246.000000)">
                <rect id="矩形" stroke="#DDDDDD" fill-opacity="0.2" fill="#FFFFFF" x="0.5" y="0.5" width="171" height="43" rx="21.5"></rect>
                <path d="M151.664101,19.4961509 L155.927066,25.8905996 C156.539771,26.809657 156.291424,28.0513957 155.372366,28.6641006 C155.043831,28.8831239 154.657816,29 154.262966,29 L145.737034,29 C144.632465,29 143.737034,28.1045695 143.737034,27 C143.737034,26.60515 143.85391,26.2191346 144.072934,25.8905996 L148.335899,19.4961509 C148.948604,18.5770935 150.190343,18.3287458 151.1094,18.9414507 C151.329105,19.0879204 151.517631,19.2764463 151.664101,19.4961509 Z" id="三角形" fill="#666666" transform="translate(150.000000, 23.000000) rotate(90.000000) translate(-150.000000, -23.000000) "></path>
                <text id="未实名认证" font-family="PingFangSC-Regular, PingFang SC" font-size="24" font-weight="normal" fill="#666666">
                    <tspan x="16" y="31">未实名认证</tspan>
                </text>
            </g>
        </g>
    </g>
</svg>