<?xml version="1.0" encoding="UTF-8"?>
<svg width="240px" height="103px" viewBox="0 0 240 103" version="1.1" xmlns="http://www.w3.org/2000/svg" xmlns:xlink="http://www.w3.org/1999/xlink">
    <!-- Generator: Sketch 61 (89581) - https://sketch.com -->
    <title>编组 5@3x</title>
    <desc>Created with Sketch.</desc>
    <defs>
        <linearGradient x1="38.5797194%" y1="54.1546173%" x2="59.2012859%" y2="37.9383971%" id="linearGradient-1">
            <stop stop-color="#12A0FF" offset="0%"></stop>
            <stop stop-color="#65C1FF" offset="100%"></stop>
        </linearGradient>
    </defs>
    <g id="页面-1" stroke="none" stroke-width="1" fill="none" fill-rule="evenodd">
        <g id="发件信息备份" transform="translate(-249.000000, -569.000000)">
            <g id="编组-5" transform="translate(249.000000, 569.000000)">
                <path d="M31,2.84217094e-13 L209,2.84217094e-13 C226.120827,2.81072049e-13 240,13.8791728 240,31 C240,48.1208272 226.120827,62 209,62 C191.441755,62 173.883511,62 156.325266,62 C139.137453,62 121.10396,73.2800133 121.10396,96.1559081 C121.10396,97.1696198 121.10396,99.0518103 121.10396,101.80248 C121.103954,102.393452 120.624877,102.872529 120.033905,102.872529 C119.44293,102.872529 118.96385,102.393449 118.96385,101.802474 C118.96385,99.9202855 118.96385,98.0380968 118.96385,96.1559081 C118.96385,73.2546581 101.25519,62 84.0435864,62 C66.362391,62 48.6811955,62 31,62 C13.8791728,62 2.09669663e-15,48.1208272 0,31 C-2.09669663e-15,13.8791728 13.8791728,2.90914853e-13 31,2.84217094e-13 Z" id="矩形" fill="url(#linearGradient-1)"></path>
                <circle id="椭圆形" fill="#0E86D6" cx="120" cy="98" r="5"></circle>
            </g>
        </g>
    </g>
</svg>