<?xml version="1.0" encoding="UTF-8"?>
<svg width="40px" height="40px" viewBox="0 0 40 40" version="1.1" xmlns="http://www.w3.org/2000/svg" xmlns:xlink="http://www.w3.org/1999/xlink">
    <!-- Generator: Sketch 61 (89581) - https://sketch.com -->
    <title>切片</title>
    <desc>Created with Sketch.</desc>
    <defs>
        <path d="M33.4962766,15.8123641 C33.3359043,7.06548913 26.6996011,1.77635684e-14 18.5505319,1.77635684e-14 L17.3537234,1.77635684e-14 C9.20465426,1.77635684e-14 2.56835106,7.06548913 2.40797872,15.8111413 C0.976595745,16.6585598 1.98951966e-13,18.2225543 1.98951966e-13,20.0311141 L1.98951966e-13,22.4767663 C1.98951966e-13,25.1743207 2.14707447,27.3680707 4.78723404,27.3680707 C7.42739362,27.3680707 9.57446809,25.1743207 9.57446809,22.4767663 L9.57446809,20.0311141 C9.5706653,17.3502175 7.45644077,15.1714939 4.83271277,15.1447011 C5.30066489,8.05842391 10.7305851,2.44565217 17.3537234,2.44565217 L18.5505319,2.44565217 C25.174867,2.44565217 30.6035904,8.05842391 31.0715426,15.1447011 C28.4478145,15.1714939 26.33359,17.3502175 26.3297872,20.0311141 L26.3297872,22.4767663 C26.3297872,24.6851902 27.7779255,26.5341033 29.7478723,27.1394022 C27.9699988,29.5304989 25.4312505,31.2127964 22.5694149,31.8961957 C22.1642326,30.6546994 21.0281952,29.8163915 19.7473404,29.8137228 C18.0948927,29.8137228 16.7553191,31.1824175 16.7553191,32.870788 C16.7553191,34.5591585 18.0948927,35.9278533 19.7473404,35.9278533 C20.7837848,35.9264444 21.7450724,35.3749203 22.2857713,34.4714674 C26.6513855,33.6911207 30.458492,30.9845409 32.6920213,27.0733696 C34.5566489,26.4057065 35.9042553,24.6081522 35.9042553,22.4767663 L35.9042553,20.0311141 C35.9042553,18.2225543 34.9276596,16.6585598 33.4962766,15.8123641 Z M7.18085106,20.0311141 L7.18085106,22.4767663 C7.18085106,23.8255435 6.10731383,24.9224185 4.78723404,24.9224185 C3.46715426,24.9224185 2.39361702,23.8255435 2.39361702,22.4767663 L2.39361702,20.0311141 C2.39361702,18.682337 3.46715426,17.585462 4.78723404,17.585462 C6.10731383,17.585462 7.18085106,18.682337 7.18085106,20.0311141 Z M33.5106383,22.4767663 C33.5106383,23.7876359 32.4933511,24.8527174 31.224734,24.911413 L31.131383,24.8661685 C31.1230053,24.8857337 31.1098404,24.9016304 31.1014628,24.9199728 C29.7865176,24.9112403 28.7246915,23.820325 28.7234043,22.4767663 L28.7234043,20.0311141 C28.7234043,18.682337 29.7969415,17.585462 31.1170213,17.585462 C32.4371011,17.585462 33.5106383,18.682337 33.5106383,20.0311141 L33.5106383,22.4767663 Z" id="path-1"></path>
    </defs>
    <g id="页面-1" stroke="none" stroke-width="1" fill="none" fill-rule="evenodd">
        <g id="订单备份-3" transform="translate(-50.000000, -714.000000)">
            <g id="联系客服" transform="translate(50.000000, 714.000000)">
                <g>
                    <rect id="矩形" fill="#D8D8D8" opacity="0" x="0" y="0" width="40" height="40"></rect>
                    <g id="路径-4" transform="translate(2.000000, 2.030876)">
                        <mask id="mask-2" fill="white">
                            <use xlink:href="#path-1"></use>
                        </mask>
                        <use id="蒙版" fill="#44494E" fill-rule="nonzero" xlink:href="#path-1"></use>
                        <path d="M23.9234463,15.3631661 C28.3584758,14.8842512 31.3743403,14.9490549 32.97104,15.5575773 C34.5677396,16.1660998 35.9293811,17.4725678 37.0559644,19.4769814 L36.3744396,30.7656392 L22.4897848,40.8518381 L13.6877857,33.1858013 L23.9234463,15.3631661 Z" fill="#12A0FF" mask="url(#mask-2)"></path>
                    </g>
                </g>
            </g>
        </g>
    </g>
</svg>